<svg width="74" height="74" viewBox="0 0 74 74" fill="none" xmlns="http://www.w3.org/2000/svg">
<g clip-path="url(#clip0_720_490)">
<path d="M5.41073 34.5448C5.41073 26.1767 5.42534 17.8086 5.40342 9.44784C5.39611 6.78759 6.25119 4.53661 8.30485 2.81183C9.6642 1.67172 11.2428 0.977428 13.0407 0.970119C19.304 0.940886 25.5672 0.948194 31.8305 0.948194C41.558 0.948194 51.2781 0.962811 61.0056 0.940886C62.8912 0.933577 64.6086 1.37208 66.1288 2.48295C67.5758 3.54267 68.5332 4.94588 69.096 6.67797C69.4395 7.7523 69.4468 8.81201 69.4468 9.90096C69.4468 13.5698 69.4614 17.2386 69.4322 20.9074C69.4175 22.7491 67.7293 24.547 65.8876 24.6858C64.6744 24.7808 63.4466 24.7662 62.2261 24.7735C60.4502 24.7881 58.6742 24.7735 56.8983 24.7735C56.584 24.7735 56.1674 24.6274 56.0359 25.0293C55.8824 25.4824 55.8459 25.9794 56.2259 26.3814C56.6644 26.8491 57.1322 27.2876 57.578 27.748C58.835 29.0562 60.1432 30.3279 61.3345 31.7019C62.4234 32.9662 63.315 34.3913 63.9509 35.948C64.2505 36.6935 64.6013 37.417 64.8498 38.1771C65.0983 38.9518 65.2298 39.763 65.4345 40.5523C66.1361 43.2126 65.8218 45.924 65.8511 48.6062C65.8949 52.6769 65.8657 56.7477 65.8218 60.8185C65.8145 61.7174 65.6318 62.6163 65.5003 63.5152C65.4052 64.1876 65.2737 64.86 65.1494 65.5324C64.7621 67.6518 63.9874 69.647 63.1323 71.6129C62.8912 72.1757 62.248 72.585 61.7657 72.5411C61.2175 72.4899 60.5598 71.9784 60.5086 71.3718C60.4721 70.9479 60.6986 70.4948 60.8448 70.0636C61.371 68.4996 62.0068 66.9648 62.4234 65.3789C62.9642 63.3325 63.1616 61.2204 63.1689 59.101C63.1762 54.2701 63.2054 49.4393 63.1543 44.6085C63.1396 43.1176 62.9642 41.634 62.5842 40.1504C61.9557 37.6874 60.8887 35.473 59.3101 33.5143C58.4404 32.44 57.4391 31.468 56.489 30.4667C56.4013 30.3717 56.2332 30.3206 56.1017 30.3206C56.0505 30.3206 55.9628 30.5325 55.9628 30.6495C55.9555 36.7008 55.9482 42.7594 55.9482 48.8108C55.9482 50.7037 55.992 52.6038 55.9263 54.4894C55.8605 56.4407 54.8008 57.7782 53.1125 58.6844C51.9944 59.2837 50.7739 59.3129 49.6264 59.0352C48.0844 58.6552 46.8493 57.7051 46.2646 56.1484C45.7165 54.6721 45.2487 53.1666 44.7444 51.6757C44.4886 50.9302 44.2475 50.1775 43.9771 49.4393C43.7286 48.7596 42.9466 48.2334 42.3181 48.2992C41.558 48.3796 40.8491 49.1104 40.776 49.9363C40.7395 50.3529 40.7833 50.7694 40.7833 51.186C40.7833 53.8682 40.8345 56.5577 40.7687 59.2398C40.7029 62.017 41.1999 64.6554 42.4058 67.1694C42.9539 68.3242 43.3924 69.53 43.8601 70.7213C44.1305 71.4083 43.8163 72.0734 43.0708 72.4388C42.5081 72.7165 41.8138 72.5192 41.5068 71.898C41.0464 70.9771 40.6591 70.027 40.2644 69.0842C39.804 67.9807 39.3582 66.8771 38.9416 65.7662C38.3862 64.2607 38.1377 62.6894 38.1304 61.0816C38.123 58.889 38.123 56.6965 38.1304 54.504C38.1304 53.8755 37.9842 53.7001 37.3557 53.7001C35.2509 53.7001 33.1533 53.7074 31.0485 53.7001C30.7123 53.7001 30.3469 53.6709 30.0619 53.5174C29.543 53.247 29.3676 52.6038 29.5357 51.9899C29.6746 51.5003 30.135 51.1568 30.7197 51.1568C32.8976 51.1495 35.0755 51.1495 37.2533 51.1495C38.05 51.1495 38.1596 51.0691 38.1157 50.2871C38.028 48.5696 38.7223 47.2468 40.1329 46.304C42.6104 44.645 45.7969 46.114 46.5496 48.6865C46.9296 49.9947 47.4193 51.2737 47.8651 52.5746C48.1209 53.3201 48.384 54.0582 48.6179 54.811C49.0345 56.1484 50.4158 56.66 51.2489 56.5211C52.5059 56.3092 53.3318 55.2641 53.3318 53.8828C53.3318 50.784 53.3318 47.678 53.3318 44.5792C53.3318 32.8274 53.3172 21.0755 53.3318 9.3236C53.3318 7.44535 53.7264 5.65479 54.9762 4.15657C55.0639 4.05426 55.0712 3.89347 55.115 3.76192C54.9689 3.68884 54.8227 3.60114 54.6765 3.60114C48.786 3.59383 42.8954 3.59383 37.0049 3.59383C29.2945 3.59383 21.5842 3.58652 13.8738 3.59383C11.4401 3.59383 9.60574 4.64624 8.58256 6.86798C8.25369 7.5842 8.11483 8.4539 8.11483 9.25052C8.07829 20.8562 8.0929 32.4619 8.0929 44.0603C8.0929 49.4905 8.0929 54.9206 8.0929 60.3434C8.0929 61.6955 8.67027 62.2728 10.015 62.2728C15.9056 62.2655 21.7961 62.2874 27.6867 62.2509C28.9072 62.2436 29.5503 63.3033 29.1849 64.1072C28.9583 64.6188 28.4687 64.955 27.8402 64.955C22.3954 64.955 16.9507 64.955 11.5059 64.955C10.9359 64.955 10.3731 64.9258 9.80306 64.9623C8.06367 65.0866 6.20003 63.8661 5.68845 62.2436C5.50574 61.6735 5.40342 61.045 5.40342 60.4457C5.39611 51.8145 5.40342 43.1833 5.41073 34.5448C5.41073 34.5448 5.40342 34.5448 5.41073 34.5448ZM55.9482 15.1849H55.9555C55.9555 17.2459 55.9482 19.2995 55.9555 21.3605C55.9555 21.9525 56.0724 22.0694 56.5621 22.0694C59.3685 22.0621 62.1676 22.0256 64.974 22.0694C66.158 22.084 66.7719 21.2801 66.7719 20.2642C66.7646 16.6247 66.7719 12.9851 66.7573 9.35283C66.75 8.13964 66.465 7.00684 65.7926 5.96905C64.6232 4.17119 61.7949 2.94338 59.4343 4.01771C57.176 5.04089 55.9847 6.83144 55.9555 9.33091C55.9336 11.2822 55.9482 13.2336 55.9482 15.1849Z" fill="white"/>
<path d="M24.6023 14.3298C24.5512 15.5942 24.5439 16.8585 24.4269 18.1156C24.3465 19.0072 23.718 19.5407 22.9214 19.9061C22.2636 20.2131 21.584 20.2569 20.8751 20.2496C19.2818 20.235 17.6886 20.2569 16.0954 20.2423C14.2098 20.2277 12.8797 19.0145 12.8797 17.0632C12.887 15.1995 12.8651 13.3359 12.887 11.4796C12.9016 10.4418 13.2451 9.5063 14.1806 8.9801C14.6775 8.69507 15.2988 8.51967 15.8688 8.49774C17.8055 8.43928 19.7423 8.44658 21.679 8.49043C22.7387 8.51236 23.7107 8.85585 24.2077 9.87903C24.4342 10.3541 24.5146 10.9387 24.5439 11.4723C24.595 12.4223 24.5585 13.3797 24.5585 14.3298C24.5658 14.3298 24.5877 14.3298 24.6023 14.3298ZM18.7556 17.4286C19.6326 17.4286 20.5169 17.4213 21.3939 17.4286C21.774 17.4359 21.9275 17.2751 21.9275 16.8951C21.9128 15.1995 21.9202 13.4967 21.9128 11.8011C21.9128 11.2603 21.8178 11.1653 21.2916 11.1653C19.5815 11.158 17.864 11.158 16.1538 11.158C15.6788 11.158 15.6057 11.2676 15.6057 11.75C15.613 13.4455 15.613 15.1484 15.5984 16.8439C15.5984 17.3043 15.6861 17.4286 16.1611 17.4286C17.0308 17.4359 17.8932 17.4286 18.7556 17.4286Z" fill="white"/>
<path d="M18.7997 53.6782C17.7692 53.6782 16.7387 53.6489 15.7155 53.6855C13.9615 53.744 12.9822 52.5454 12.9164 50.9668C12.8214 48.9277 12.8214 46.8814 12.9091 44.8423C12.9822 43.1687 14.1516 42.0798 15.8617 42.0505C17.7692 42.014 19.6767 42.0505 21.5842 42.0359C22.9655 42.0213 24.5221 42.9933 24.5441 44.7473C24.566 46.8521 24.566 48.9497 24.5441 51.0545C24.5295 52.1727 24.069 53.0643 22.9801 53.4882C22.6147 53.627 22.1981 53.6636 21.8034 53.6709C20.7949 53.7001 19.7936 53.6782 18.7997 53.6782ZM18.7485 44.8204C17.9008 44.8204 17.053 44.8204 16.1979 44.8204C15.7302 44.8204 15.5913 44.9593 15.5913 45.3905C15.5986 47.0568 15.6132 48.7304 15.6059 50.3967C15.6059 51.0472 15.6717 51.1349 16.3002 51.1349C17.8934 51.1349 19.4867 51.1422 21.0872 51.1349C21.8034 51.1349 21.9057 51.0399 21.9057 50.3017C21.9057 48.6792 21.9057 47.0495 21.9057 45.427C21.9057 44.952 21.7742 44.8204 21.2918 44.8204C20.4514 44.8204 19.6036 44.8204 18.7485 44.8204Z" fill="white"/>
<path d="M18.785 25.3655C19.8885 25.3655 20.9921 25.3509 22.0957 25.3728C23.3016 25.3947 24.2663 26.2352 24.4563 27.4118C24.5221 27.8211 24.544 28.245 24.544 28.6543C24.5513 30.4302 24.5586 32.1988 24.544 33.9748C24.5367 34.9322 24.3393 35.8311 23.4696 36.4011C22.9142 36.7666 22.3149 36.9931 21.6279 36.9858C19.7058 36.9639 17.7837 36.9931 15.8616 36.9785C14.0711 36.9639 12.9821 35.8676 12.909 34.2159C12.8213 32.1623 12.8213 30.1013 12.909 28.0477C12.9675 26.5714 13.9688 25.307 15.7081 25.3655C16.7313 25.3874 17.7618 25.3582 18.785 25.3655ZM18.7119 34.2598C18.7119 34.2598 18.7119 34.2525 18.7119 34.2598C19.5743 34.2598 20.4367 34.2598 21.3064 34.2598C21.7741 34.2598 21.913 34.1282 21.9203 33.6459C21.9203 31.9942 21.9203 30.3352 21.9203 28.6835C21.9203 28.0696 21.7814 27.938 21.1894 27.938C19.5524 27.9307 17.908 27.938 16.2709 27.938C15.7228 27.938 15.6131 28.0842 15.6131 28.647C15.6204 30.3133 15.6131 31.9869 15.6131 33.6532C15.6131 34.1209 15.7447 34.2671 16.2197 34.2671C17.0456 34.2525 17.8787 34.2598 18.7119 34.2598Z" fill="white"/>
<path d="M38.7955 36.9931C36.201 36.9931 33.6066 36.9931 31.0121 36.9931C30.1936 36.9931 29.4919 36.4012 29.4773 35.6849C29.4627 34.8226 30.0182 34.2525 30.9463 34.2452C33.1535 34.2306 35.3606 34.2452 37.5677 34.2452C40.5641 34.2452 43.5606 34.2379 46.557 34.2379C47.2221 34.2379 47.7483 34.4571 48.0918 35.1003C48.4572 35.7946 47.8871 36.8397 46.9809 36.9493C46.6886 36.9858 46.3889 36.9639 46.0893 36.9639C43.6629 36.9639 41.2292 36.9639 38.8028 36.9639C38.7955 36.9785 38.7955 36.9858 38.7955 36.9931Z" fill="white"/>
<path d="M42.0183 17.4286C43.5677 17.4286 45.1171 17.4286 46.6665 17.4286C47.4558 17.4286 48.1062 17.889 48.1793 18.6491C48.2158 18.9853 48.0477 19.4676 47.8066 19.6796C47.4704 19.9719 46.9734 20.2131 46.5422 20.2204C43.5458 20.2642 40.5567 20.2423 37.5602 20.2423C36.9609 20.2423 36.4347 20.0231 36.0985 19.5261C35.3896 18.4591 36.4128 17.4213 37.3264 17.4286C38.8903 17.4359 40.4543 17.4286 42.0183 17.4286Z" fill="white"/>
<path d="M32.0937 18.8172C32.0864 19.4823 31.3848 20.2204 30.7782 20.2131C30.1643 20.2058 29.47 19.4238 29.4846 18.7441C29.4992 18.0864 30.1862 17.3994 30.8074 17.414C31.4725 17.4359 32.101 18.1156 32.0937 18.8172Z" fill="white"/>
<path d="M32.7515 63.5737C32.7515 62.8721 33.3581 62.2874 34.0816 62.2874C34.8124 62.2874 35.3606 62.8648 35.3532 63.6175C35.3459 64.3922 34.7759 64.9769 34.045 64.9623C33.3434 64.9477 32.7515 64.3118 32.7515 63.5737Z" fill="white"/>
</g>
<defs>
<clipPath id="clip0_720_490">
<rect x="0.886719" y="0.202728" width="73.0838" height="73.0838" rx="15" fill="white"/>
</clipPath>
</defs>
</svg>
