<svg width="22" height="22" viewBox="0 0 22 22" fill="none" xmlns="http://www.w3.org/2000/svg">
    <path d="M8.62963 16.98C4.0233 16.98 0.279297 13.236 0.279297 8.62963C0.279297 4.0233 4.0233 0.279297 8.62963 0.279297C13.236 0.279297 16.98 4.0233 16.98 8.62963C16.98 13.2316 13.2316 16.98 8.62963 16.98ZM8.62963 1.71796C4.8163 1.71796 1.71796 4.82063 1.71796 8.62963C1.71796 12.4386 4.82063 15.5413 8.62963 15.5413C12.4386 15.5413 15.5413 12.4386 15.5413 8.62963C15.5413 4.82063 12.4386 1.71796 8.62963 1.71796Z" fill="#FFFFFF"/>
    <path d="M21.0011 21.7206C20.8191 21.7206 20.6327 21.6513 20.4941 21.5083L13.5174 14.5316C13.2357 14.2499 13.2357 13.7949 13.5174 13.5133C13.7991 13.2316 14.2541 13.2316 14.5357 13.5133L21.5124 20.4899C21.7941 20.7716 21.7941 21.2266 21.5124 21.5083C21.3694 21.6513 21.1874 21.7206 21.0011 21.7206Z" fill="#FFFFFF"/>
</svg>
