<svg width="43" height="43" viewBox="0 0 43 43" fill="none" xmlns="http://www.w3.org/2000/svg">
<path d="M2.66184 20.2057C2.66184 15.2822 2.67044 10.3587 2.65754 5.43946C2.65324 3.87426 3.15634 2.54986 4.36464 1.53506C5.16444 0.864257 6.09324 0.455757 7.15104 0.451457C10.8361 0.434257 14.5212 0.438557 18.2063 0.438557C23.9296 0.438557 29.6486 0.447157 35.3719 0.434257C36.4813 0.429957 37.4918 0.687957 38.3862 1.34156C39.2376 1.96506 39.8009 2.79066 40.132 3.80976C40.3341 4.44186 40.3384 5.06536 40.3384 5.70606C40.3384 7.86466 40.347 10.0233 40.3298 12.1819C40.3212 13.2655 39.3279 14.3233 38.2443 14.405C37.5305 14.4609 36.8081 14.4523 36.09 14.4566C35.0451 14.4652 34.0002 14.4566 32.9553 14.4566C32.7704 14.4566 32.5253 14.3706 32.4479 14.6071C32.3576 14.8737 32.3361 15.1661 32.5597 15.4026C32.8177 15.6778 33.0929 15.9358 33.3552 16.2067C34.0948 16.9764 34.8645 17.7246 35.5654 18.533C36.2061 19.2769 36.7307 20.1154 37.1048 21.0313C37.2811 21.4699 37.4875 21.8956 37.6337 22.3428C37.7799 22.7986 37.8573 23.2759 37.9777 23.7403C38.3905 25.3055 38.2056 26.9008 38.2228 28.4789C38.2486 30.874 38.2314 33.2691 38.2056 35.6642C38.2013 36.1931 38.0938 36.722 38.0164 37.2509C37.9605 37.6465 37.8831 38.0421 37.81 38.4377C37.5821 39.6847 37.1263 40.8586 36.6232 42.0153C36.4813 42.3464 36.1029 42.5872 35.8191 42.5614C35.4966 42.5313 35.1096 42.2303 35.0795 41.8734C35.058 41.624 35.1913 41.3574 35.2773 41.1037C35.5869 40.1835 35.961 39.2805 36.2061 38.3474C36.5243 37.1434 36.6404 35.9007 36.6447 34.6537C36.649 31.8114 36.6662 28.9691 36.6361 26.1268C36.6275 25.2496 36.5243 24.3767 36.3007 23.5038C35.9309 22.0547 35.3031 20.7518 34.3743 19.5994C33.8626 18.9673 33.2735 18.3954 32.7145 17.8063C32.6629 17.7504 32.564 17.7203 32.4866 17.7203C32.4565 17.7203 32.4049 17.845 32.4049 17.9138C32.4006 21.4742 32.3963 25.0389 32.3963 28.5993C32.3963 29.713 32.4221 30.831 32.3834 31.9404C32.3447 33.0885 31.7212 33.8754 30.7279 34.4086C30.07 34.7612 29.3519 34.7784 28.6768 34.615C27.7695 34.3914 27.0428 33.8324 26.6988 32.9165C26.3763 32.0479 26.1011 31.1621 25.8044 30.2849C25.6539 29.8463 25.512 29.4034 25.3529 28.9691C25.2067 28.5692 24.7466 28.2596 24.3768 28.2983C23.9296 28.3456 23.5125 28.7756 23.4695 29.2615C23.448 29.5066 23.4738 29.7517 23.4738 29.9968C23.4738 31.5749 23.5039 33.1573 23.4652 34.7354C23.4265 36.3694 23.7189 37.9217 24.4284 39.4009C24.7509 40.0803 25.0089 40.7898 25.2841 41.4907C25.4432 41.8949 25.2583 42.2862 24.8197 42.5012C24.4886 42.6646 24.0801 42.5485 23.8995 42.183C23.6286 41.6412 23.4007 41.0822 23.1685 40.5275C22.8976 39.8782 22.6353 39.2289 22.3902 38.5753C22.0634 37.6895 21.9172 36.765 21.9129 35.819C21.9086 34.529 21.9086 33.239 21.9129 31.949C21.9129 31.5792 21.8269 31.476 21.4571 31.476C20.2187 31.476 18.9846 31.4803 17.7462 31.476C17.5484 31.476 17.3334 31.4588 17.1657 31.3685C16.8604 31.2094 16.7572 30.831 16.8561 30.4698C16.9378 30.1817 17.2087 29.9796 17.5527 29.9796C18.8341 29.9753 20.1155 29.9753 21.3969 29.9753C21.8656 29.9753 21.9301 29.928 21.9043 29.4679C21.8527 28.4574 22.2612 27.6791 23.0911 27.1244C24.5488 26.1483 26.4236 27.0126 26.8665 28.5262C27.0901 29.2959 27.3782 30.0484 27.6405 30.8138C27.791 31.2524 27.9458 31.6867 28.0834 32.1296C28.3285 32.9165 29.1412 33.2175 29.6314 33.1358C30.371 33.0111 30.8569 32.3962 30.8569 31.5835C30.8569 29.7603 30.8569 27.9328 30.8569 26.1096C30.8569 19.1952 30.8483 12.2808 30.8569 5.36636C30.8569 4.26126 31.0891 3.20776 31.8244 2.32626C31.876 2.26606 31.8803 2.17146 31.9061 2.09406C31.8201 2.05106 31.7341 1.99946 31.6481 1.99946C28.1823 1.99516 24.7165 1.99516 21.2507 1.99516C16.7142 1.99516 12.1777 1.99086 7.64124 1.99516C6.20934 1.99516 5.13004 2.61436 4.52804 3.92156C4.33454 4.34296 4.25284 4.85466 4.25284 5.32336C4.23134 12.1518 4.23994 18.9802 4.23994 25.8043C4.23994 28.9992 4.23994 32.1941 4.23994 35.3847C4.23994 36.1802 4.57964 36.5199 5.37084 36.5199C8.83664 36.5156 12.3024 36.5285 15.7682 36.507C16.4863 36.5027 16.8647 37.1262 16.6497 37.5992C16.5164 37.9002 16.2283 38.098 15.8585 38.098C12.655 38.098 9.45154 38.098 6.24804 38.098C5.91264 38.098 5.58154 38.0808 5.24614 38.1023C4.22274 38.1754 3.12624 37.4573 2.82524 36.5027C2.71774 36.1673 2.65754 35.7975 2.65754 35.4449C2.65324 30.3666 2.65754 25.2883 2.66184 20.2057C2.65754 20.2057 2.66184 20.2057 2.66184 20.2057ZM32.3963 8.81496H32.4006C32.4006 10.0276 32.3963 11.2359 32.4006 12.4485C32.4006 12.7968 32.4694 12.8656 32.7575 12.8656C34.4087 12.8613 36.0556 12.8398 37.7068 12.8656C38.4034 12.8742 38.7646 12.4012 38.7646 11.8035C38.7603 9.66206 38.7646 7.52066 38.756 5.38356C38.7517 4.66976 38.584 4.00326 38.1884 3.39266C37.5004 2.33486 35.8363 1.61246 34.4474 2.24456C33.1187 2.84656 32.4178 3.90006 32.4006 5.37066C32.3877 6.51876 32.3963 7.66686 32.3963 8.81496Z" fill="#FFFFFF"/>
<path d="M13.9535 8.31184C13.9234 9.05574 13.9191 9.79964 13.8503 10.5392C13.803 11.0638 13.4332 11.3777 12.9645 11.5927C12.5775 11.7733 12.1776 11.7991 11.7605 11.7948C10.8231 11.7862 9.8857 11.7991 8.9483 11.7905C7.8389 11.7819 7.0563 11.0681 7.0563 9.92004C7.0606 8.82354 7.0477 7.72704 7.0606 6.63484C7.0692 6.02424 7.2713 5.47384 7.8217 5.16424C8.1141 4.99654 8.4796 4.89334 8.815 4.88044C9.9545 4.84604 11.094 4.85034 12.2335 4.87614C12.857 4.88904 13.4289 5.09114 13.7213 5.69314C13.8546 5.97264 13.9019 6.31664 13.9191 6.63054C13.9492 7.18954 13.9277 7.75284 13.9277 8.31184C13.932 8.31184 13.9449 8.31184 13.9535 8.31184ZM10.5135 10.135C11.0295 10.135 11.5498 10.1307 12.0658 10.135C12.2894 10.1393 12.3797 10.0447 12.3797 9.82114C12.3711 8.82354 12.3754 7.82164 12.3711 6.82404C12.3711 6.50584 12.3152 6.44994 12.0056 6.44994C10.9994 6.44564 9.98889 6.44564 8.9827 6.44564C8.7032 6.44564 8.66019 6.51014 8.66019 6.79394C8.66449 7.79154 8.66449 8.79344 8.65589 9.79104C8.65589 10.0619 8.7075 10.135 8.987 10.135C9.4987 10.1393 10.0061 10.135 10.5135 10.135Z" fill="#FFFFFF"/>
<path d="M10.5396 31.463C9.93332 31.463 9.32702 31.4458 8.72502 31.4673C7.69302 31.5017 7.11682 30.7965 7.07812 29.8677C7.02222 28.668 7.02222 27.464 7.07382 26.2643C7.11682 25.2796 7.80482 24.6389 8.81102 24.6217C9.93332 24.6002 11.0556 24.6217 12.1779 24.6131C12.9906 24.6045 13.9065 25.1764 13.9194 26.2084C13.9323 27.4468 13.9323 28.6809 13.9194 29.9193C13.9108 30.5772 13.6399 31.1018 12.9992 31.3512C12.7842 31.4329 12.5391 31.4544 12.3069 31.4587C11.7135 31.4759 11.1244 31.463 10.5396 31.463ZM10.5095 26.2514C10.0107 26.2514 9.51192 26.2514 9.00882 26.2514C8.73362 26.2514 8.65192 26.3331 8.65192 26.5868C8.65622 27.5672 8.66482 28.5519 8.66052 29.5323C8.66052 29.915 8.69922 29.9666 9.06902 29.9666C10.0064 29.9666 10.9438 29.9709 11.8855 29.9666C12.3069 29.9666 12.3671 29.9107 12.3671 29.4764C12.3671 28.5218 12.3671 27.5629 12.3671 26.6083C12.3671 26.3288 12.2897 26.2514 12.0059 26.2514C11.5114 26.2514 11.0126 26.2514 10.5095 26.2514Z" fill="#FFFFFF"/>
<path d="M10.5311 14.8048C11.1804 14.8048 11.8297 14.7962 12.479 14.8091C13.1885 14.822 13.7561 15.3165 13.8679 16.0088C13.9066 16.2496 13.9195 16.499 13.9195 16.7398C13.9238 17.7847 13.9281 18.8253 13.9195 19.8702C13.9152 20.4335 13.7991 20.9624 13.2874 21.2978C12.9606 21.5128 12.608 21.6461 12.2038 21.6418C11.0729 21.6289 9.94196 21.6461 8.81106 21.6375C7.75756 21.6289 7.11686 20.9839 7.07386 20.0121C7.02226 18.8038 7.02226 17.5912 7.07386 16.3829C7.10826 15.5143 7.69736 14.7704 8.72076 14.8048C9.32276 14.8177 9.92906 14.8005 10.5311 14.8048ZM10.4881 20.0379C10.4881 20.0379 10.4881 20.0336 10.4881 20.0379C10.9955 20.0379 11.5029 20.0379 12.0146 20.0379C12.2898 20.0379 12.3715 19.9605 12.3758 19.6767C12.3758 18.7049 12.3758 17.7288 12.3758 16.757C12.3758 16.3958 12.2941 16.3184 11.9458 16.3184C10.9826 16.3141 10.0151 16.3184 9.05186 16.3184C8.72936 16.3184 8.66486 16.4044 8.66486 16.7355C8.66916 17.7159 8.66486 18.7006 8.66486 19.681C8.66486 19.9562 8.74226 20.0422 9.02176 20.0422C9.50766 20.0336 9.99786 20.0379 10.4881 20.0379Z" fill="#FFFFFF"/>
<path d="M22.3044 21.6461C20.7779 21.6461 19.2514 21.6461 17.7249 21.6461C17.2433 21.6461 16.8305 21.2978 16.8219 20.8764C16.8133 20.369 17.1401 20.0336 17.6862 20.0293C18.9848 20.0207 20.2834 20.0293 21.582 20.0293C23.345 20.0293 25.108 20.025 26.871 20.025C27.2623 20.025 27.5719 20.154 27.774 20.5324C27.989 20.9409 27.6536 21.5558 27.1204 21.6203C26.9484 21.6418 26.7721 21.6289 26.5958 21.6289C25.1682 21.6289 23.7363 21.6289 22.3087 21.6289C22.3044 21.6375 22.3044 21.6418 22.3044 21.6461Z" fill="#FFFFFF"/>
<path d="M24.2004 10.135C25.112 10.135 26.0236 10.135 26.9352 10.135C27.3996 10.135 27.7823 10.4059 27.8253 10.8531C27.8468 11.0509 27.7479 11.3347 27.606 11.4594C27.4082 11.6314 27.1158 11.7733 26.8621 11.7776C25.0991 11.8034 23.3404 11.7905 21.5774 11.7905C21.2248 11.7905 20.9152 11.6615 20.7174 11.3691C20.3003 10.7413 20.9023 10.1307 21.4398 10.135C22.36 10.1393 23.2802 10.135 24.2004 10.135Z" fill="#FFFFFF"/>
<path d="M18.3609 10.9521C18.3566 11.3434 17.9438 11.7777 17.5869 11.7734C17.2257 11.7691 16.8172 11.309 16.8258 10.9091C16.8344 10.5221 17.2386 10.1179 17.6041 10.1265C17.9954 10.1394 18.3652 10.5393 18.3609 10.9521Z" fill="#FFFFFF"/>
<path d="M18.748 37.2852C18.748 36.8724 19.1049 36.5284 19.5306 36.5284C19.9606 36.5284 20.2831 36.8681 20.2788 37.311C20.2745 37.7668 19.9391 38.1108 19.5091 38.1022C19.0963 38.0936 18.748 37.7195 18.748 37.2852Z" fill="#FFFFFF"/>
</svg>
