<svg width="36" height="36" viewBox="0 0 36 36" fill="none" xmlns="http://www.w3.org/2000/svg">
<path d="M30.6853 5.23106C27.3033 1.86342 22.7977 0 18 0C13.2135 0 8.70785 1.8522 5.30336 5.21983C1.88764 8.59869 0.0112359 13.0776 0 17.826V17.8372C0 20.7109 0.752804 23.6183 2.191 26.2675L0.0449533 36L9.89886 33.7661C12.3932 35.0234 15.1798 35.6857 17.9887 35.6857H18C22.7865 35.6857 27.2921 33.8335 30.6966 30.4659C34.1123 27.087 35.9999 22.608 35.9999 17.8597C36.0112 13.1338 34.1123 8.64359 30.6853 5.23106ZM18 32.8793C15.4719 32.8793 12.9775 32.2507 10.764 31.0496L10.3034 30.7914L3.75282 32.2844L5.17977 25.8185L4.91012 25.3471C3.55057 23.0009 2.82023 20.3966 2.82023 17.8485C2.82023 9.56408 9.64043 2.81759 18.0112 2.81759C22.0561 2.81759 25.8539 4.38915 28.7078 7.22919C31.6067 10.1141 33.2022 13.8859 33.2022 17.8597C33.191 26.1328 26.3707 32.8793 18 32.8793Z" fill="white"/>
<path d="M13.1012 9.97943H12.3147C12.0451 9.97943 11.5956 10.0805 11.2136 10.4958C10.8316 10.9111 9.77539 11.899 9.77539 13.9196C9.77539 15.9401 11.2473 17.8821 11.4608 18.1628C11.663 18.4322 14.3147 22.7091 18.4945 24.348C21.9776 25.7175 22.6855 25.4369 23.4383 25.3695C24.1911 25.3022 25.8765 24.3817 26.2136 23.4163C26.5619 22.4621 26.5619 21.6427 26.4495 21.4631C26.3484 21.2947 26.0675 21.1937 25.663 20.9804C25.2473 20.7783 23.2361 19.768 22.854 19.6333C22.472 19.4986 22.2023 19.4313 21.9327 19.8354C21.663 20.2507 20.854 21.1937 20.6068 21.4631C20.3709 21.7325 20.1237 21.7661 19.7192 21.5641C19.3035 21.362 18.0001 20.913 16.4271 19.5211C15.2024 18.4322 14.3484 17.0515 14.1125 16.6361C13.8765 16.2208 14.09 16.0075 14.2922 15.7942C14.472 15.6146 14.7305 15.3564 14.9327 15.1207C15.1349 14.885 15.2024 14.7053 15.3372 14.4359C15.472 14.1665 15.4046 13.9196 15.3035 13.7175C15.2024 13.5154 14.4158 11.4836 14.045 10.6754C13.7192 10.0131 13.4046 9.99066 13.1012 9.97943Z" fill="white"/>
</svg>
