<?xml version="1.0" encoding="utf-8"?>
<!-- Generator: Adobe Illustrator 24.3.0, SVG Export Plug-In . SVG Version: 6.00 Build 0)  -->
<svg version="1.1" id="Layer_1" xmlns="http://www.w3.org/2000/svg" xmlns:xlink="http://www.w3.org/1999/xlink" x="0px" y="0px"
	 viewBox="0 0 504 372" style="enable-background:new 0 0 504 372;" xml:space="preserve">
<style type="text/css">
	.st0{fill:#0071B2;}
	.st1{fill:#F39418;}
	.st2{fill:#0CA438;}
	.st3{fill:#696969;}
	.st4{fill:#8027B7;}
	.st5{fill:#1D3662;}
	.st6{fill:#1C3661;}
</style>
<g>
	<circle class="st6" cx="142.6" cy="236.1" r="31.2"/>
	<path class="st6" d="M122.9,267.3h39c20.5,0,37.1,16.6,37.1,37.1v49.9H85.8v-49.9C85.8,283.9,102.4,267.3,122.9,267.3z"/>
	<circle class="st6" cx="361.8" cy="239.1" r="31.2"/>
	<path class="st6" d="M336.4,270.3h50.5c17.3,0,31.4,14,31.4,31.4v55.6H305v-55.6C305,284.4,319.1,270.3,336.4,270.3z"/>
	<path class="st6" d="M314.8,37.3c0,0,7.9,11.1,8.3,28.6s0,71.1,0,71.1s-6.4,27.8-27,44.5l31.8,32.2c0,0,12.3,6,13.1-8.7s0-31,0-31
		s39.3-7.9,40.5-42.5s0-52,0-52s-6.2-35.7-42.4-42.1H314.8z"/>
	<path class="st6" d="M246,14.7h-70.7c-30.7,0-55.6,24.9-55.6,55.6v50.8c0,26.1,18,48,42.3,53.9v31.2c2.4,11.6,13.4,9.8,13.4,9.8
		l38.5-39.3H246c30.7,0,55.6-24.9,55.6-55.6V70.3C301.7,39.6,276.8,14.7,246,14.7z M259.2,85l-44.9,41.3c-2.6,2.4-5.9,3.6-9.1,3.6
		c-3.5,0-6.9-1.3-9.5-4l-25.8-25.8c-5.3-5.3-5.3-13.8,0-19.1c5.3-5.3,13.8-5.3,19.1,0l16.7,16.7l35.3-32.5c5.5-5,14-4.7,19.1,0.8
		C265,71.4,264.6,80,259.2,85z"/>
</g>
</svg>
