<?xml version="1.0" encoding="utf-8"?>
<!-- Generator: Adobe Illustrator 24.3.0, SVG Export Plug-In . SVG Version: 6.00 Build 0)  -->
<svg version="1.1" id="Layer_1" xmlns="http://www.w3.org/2000/svg" xmlns:xlink="http://www.w3.org/1999/xlink" x="0px" y="0px"
	 viewBox="0 0 322.9 372" style="enable-background:new 0 0 322.9 372;" xml:space="preserve">
<style type="text/css">
	.st0{fill:#0071B2;}
	.st1{fill:#F39418;}
	.st2{fill:#0CA438;}
	.st3{fill:#696969;}
	.st4{fill:#8027B7;}
	.st5{fill:#1D3662;}
	.st6{fill:#1C3661;}
	.st7{fill:#444343;}
</style>
<path class="st7" d="M130.6,15.6c-14.1,6-9.3,29.6-25.3,71c-17.3,45-33.5,44.4-52.8,84.9c-9.6,20.1-40.3,84.6-11.2,136.6
	c19.5,34.8,57.1,48.4,76.4,53.6C110,353.4,97.9,338,92,315.6c-2.2-8.2-5.6-21.8-2.7-38.5c2.4-13.8,7.3-19.3,16.7-40.7
	c6.4-14.6,10.6-26.9,13.1-34.8c4.6,3.3,12.8,9.9,19,21.3c7.1,12.9,7.7,25,7.7,30.8c7.7-12,18.2-31.6,24-57.9
	c5.4-24.8,4.4-45.9,2.7-59.7c50.2,42.4,74.3,103.3,60.6,157.6c-8,31.6-26.7,53.2-39.4,65.1c42.1-7.4,61.7-26.4,69.9-36.3
	c42.5-51,28.5-153.5-48.9-243.3C165.4,18.7,142.4,10.6,130.6,15.6z"/>
</svg>
