<?xml version="1.0" encoding="utf-8"?>
<!-- Generator: Adobe Illustrator 24.3.0, SVG Export Plug-In . SVG Version: 6.00 Build 0)  -->
<svg version="1.1" id="Layer_1" xmlns="http://www.w3.org/2000/svg" xmlns:xlink="http://www.w3.org/1999/xlink" x="0px" y="0px"
	 viewBox="0 0 265.4 372" style="enable-background:new 0 0 265.4 372;" xml:space="preserve">
<style type="text/css">
	.st0{fill:#0071B2;}
	.st1{fill:#F39418;}
	.st2{fill:#0CA438;}
	.st3{fill:#696969;}
	.st4{fill:#8027B7;}
	.st5{fill:#1D3662;}
	.st6{fill:#1C3661;}
	.st7{fill:#444343;}
</style>
<g>
	<path class="st7" d="M255.2,111c-0.2-8.3-0.2-16.7,0-25c0.1-7.5-2.2-14-6.7-19.8C238.6,53.5,225.2,46,211,39.5
		c-2.3-1-4.8,0.2-5.9,2.4c-1.1,2.2-0.4,4.7,1.7,6.1c1.1,0.7,2.4,1.2,3.6,1.8c10.6,5.2,20.7,10.9,28.6,19.9
		c7.8,8.8,8.5,18.2,2.5,28.8c-3.1,5.5-8,9.4-13.5,12.4c-9.9,5.5-20.6,8.4-31.7,9.7c-15.3,1.7-30.2,5-44.3,11.3
		c-8.8,3.9-17.4,8.2-26.1,12.3c-17.5,8.3-35.7,11.7-54.9,7.3c-28.2-6.5-50.5-29.1-52.7-57.4c-1.6-20.7,5.4-37.6,23-49.5
		c12.2-8.3,26-12.2,40.4-14.4c23.1-3.5,46.1-2.2,69,1.6c5.4,0.9,10.7,2.1,16,3.1c3.2,0.6,5.4-0.8,6.1-3.6c0.6-2.7-0.9-4.9-4-5.8
		c-0.3-0.1-0.6-0.2-0.9-0.2c-27.1-6-54.5-8.7-82.2-5.4C71.4,21.7,57.5,25,44.5,31.6c-17.6,8.9-29.9,22.3-34.5,42
		c-0.6,2.5-0.5,5.2-1.6,7.6v41c0.3,0.3,0.3,0.6,0,1v2.4c0.7,0.3,0.5,0.9,0.5,1.4c1.2,8.5,3.7,16.6,7.8,24.1
		c16.3,30,51.1,45.5,85.7,39.8c12.4-2.1,23.7-7,34.9-12.5c11.8-5.8,23.6-11.5,36.3-15c9.7-2.7,19.8-3.3,29.6-5.1
		c11.6-2.1,22.8-5.4,32.7-12C248.7,138,255.5,126.5,255.2,111z M232.4,137.2c-8.3,5.9-17.7,8.8-27.4,11c-8.6,1.9-17.5,2.3-26.1,4.1
		c-15,3.1-28.9,9.2-42.6,16c-9.6,4.8-19.2,9.7-29.8,11.9c-29.3,6.2-54.5-0.7-74.5-23.8c-7.5-8.7-11.8-19-13.4-30.9
		c2.4,3.4,4.4,6.5,6.8,9.3c14.4,16.6,32.7,25.7,54.4,28c17.5,1.8,33.9-2.1,49.7-9.5c9.3-4.3,18.4-9.1,27.8-13.1
		c12.8-5.4,26.2-8.2,40-9.9c14.7-1.8,28.8-5.7,41-14.4c1.2-0.9,2.5-1.8,3.6-2.9c1.1-1,2-2.2,3-3.4
		C246.3,121.5,241.7,130.5,232.4,137.2z"/>
	<path class="st7" d="M8.4,122.1c0.5,0.3,0.6,0.6,0,1C8.4,122.8,8.4,122.5,8.4,122.1z"/>
	<path class="st7" d="M112.2,37.8c30.5,0.6,61.6,6.2,91,19.3c7.8,3.5,15.7,7,22.3,12.7c2.1,1.8,4.1,3.8,5.7,6.2
		c4.1,6.2,3.8,12.7-0.9,18.4c-4.9,5.9-11.6,9-18.4,11.8c-9.3,3.8-19.1,5.2-29,6.7c-14.9,2.2-29,7.3-42.6,13.8
		c-10.4,5-20.5,10.5-31.6,13.9c-7.7,2.4-15.6,3.4-23.7,3.1c-1,0-1.9-0.1-2.9-0.3c-2.8-0.5-4.4-2.6-4.2-5.2c0.3-2.5,2.3-4.4,5-4.2
		c14.1,1.2,26.9-3.2,39.3-9.3c9.5-4.6,18.9-9.4,28.8-13.2c13-5,26.5-8,40.3-9.7c9.3-1.2,18-4.3,26.2-9c1.7-1,3.3-2.2,4.7-3.7
		c2.8-2.9,2.9-5.4,0.4-8.5c-2.8-3.5-6.4-6-10.3-8.2c-16.9-9.4-34.9-15.6-53.7-19.6c-20.1-4.3-40.4-6.2-61-4.9
		c-13.7,0.9-27.3,3-39.8,9.2C48.1,62,40.7,68.9,38.4,79.9c-2.8,13,0,24.8,8.3,35.3c0.7,0.9,1.5,1.7,1.8,2.8c0.6,2.2-0.4,4.5-2.3,5.5
		c-2.1,1.1-4.3,0.7-6.1-1.3c-4.3-5-7.7-10.5-9.6-16.8c-4.5-14.7-4.1-29,5-42.1c6.7-9.7,16.6-15.1,27.5-18.8
		C78.4,39.3,94.4,38,112.2,37.8z"/>
	<path class="st7" d="M104.8,90.9c-5-4-10.9-5.3-16.9-5.4c-6.1,0.1-11.8,1.3-16.7,4.9c-7.8,5.8-7.9,14.9-0.2,20.8
		c8.9,6.9,25,6.8,33.8-0.3C111.9,105.3,111.9,96.5,104.8,90.9z M98.4,103.7c-3.2,2.3-6.9,2.9-10.6,3c-3.8-0.1-7.5-0.7-10.6-2.9
		c-3-2-3-3.9,0-5.9c5.5-3.8,15.9-3.7,21.2,0.1C101.1,100,101.1,101.8,98.4,103.7z"/>
	<path class="st7" d="M193.9,36.3c0,2.6-2.2,4.7-4.7,4.8c-2.6,0-4.9-2.3-4.9-4.9c0-2.7,2.3-4.8,5-4.7C192,31.5,194,33.6,193.9,36.3z
		"/>
	<path class="st7" d="M61.3,137.6c-2.7-0.1-4.8-2.3-4.7-5c0.1-2.6,2.3-4.7,4.9-4.6c2.5,0.1,4.7,2.3,4.7,4.8
		C66.2,135.4,64,137.6,61.3,137.6z"/>
</g>
<g>
	<path class="st7" d="M144.3,217.8c1.7,0.8,2.5,2.3,2.5,4.2c0,3.9,0.6,7.8,1.5,11.6c3.7,14.6,11.1,26.9,22.4,36.8
		c0.5,0.4,1,0.8,1.5,1.3c1.8,1.9,1.9,4.5,0.3,6.1c-1.6,1.7-4,1.8-6.1,0.1c-3.1-2.6-6-5.4-8.7-8.5c-3.2-3.8-6.3-7.7-8.8-12
		c-6.1-10.9-10.3-22.3-10.6-35c0-1.6,0.3-3,1.6-4.1C141.4,217.4,142.9,217.1,144.3,217.8z"/>
	<path class="st7" d="M161.5,213.1c0.4,13.8,5.4,26,13.3,37.1c4.9,6.9,10.9,12.8,18.3,17.1c3.1,1.8,4,4.8,2,7
		c-1.5,1.6-3.4,1.9-5.6,0.7c-6.1-3.3-11.2-7.8-15.8-12.8c-3.8-4.1-7.2-8.5-10-13.4c-6.2-10.8-10.4-22.3-10.7-35c0-2,0.6-3.7,2.5-4.6
		c1.6-0.7,3.1-0.5,4.5,0.6C161,210.7,161.5,211.8,161.5,213.1z"/>
	<path class="st7" d="M193.7,216.2c2.4,4,1,9.3-3,11.6c-4,2.4-9.2,1-11.6-3.1c-2.4-4-1-9.3,3-11.6
		C186.2,210.7,191.3,212.1,193.7,216.2z"/>
	<path class="st7" d="M230.7,201.4c-15.9-8.3-32.8-12.6-50.8-12.1c-12.9,0.4-25.2,3.3-37,8.5c-0.9,0.4-1.7,0.5-2.6,0.1
		c-3.3-1.1-6.7-1.6-10.2-1.8c-9.9-0.5-19.5,1.2-29.1,3.7c-10.9,2.9-21.5,6.8-31.9,11.2c-3.9,1.6-4.9,5.7-1.3,8.6
		c8.7,6.9,17.3,13.7,25.3,21.4c1,0.9,1.2,1.5,0.3,2.8c-4.3,6.3-8.4,12.7-11.6,19.7c-0.5,1.1-1,1.3-2.1,0.8c-3.2-1.6-6.7-2.6-10.3-3
		c-9.6-1.2-18.6,0.9-27.1,5.2c-3.1,1.6-3.7,2.5-3.4,5.9l1,1.7c0.7,0.5,1.1,1.2,1.2,2.1l1,1.7c0.3,0.1,0.5,0.3,0.4,0.7l1,1.7
		c0.8,0.8,1.4,1.7,2,2.6c6.5,8.9,14.7,15.6,25.2,19.2c1.4,0.5,1.7,1,1.5,2.4c-1.4,8.1-0.6,16,1.8,23.8c1.1,3.7,2.9,7.1,4.3,10.6
		l0.8,1.4c0.3,0.1,0.4,0.3,0.6,0.6l0.4,0.7c0,0,0,0.1,0.1,0.1c0.1,0.2,0.3,0.4,0.2,0.7l2.8,4.8c2.4,1.7,4.7,1.3,6.9-0.5
		c1.5-1.2,3.1-2.3,4.5-3.6c8.5-7.5,14.3-16.5,15.1-28.2c0.1-1.3,0.5-1.5,1.7-1.4c10.4,0.6,20.8-0.3,31.1-1.7c3.5-0.5,3.5-0.4,4,2.9
		c1.1,6.5,4,12.2,7.2,17.8c1.8,3.2,4.1,3.8,7.3,1.7c4.2-2.8,8.2-5.9,11.9-9.3c7.8-7.4,14.1-15.7,16.5-26.4c0.2-1,0.8-1.4,1.5-1.9
		c5.1-3.3,9.9-6.9,14.3-11c21.1-19.7,31.2-44.2,31.9-72.9C237.6,204.3,238.2,205.3,230.7,201.4z M77.9,216.5
		c16.8-6.5,33.4-12.3,51.6-11.9c-3.3,2.6-6.5,5.1-9.6,7.8c-7,6.4-13.2,13.5-19,21.1c-1.1,1.5-1.8,1.5-3.1,0.2
		C91.7,227.6,84.8,222.3,77.9,216.5z M164.5,321.2c-0.5,0.4-0.9,0.8-1.4,1.1c-3.6,2.9-3.6,2.9-5.4-1.2c-1.4-3.1-2.6-6.2-2.7-9.7
		c0-1.1,0.2-1.8,1.5-2.1c7.7-1.5,15.2-3.6,22.8-6.6C175.7,310.4,170.4,316.1,164.5,321.2z M228.9,211.2
		c-0.3,24.7-8.3,46.4-25.4,64.5c-12,12.5-26.5,20.6-43.4,24.4c-15.6,3.4-31.3,5.5-47.3,5c-2-0.1-4-0.4-5.9-0.7
		c-3.5-0.6-5.8,1.4-5.4,4.9c1.3,11-4.9,21.7-13.5,28.4c-4.9-9.5-8.3-19.2-6.9-29.9c0.3-2.3,0.9-4.4,1.9-6.5c1.7-3.7,0.1-6.5-3.9-6.8
		c-7.4-0.6-13.4-4.3-18.8-9c-3.9-3.4-7.2-7.4-10.1-11.7c-0.6-0.9-0.6-1.3,0.5-1.7c10.4-3.6,20.6-4.2,30.3,2.4c2.6,1.8,5.6,1,6.6-1.8
		c3.1-9.1,8.2-17,13.6-24.9c7.6-11.2,16-21.8,26.4-30.6c9.9-8.5,21.6-13.8,34.2-16.8c23.3-5.7,45.4-1.9,66.5,9.2
		C228.8,209.9,229,210.4,228.9,211.2z"/>
	<path class="st7" d="M40.1,273.9c0.9,0.4,1.4,1,1.2,2.1C40.9,275.3,40.5,274.6,40.1,273.9z"/>
	<path class="st7" d="M42.3,277.7c0.6,0,0.8,0.2,0.4,0.7C42.6,278.2,42.5,277.9,42.3,277.7z"/>
	<path class="st7" d="M79.4,340.1c0.5-0.2,0.6,0.2,0.7,0.5c0,0.2-0.1,0.3-0.3,0.2C79.6,340.6,79.5,340.4,79.4,340.1z"/>
	<path class="st7" d="M79.8,340.8c0.1-0.1,0.2-0.1,0.3-0.2c0.1,0.2,0.3,0.5,0.4,0.7c0,0.2-0.1,0.3-0.3,0.2
		C80,341.3,79.9,341.1,79.8,340.8z"/>
	<path class="st7" d="M80.2,341.5c0.1-0.1,0.2-0.1,0.3-0.2c0.2,0.3,0.4,0.5,0.1,0.9C80.4,342,80.3,341.7,80.2,341.5z"/>
	<path class="st7" d="M144.3,217.8c1.7,0.8,2.5,2.3,2.5,4.2c0,3.9,0.6,7.8,1.5,11.6c3.7,14.6,11.1,26.9,22.4,36.8
		c0.5,0.4,1,0.8,1.5,1.3c1.8,1.9,1.9,4.5,0.3,6.1c-1.6,1.7-4,1.8-6.1,0.1c-3.1-2.6-6-5.4-8.7-8.5c-3.2-3.8-6.3-7.7-8.8-12
		c-6.1-10.9-10.3-22.3-10.6-35c0-1.6,0.3-3,1.6-4.1C141.4,217.4,142.9,217.1,144.3,217.8z"/>
	<path class="st7" d="M161.5,213.1c0.4,13.8,5.4,26,13.3,37.1c4.9,6.9,10.9,12.8,18.3,17.1c3.1,1.8,4,4.8,2,7
		c-1.5,1.6-3.4,1.9-5.6,0.7c-6.1-3.3-11.2-7.8-15.8-12.8c-3.8-4.1-7.2-8.5-10-13.4c-6.2-10.8-10.4-22.3-10.7-35c0-2,0.6-3.7,2.5-4.6
		c1.6-0.7,3.1-0.5,4.5,0.6C161,210.7,161.5,211.8,161.5,213.1z"/>
	<path class="st7" d="M193.7,216.2c2.4,4,1,9.3-3,11.6c-4,2.4-9.2,1-11.6-3.1c-2.4-4-1-9.3,3-11.6
		C186.2,210.7,191.3,212.1,193.7,216.2z"/>
	<path class="st7" d="M193.2,267.3c3.1,1.8,4,4.8,2,7c-1.5,1.6-3.4,1.9-5.6,0.7c-6.1-3.3-11.2-7.8-15.8-12.8
		c-3.8-4.1-7.2-8.5-10-13.4c-6.2-10.8-10.4-22.3-10.7-35c0-2,0.6-3.7,2.5-4.6c1.6-0.7,3.1-0.5,4.5,0.6c1,0.9,1.5,2,1.5,3.3
		c0.4,13.8,5.4,26,13.3,37.1C179.8,257.1,185.8,263,193.2,267.3z"/>
	<path class="st7" d="M148.4,233.6c3.7,14.6,11.1,26.9,22.4,36.8c0.5,0.4,1,0.8,1.5,1.3c1.8,1.9,1.9,4.5,0.3,6.1
		c-1.6,1.7-4,1.8-6.1,0.1c-3.1-2.6-6-5.4-8.7-8.5c-3.2-3.8-6.3-7.7-8.8-12c-6.1-10.9-10.3-22.3-10.6-35c0-1.6,0.3-3,1.6-4.1
		c1.3-1,2.8-1.2,4.3-0.6c1.7,0.8,2.5,2.3,2.5,4.2C146.9,225.9,147.5,229.8,148.4,233.6z"/>
	<path class="st7" d="M193.7,216.2c2.4,4,1,9.3-3,11.6c-4,2.4-9.2,1-11.6-3.1c-2.4-4-1-9.3,3-11.6
		C186.2,210.7,191.3,212.1,193.7,216.2z"/>
</g>
</svg>
