<?xml version="1.0" encoding="utf-8"?>
<!-- Generator: Adobe Illustrator 24.3.0, SVG Export Plug-In . SVG Version: 6.00 Build 0)  -->
<svg version="1.1" id="Layer_1" xmlns="http://www.w3.org/2000/svg" xmlns:xlink="http://www.w3.org/1999/xlink" x="0px" y="0px"
	 viewBox="0 0 373.5 372" style="enable-background:new 0 0 373.5 372;" xml:space="preserve">
<style type="text/css">
	.st0{fill:#0071B2;}
	.st1{fill:#F39418;}
	.st2{fill:#0CA438;}
	.st3{fill:#696969;}
	.st4{fill:#8027B7;}
	.st5{fill:#1D3662;}
	.st6{fill:#1C3661;}
	.st7{fill:#444343;}
</style>
<path class="st7" d="M358.8,211.4c-0.3-2.7,0.3-6.7-1.7-7.9c-1.9-1.1-5.3,0.5-8.1,0.8c-2.3,0.2-2.7,1.1-2.4,3.4
	c0.9,5.4,1.6,10.8,1.7,16.9c-10.5-9.1-21.2-16.8-32.7-23.2c-17.3-9.7-35.7-16.9-55.2-20.9c-2.4-0.5-3.5-1.4-3.5-4.1
	c0-3.8-1.1-7.5-2.4-11.1c-6.2-18-25.6-32.9-49.3-29.7c-2.3,0.3-5.3,2.5-6.8,0.7c-1.4-1.7-0.6-5-1.3-7.4c-0.9-3.1,0.3-4.4,2.9-5.9
	c25.8-14.5,30.6-51,9.4-71.6c-13-12.7-28.5-16.4-46-11.6c-0.9,0.3-1.8,1-2.7-0.2c-3.2-4.2-6.5-8.4-9.9-12.8
	c7.5,0.4,14.5,1.2,21.5,2.4c19.9,3.4,39,9.4,57.1,18.4c1.7,0.8,2.7,1,3.5-1.1c0.8-2.2,2-4.3,3.2-6.3c0.8-1.4,0.5-2-0.9-2.7
	C211.4,26,186.4,18.8,160,16.1c-2.8-0.3-5.7,0.1-8.3-1.2h-1.3c-0.5,0.5-1.2,0.4-1.8,0.3c-0.1,0-0.1,0-0.2,0c-0.1,0-0.2,0-0.2,0h-1.9
	c-0.8,0-1.6,0-2.4,0c-0.1,0-0.1,0-0.2,0c-0.1,0-0.2,0-0.3,0c-0.6,0-1.2,0.1-1.8-0.3h-6.7c-2,1.5-3.2,3.5-4,5.9
	C94.6,126,58.3,231.3,22,336.6c-1.6,4.7-2.7,9.6-5.3,13.9v4c3.1,4.3,4.6,4.8,9.6,3c85.6-29.5,171.2-59,256.8-88.5
	c23.8-8.2,47.6-16.4,71.5-24.6c3.3-1.1,5.9-2.6,5.9-6.6C360.5,229,359.9,220.1,358.8,211.4z M198.3,173.9c0.2-3.6,0.5-7.1,0.8-11.4
	c0-3.3,0.1-7.2,0-11.1c0-1.6,0.3-2.5,2.1-3.1c19.9-6.4,41.3,6.9,44.3,27.6c0.2,1.6,0,1.9-1.6,1.7c-7.1-0.9-14.3-1.2-21.4-1.5
	c-3-0.1-5.1-2.3-5.1-5.3c0-3.4-0.1-6.7,0-10.1c0.1-1.9-0.3-2.7-2.5-2.8c-9-0.1-9-0.2-8.9,8.7c0,3.6,0.3,7.1-3.3,9.5
	c-1.3,0.9-2.8,1.4-4.1,0.8C197.5,176.6,198.2,175,198.3,173.9z M205.4,64.1c10.8,15.1,6.8,37.1-8.4,47.5c-2,1.4-3,1.5-3.3-1.2
	c-0.1-0.8-0.3-1.6-0.6-2.3c-3-6.3-2.4-11.6,3.8-15.6c1.7-1.1,1-2-0.1-3.1c-4.1-4-8-8.1-12.1-12c-1.3-1.3-1.9-2.5-1.8-4.4
	c0.1-3.3,0-6.7,0.1-10.1c0.1-1.8-0.6-2.6-2.3-2.2c-5.2,1.1-8-1.5-9.9-5.9c-0.6-1.4-1.5-2.7-2.3-4C181.4,46.4,196.8,52,205.4,64.1z
	 M31.7,343.6c36-104.4,71.7-208.1,107.6-312.1c5.5,5.8,10.2,11.7,14.5,17.9c18.5,26.5,30,55.8,32.8,88.1
	c5.3,61.5-14.4,113.9-59.2,156.5c-21.4,20.3-46.9,33.5-74.8,42.4C45.9,338.6,39.2,341.1,31.7,343.6z M125,311.5
	c37.6-31.3,61.1-69.8,70.4-116.9c0.2-1.1,0.5-2.2,0.6-3.3c0.2-1.7,0.9-2.4,2.7-2.6c32.7-3.6,64.2,1.2,94.3,14.2
	c18.2,7.8,34.6,18.5,49.4,31.7c0.4,0.4,1,0.6,0.9,1.5C270.9,261.2,198.4,286.2,125,311.5z"/>
<path class="st7" d="M146.3,15.4c-0.9,0-1.8,0-2.7,0c-0.2-0.1-0.3-0.2-0.3-0.4c0.1-0.1,0.1-0.2,0.2-0.2c0.9,0,1.8,0,2.7,0
	c0.2,0.1,0.3,0.2,0.2,0.4C146.5,15.4,146.4,15.4,146.3,15.4z"/>
<path class="st7" d="M143.6,14.9c0,0.2,0,0.4,0,0.6c-0.8,0.1-1.5,0.3-2.1-0.6C142.3,14.9,142.9,14.9,143.6,14.9z"/>
<path class="st7" d="M146.3,15.4c0-0.2,0-0.4,0-0.6c0.7,0,1.3,0,2,0c0.2,0.1,0.3,0.2,0.2,0.4c-0.1,0.1-0.1,0.2-0.2,0.2
	C147.7,15.4,147,15.4,146.3,15.4z"/>
<path class="st7" d="M148.3,15.4c0-0.2,0-0.4,0-0.6c0.7,0,1.3,0,2,0C149.9,16,149,15.4,148.3,15.4z"/>
<path class="st7" d="M268.8,54.7c0,6,0,6-5.8,6c-5.7,0-5.7,0-5.7-5.8c0-5.7,0-5.7,5.8-5.7C268.8,49.2,268.8,49.2,268.8,54.7z"/>
<path class="st7" d="M268.8,77.7c0,5.8,0,5.8-5.9,5.8c-5.6,0-5.6,0-5.6-5.6c0-5.9,0-5.9,6-5.9C268.8,72.1,268.8,72.1,268.8,77.7z"/>
<path class="st7" d="M291.8,77.7c0,5.9,0,5.9-6,5.9c-5.5,0-5.5,0-5.5-5.6c0-5.9,0-5.9,5.9-5.9C291.8,72.1,291.8,72.1,291.8,77.7z"/>
<path class="st7" d="M305.3,55.6c-7.3-6.4-14.7-12.7-22.1-19c-4.8-4.1-10.4-6.5-16.8-6.4c-12.4-0.1-23,7.7-25.8,19.7
	c-3,13.4-5.7,26.8-8,40.4c-2.1,12.6,10.4,24.3,22.9,21.5c14-3.1,27.7-7.6,41.4-12.1C316.4,93.2,320.8,69.3,305.3,55.6z M302.7,78.6
	c-1.3,5.6-5.2,9-10.5,10.6c-12.2,3.7-24.3,7.3-36.6,10.9c-7.3,2.1-12.9-2.9-11.5-10.3c2.3-11.8,4.6-23.7,7-35.5
	c1.6-7.9,7.4-12.7,15.7-12.7c3-0.1,6.2,1.4,9,3.8c7.2,6.1,14.5,12.3,21.7,18.5C302,67.9,304.1,72.7,302.7,78.6z"/>
<path class="st7" d="M280.5,118.1c-12.7-0.2-23.1,10.2-23.1,22.8c0,12.5,10.4,22.8,22.8,22.9c12.4,0.1,22.8-10.2,23-22.8
	C303.4,128.7,293.1,118.3,280.5,118.1z M280.2,152.4c-6.2-0.1-11.3-5.2-11.3-11.4c-0.1-6.4,5.1-11.5,11.5-11.4
	c6.2,0,11.3,5.1,11.4,11.3C291.8,147.1,286.4,152.4,280.2,152.4z"/>
<path class="st7" d="M331.8,152.4c-12.5,0-22.8,10.3-22.9,22.8c0,12.5,10.6,23,23.2,22.9c12.5-0.1,22.8-10.5,22.6-23
	C354.5,162.5,344.3,152.4,331.8,152.4z M331.8,186.7c-6.3,0-11.5-5.4-11.4-11.6c0.1-6.2,5.2-11.2,11.4-11.3c6.4,0,11.5,5,11.5,11.4
	C343.2,181.7,338.1,186.8,331.8,186.7z"/>
<path class="st7" d="M313,101.5c0.9,0,1.1,0.7,1.5,1.2c8.2,10.7,15.4,22.2,21.6,34.1c0.6,1.1,0.6,1.8-0.7,2.2
	c-0.1,0-0.2,0.1-0.3,0.1c-2.7,1.3-5.6,3.9-8,3.5c-2.6-0.4-3.1-4.7-4.6-7.2c-5-8.7-10.4-17.2-16.5-25.1c-1.3-1.6-1.6-2.6,0.5-3.9
	c1.9-1.2,3.5-2.7,5.3-4.1C312.2,102.1,312.6,101.8,313,101.5z"/>
<path class="st7" d="M268.8,54.7c0,6,0,6-5.8,6c-5.7,0-5.7,0-5.7-5.8c0-5.7,0-5.7,5.8-5.7C268.8,49.2,268.8,49.2,268.8,54.7z"/>
<path class="st7" d="M268.8,77.7c0,5.8,0,5.8-5.9,5.8c-5.6,0-5.6,0-5.6-5.6c0-5.9,0-5.9,6-5.9C268.8,72.1,268.8,72.1,268.8,77.7z"/>
<path class="st7" d="M291.8,77.7c0,5.9,0,5.9-6,5.9c-5.5,0-5.5,0-5.5-5.6c0-5.9,0-5.9,5.9-5.9C291.8,72.1,291.8,72.1,291.8,77.7z"/>
<path class="st7" d="M268.8,54.7c0,6,0,6-5.8,6c-5.7,0-5.7,0-5.7-5.8c0-5.7,0-5.7,5.8-5.7C268.8,49.2,268.8,49.2,268.8,54.7z"/>
<path class="st7" d="M268.8,77.7c0,5.8,0,5.8-5.9,5.8c-5.6,0-5.6,0-5.6-5.6c0-5.9,0-5.9,6-5.9C268.8,72.1,268.8,72.1,268.8,77.7z"/>
<path class="st7" d="M291.8,77.7c0,5.9,0,5.9-6,5.9c-5.5,0-5.5,0-5.5-5.6c0-5.9,0-5.9,5.9-5.9C291.8,72.1,291.8,72.1,291.8,77.7z"/>
</svg>
