<?xml version="1.0" encoding="utf-8"?>
<!-- Generator: Adobe Illustrator 24.3.0, SVG Export Plug-In . SVG Version: 6.00 Build 0)  -->
<svg version="1.1" id="Layer_1" xmlns="http://www.w3.org/2000/svg" xmlns:xlink="http://www.w3.org/1999/xlink" x="0px" y="0px"
	 viewBox="0 0 504 372" style="enable-background:new 0 0 504 372;" xml:space="preserve">
<style type="text/css">
	.st0{fill:#0071B2;}
	.st1{fill:#F39418;}
	.st2{fill:#0CA438;}
	.st3{fill:#696969;}
	.st4{fill:#8027B7;}
	.st5{fill:#1D3662;}
</style>
<g>
	<path class="st5" d="M438.8,93.2H330.7c-4.8,0-8.8,3.9-8.8,8.8s3.9,8.8,8.8,8.8h97.1l31.3,64.9v103.2h-14.9
		c-4.3-32.5-32.2-57.6-65.8-57.6c-33.6,0-61.5,25.1-65.8,57.6H191.7c-1.1-8.3-3.7-16.1-7.6-23.1h119.4c7.8,0,14.1-6.3,14.1-14.1
		V28.2c0-7.8-6.3-14.1-14.1-14.1H44.8c-7.8,0-14.1,6.3-14.1,14.1v213.4c0,7.8,6.3,14.1,14.1,14.1h23c-3.9,7-6.5,14.8-7.6,23.1H32
		c-4.8,0-8.8,3.9-8.8,8.8c0,4.8,3.9,8.8,8.8,8.8h28.1c4.3,32.5,32.2,57.6,65.8,57.6s61.5-25.1,65.8-57.6h120.9
		c4.3,32.5,32.2,57.6,65.8,57.6s61.5-25.1,65.8-57.6h32.4V171.6L438.8,93.2z M48.2,238.2V31.6h251.9v206.6H170.2
		c-11.7-10.6-27.3-17-44.3-17c-17,0-32.5,6.4-44.3,17H48.2z M125.9,336.4c-24,0-43.9-17.3-48.1-40.1c-0.5-2.8-0.8-5.8-0.8-8.8
		c0-3,0.3-5.9,0.8-8.8c1.6-8.7,5.5-16.7,11.1-23.1c8.9-10.4,22.2-17,37-17s28,6.6,37,17c5.6,6.5,9.5,14.4,11.1,23.1
		c0.5,2.8,0.8,5.8,0.8,8.8c0,3-0.3,5.9-0.8,8.8C169.9,319.1,149.9,336.4,125.9,336.4z M378.4,336.4c-24,0-43.9-17.3-48.1-40.1
		c-0.5-2.8-0.8-5.8-0.8-8.8c0-3,0.3-5.9,0.8-8.8c4.1-22.8,24.1-40.1,48.1-40.1c24,0,43.9,17.3,48.1,40.1c0.5,2.8,0.8,5.8,0.8,8.8
		c0,3-0.3,5.9-0.8,8.8C422.3,319.1,402.4,336.4,378.4,336.4z"/>
	<path class="st5" d="M416.3,129h-79.8v52.3h107L416.3,129z M354.1,163.8v-17.3h51.7l9,17.3H354.1z"/>
</g>
</svg>
