<?xml version="1.0" encoding="utf-8"?>
<!-- Generator: Adobe Illustrator 24.3.0, SVG Export Plug-In . SVG Version: 6.00 Build 0)  -->
<svg version="1.1" id="Layer_1" xmlns="http://www.w3.org/2000/svg" xmlns:xlink="http://www.w3.org/1999/xlink" x="0px" y="0px"
	 viewBox="0 0 373.5 372" style="enable-background:new 0 0 373.5 372;" xml:space="preserve">
<style type="text/css">
	.st0{fill:#0071B2;}
	.st1{fill:#F39418;}
	.st2{fill:#0CA438;}
	.st3{fill:#696969;}
	.st4{fill:#8027B7;}
	.st5{fill:#1D3662;}
	.st6{fill:#1C3661;}
	.st7{fill:#444343;}
</style>
<path class="st7" d="M336.4,260.3c-10.9-6.4-21.9-12.7-32.9-19c-0.8-0.5-1.6-1-2.7-1.7c2.6-1.6,4.9-2.9,7.2-4.3
	c7.9-4.7,15.9-9.3,23.8-14.1c4.6-2.8,6.7-7,5.8-12.3c-0.9-5.3-4.1-8.6-9.4-9.9c-3.7-0.9-7,0.4-10.2,2.3
	c-13.1,7.7-26.2,15.4-39.3,23.2c-1.5,0.9-2.6,1.2-4.3,0.2c-7-4.2-14.1-8.3-21.2-12.3c-1.5-0.8-2.1-1.7-2.1-3.5
	c0.1-13.6,0.1-27.2,0-40.9c0-1.9,0.6-2.9,2.2-3.8c6.7-3.8,13.4-7.6,20-11.6c2.2-1.3,3.8-1.5,6.1-0.1c13,7.8,26.1,15.6,39.3,23.2
	c6.6,3.9,13.9,2.1,17.4-4c3.4-5.9,1.3-12.9-5.3-16.8c-8.9-5.3-17.9-10.5-26.8-15.8c-1.1-0.6-2.3-1-3.1-2.3c1-0.6,2-1.2,2.9-1.8
	c10.4-6,20.7-12,31.1-18c2.5-1.5,4.8-3.2,6.2-5.8c2.4-4.7,1.6-10.3-2.2-14.1c-3.9-3.9-9.5-4.8-14.6-1.9
	c-10.8,6.1-21.5,12.4-32.3,18.6c-1.1,0.6-2,1.6-3.6,1.5c0-1.3,0-2.5,0-3.8c-0.2-11-0.2-21.9-0.6-32.9c-0.2-5.7-4.7-10.2-10.3-10.9
	c-5.5-0.7-11,2.5-12.9,7.8c-0.8,2.2-0.9,4.5-0.9,6.8c0.2,14.9,0.3,29.8,0.4,44.7c0,1.6,0,2.9-1.9,3.9c-7.3,4-14.4,8.2-21.5,12.4
	c-1.4,0.8-2.3,0.8-3.7,0c-11.8-6.9-23.7-13.7-35.6-20.5c-1.6-0.9-2.2-2-2.1-3.8c0.1-7.6,0.2-15.2,0-22.8c-0.1-2.8,0.7-4.3,3.2-5.7
	c13.1-7.2,26.1-14.7,39.1-22c4-2.2,6.7-5.3,7.2-9.9c0.5-4.7-1.3-8.6-5.3-11.3c-4.1-2.8-8.5-2.8-12.8-0.5
	c-9.7,5.4-19.3,10.8-28.9,16.2c-0.7,0.4-1.4,1.3-2.6,0.7V23.8c0-5.6-2.4-9.8-7.7-12c-4.7-1.9-9.1-0.9-12.8,2.6
	c-3,2.8-3.7,6.5-3.7,10.4c0,12.1,0,24.3,0,36.4c0,1,0.4,2.1-0.5,3.1c-1-0.5-2-1-3-1.6c-9.1-5.2-18.2-10.4-27.4-15.5
	c-7.2-4-15.1-1.4-17.9,5.7c-2.3,5.9,0,11.9,6.2,15.5c13.3,7.6,26.6,15.1,40,22.6c2,1.1,2.7,2.4,2.6,4.6c-0.1,7.8-0.1,15.7,0,23.5
	c0,1.9-0.5,2.9-2.1,3.8c-11.8,6.7-23.6,13.5-35.3,20.4c-1.6,0.9-2.8,0.9-4.3,0c-6.7-4-13.5-8-20.3-11.7c-2.1-1.1-2.9-2.4-2.8-4.8
	c0.3-14.7,0.4-29.3,0.5-44c0-1.7,0-3.5-0.3-5.2c-1.2-7-8.3-11.3-15.1-9.3c-5.6,1.6-8.7,5.9-8.8,12.6c-0.1,11.5,0,23,0,35.2
	c-1.9-1-3-1.5-4-2.1c-10.8-6.2-21.5-12.5-32.3-18.6c-6.1-3.4-13.2-1.4-16.5,4.3c-3.3,5.8-1.5,12.7,4.5,16.6c0.9,0.6,1.8,1,2.7,1.5
	c10.9,6.3,21.9,12.6,32.8,19c-0.8,1.4-2.1,1.7-3.2,2.3c-9.1,5.4-18.3,10.6-27.4,16.2c-8.2,5.1-8.3,16.1-0.3,20.8
	c4.7,2.8,9.2,2,13.7-0.7c13.1-7.8,26.2-15.4,39.3-23.2c1.6-0.9,2.8-1.2,4.6-0.1c6.9,4.2,13.9,8.1,20.9,12.1c1.6,0.9,2.2,1.9,2.2,3.8
	c-0.1,13.6-0.1,27.2,0,40.9c0,1.7-0.6,2.7-2.1,3.5c-6.8,3.8-13.6,7.7-20.3,11.8c-2.1,1.3-3.6,1.4-5.8,0.1
	c-12.9-7.8-25.9-15.4-38.9-23.1c-3.1-1.8-6.3-3-9.9-2.1c-5.2,1.3-8.5,4.6-9.4,9.9c-0.9,5.3,1.3,9.6,5.8,12.3
	c8.9,5.4,17.8,10.6,26.7,15.9c1.3,0.8,3,1.2,3.9,2.8c-1.1,0.6-2,1.2-3,1.8c-10.6,6.1-21.2,12.2-31.7,18.3c-5.4,3.2-7.8,8.3-6.5,13.6
	c2.1,8.3,10.7,11.8,18.6,7.3c10.9-6.2,21.7-12.5,32.6-18.8c0.7-0.4,1.3-1.3,2.6-0.7c0,4.1-0.1,8.2,0,12.4c0.1,8.1,0.1,16.2,0.5,24.2
	c0.3,5.6,4.9,10.1,10.4,10.8c5.5,0.7,10.9-2.7,12.8-7.9c0.8-2.2,0.8-4.5,0.8-6.8c-0.2-14.8-0.2-29.5-0.5-44.3c0-2.1,0.4-3.3,2.4-4.4
	c6.9-3.9,13.8-7.8,20.6-11.9c1.7-1,2.9-1,4.6,0c11.6,6.8,23.3,13.5,35,20.2c1.8,1,2.3,2.2,2.3,4.1c-0.1,7.7-0.1,15.5,0,23.2
	c0,2.4-0.7,3.7-2.8,4.9c-13,7.2-25.9,14.5-38.8,21.8c-1.7,1-3.4,1.9-4.8,3.4c-4,4.3-4.4,10.5-1,15.2c3.5,4.9,9.7,6.6,15.3,3.6
	c9.5-5.1,18.9-10.6,28.3-15.8c1.1-0.6,2-1.6,3.6-1.5v3.4c0,11.4,0.2,22.9-0.1,34.3c-0.2,7.4,2.3,12.7,9.4,15.4h5.5
	c7.1-2.7,9.6-8,9.4-15.4c-0.3-11.8-0.1-23.5-0.1-35.3c0-0.8-0.5-1.9,0.6-2.6c3.9,2.2,7.8,4.4,11.7,6.6c6.2,3.5,12.4,7.1,18.6,10.5
	c5.7,3.1,12,2.1,15.7-2.4c5.1-6.2,3.5-14.5-3.9-18.8c-13.4-7.7-26.8-15.2-40.3-22.8c-1.7-0.9-2.5-1.9-2.5-4c0.1-8.1,0.1-16.2,0-24.2
	c0-1.7,0.4-2.7,2-3.6c11.9-6.8,23.8-13.6,35.6-20.5c1.5-0.9,2.5-0.9,4,0c6.8,4,13.7,8,20.7,11.9c1.9,1.1,2.7,2.2,2.7,4.5
	c-0.3,15.3-0.4,30.7-0.5,46.1c0,7.8,5.1,13.2,12.1,13.1c6.9,0,11.8-5.2,12-12.9c0.2-10.5,0.3-21,0.4-31.5c0-1.1-0.3-2.2,0.4-3.5
	c1,0.6,2,1.1,3,1.6c10.4,6,20.7,12,31.1,18c2.6,1.5,5.4,2.7,8.5,2.3c5.6-0.6,9.7-4.4,10.8-9.7C343.5,268.3,341.2,263.2,336.4,260.3z
	 M227,188.3c0,6.7-0.1,13.4,0,20.1c0,1.9-0.5,3.1-2.3,4.1c-11.7,6.6-23.4,13.4-35,20.2c-1.7,1-3,1-4.6,0
	c-11.6-6.8-23.3-13.5-35-20.2c-1.6-0.9-2.3-1.8-2.2-3.8c0.1-13.6,0.1-27.2,0-40.8c0-1.9,0.7-2.8,2.3-3.7c11.7-6.7,23.4-13.4,35-20.2
	c1.7-1,3-1,4.6,0c11.5,6.8,23.1,13.4,34.7,20c1.8,1,2.6,2.1,2.5,4.3C226.9,174.9,227,181.6,227,188.3z"/>
</svg>
