<?xml version="1.0" encoding="utf-8"?>
<!-- Generator: Adobe Illustrator 24.3.0, SVG Export Plug-In . SVG Version: 6.00 Build 0)  -->
<svg version="1.1" id="Layer_1" xmlns="http://www.w3.org/2000/svg" xmlns:xlink="http://www.w3.org/1999/xlink" x="0px" y="0px"
	 viewBox="0 0 235.1 372" style="enable-background:new 0 0 235.1 372;" xml:space="preserve">
<style type="text/css">
	.st0{fill:#0071B2;}
	.st1{fill:#F39418;}
	.st2{fill:#0CA438;}
	.st3{fill:#696969;}
	.st4{fill:#8027B7;}
	.st5{fill:#1D3662;}
	.st6{fill:#1C3661;}
	.st7{fill:#444343;}
</style>
<g>
	<path class="st7" d="M120,41.6c0.6,3.3-1,6.3-4.3,7.5c-4.6,1.8-9.4,3.1-13.8,5.4C91.5,60.2,84,68,81.2,79.9c-1,4.3-3.2,6.2-6.9,6.2
		c-3,0-5.1-1.5-6.1-4.4c-0.5-1.4-0.5-2.9-0.1-4.3C71.2,62.9,79.4,52,92,44.5c5.4-3.3,11.2-5.8,17.4-7.3c1.3-0.3,2.6-0.5,3.2-0.6
		C117,36.5,119.4,38.3,120,41.6z"/>
	<path class="st7" d="M189.3,119.1c-0.1,1.4,0,2.4-0.2,3.4c-0.7,3.4-3.4,5.4-6.8,5.2c-3.4-0.2-5.7-2.2-5.8-5.8
		c-0.3-6.1-1.7-11.6-6.7-15.6c-1.5-1.2-3.2-2.1-4.8-3.1c-4.2-2.4-5.6-5.7-4-9.1c1.7-3.5,5.6-4.8,9.8-2.7
		C182.5,97.1,188.4,106.6,189.3,119.1z"/>
	<path class="st7" d="M218.9,120.2c-1.1-1.9-1.4-3.6-0.9-5.7c3.7-17.1-0.7-32.2-14-43.3c-6.6-5.5-11-11.2-14.6-19
		c-9.2-19.6-26.3-30.3-46.5-36.4c-5.5-1.6-11.2-2-16.7-3.4h-17.6c-0.3,0.9-1.1,0.6-1.7,0.7c-9.2,1.2-18.2,3.5-26.6,7.6
		c-19.8,9.7-33.9,24.1-38.2,46.5c-0.3,1.6-1.4,2.2-2.4,3.1c-12.4,11.1-17.4,24.9-14.8,41.4c0.3,2.1,0.2,3.8-1,5.7
		c-14.1,22.5-5.7,51.6,18.2,63.3c2,1,3.3,2.3,4.1,4.5c22.5,56.2,45.2,112.5,67.8,168.7c1.3,3.2,2.9,5.9,6.9,5.9
		c3.9,0,5.3-2.8,6.5-5.8c22.4-55.7,44.8-111.4,67.1-167.1c1.3-3.2,3.1-5.3,6.3-6.8C222.5,169.3,231.1,140.9,218.9,120.2z
		 M70.3,211.3c-2.1-2.3-2.7-5.4-4-8.1c-0.6-1.2,0.4-1.7,0.9-2.3c5.4-5.8,10.8-11.5,16.2-17.4c1.1-1.2,1.8-1.2,2.9,0.1
		c3.4,4.2,7.8,7,12.4,9.7c4,2.3,6.7,6.3,10.1,9.4c1.1,1,0.1,1.6-0.4,2.2c-7,7.4-14,14.8-21,22.1c-0.4,0.4-0.8,0.7-1.6,1.4
		c-0.5-0.7-0.8-1.3-1.3-1.8C79.8,221.6,75,216.5,70.3,211.3z M117.6,214.7c0.3-0.3,0.7-0.6,0.9-0.8c1-0.1,1.3,0.7,1.7,1.1
		c6.8,7.2,13.6,14.5,20.5,21.6c1.2,1.2,1.3,2,0.1,3.3c-7,7.4-13.8,14.9-20.7,22.4c-1.2,1.3-1.8,1-2.9-0.1
		c-6.8-7.5-13.7-15-20.6-22.4c-0.8-0.9-1.4-1.5-0.2-2.7C103.5,229.6,110.6,222.1,117.6,214.7z M85.4,250.1c-0.3-0.7-0.8-1.5,0.1-2.1
		c1-0.7,1.4,0.3,1.9,0.8c7,7.7,13.9,15.5,20.9,23.2c0.8,0.9,1.3,1.6,0.2,2.8c-3.1,3.1-6,6.4-9.3,9.8C94.5,272.9,90,261.5,85.4,250.1
		z M134,302.1c-4.6,11.1-9.1,22.2-13.9,34c-3.2-8-6.1-15.3-8.9-22.6c-1.7-4.4-3.4-8.8-5.3-13.2c-0.7-1.6-0.4-2.6,0.7-3.8
		c3.6-3.7,7.1-7.6,10.5-11.5c1.2-1.4,2-1.7,3.3-0.1c4.2,4.9,8.5,9.6,12.8,14.5C133.8,300.2,134.6,300.8,134,302.1z M154,252.4
		c-3.9,9.3-7.6,18.8-11.3,28.2c-0.7,1.9-1.5,3.7-2.4,6c-3.8-4.3-7.3-8.2-10.8-11.9c-1.3-1.4-1.2-2.2,0-3.5
		c6.7-7.1,13.3-14.4,20-21.6c0.7-0.7,1.2-2.7,2.8-1.2C153.4,249.4,155,250.1,154,252.4z M172.2,206c-6.5,6.9-12.9,13.9-19.3,21
		c-1,1.1-1.7,1.4-2.9,0.1c-6.9-7.4-13.8-14.7-20.7-21.9c-1.2-1.2-1-1.9,0.1-3c4-4,7.4-8.7,13-11c3.4-1.4,6.2-4.1,8.6-7
		c0.5-0.6,1.1-1.1,1.5-1.6c1,0,1.3,0.7,1.7,1.2c6,6.3,11.9,12.7,18,18.9C173.4,203.9,173.4,204.7,172.2,206z M179.1,190.4
		c-2.2-1.3-3.5-3-5.4-5c2.6,0.3,4.6,0.5,6.7,0.7C180.6,187.7,179.4,188.8,179.1,190.4z M206.4,156.7c-7.9,15.8-30,20.5-43.9,9.6
		c-0.3-0.2-0.5-0.4-0.8-0.7c-7.9-6.5-10.1-6.1-15.2,2.6c-12,20.6-41.2,20.9-53.6,0.5c-0.5-0.9-1-1.7-1.6-2.6c-2.4-4-5.8-4.8-9.7-2.1
		c-4.4,3-8.7,5.9-14,7.2c-18.1,4.6-36.8-8.4-38.5-27.1c-0.8-8.4,1.1-15.8,6.5-22.4c2.2-2.6,2.9-5.6,1.9-9.1
		C33.5,99,37.7,86.9,49.2,78.4c2.3-1.7,4-3.8,4.3-6.6c2.3-18.4,13.2-30.6,29.1-38.1c27.3-13,54.1-11.6,79.1,6
		c10,7,16.6,16.8,18.8,29.1c0.7,3.7,3,5.7,6.3,7.3c12,5.6,17.4,15.4,18.1,27.1c-0.2,4.6-0.3,8.2-1.8,11.4c-1.7,3.9-1.1,7.2,1.1,10.8
		C210.4,135.4,211.8,145.9,206.4,156.7z"/>
	<path class="st7" d="M120,41.6c0.6,3.3-1,6.3-4.3,7.5c-4.6,1.8-9.4,3.1-13.8,5.4C91.5,60.2,84,68,81.2,79.9c-1,4.3-3.2,6.2-6.9,6.2
		c-3,0-5.1-1.5-6.1-4.4c-0.5-1.4-0.5-2.9-0.1-4.3C71.2,62.9,79.4,52,92,44.5c5.4-3.3,11.2-5.8,17.4-7.3c1.3-0.3,2.6-0.5,3.2-0.6
		C117,36.5,119.4,38.3,120,41.6z"/>
	<path class="st7" d="M189.3,119.1c-0.1,1.4,0,2.4-0.2,3.4c-0.7,3.4-3.4,5.4-6.8,5.2c-3.4-0.2-5.7-2.2-5.8-5.8
		c-0.3-6.1-1.7-11.6-6.7-15.6c-1.5-1.2-3.2-2.1-4.8-3.1c-4.2-2.4-5.6-5.7-4-9.1c1.7-3.5,5.6-4.8,9.8-2.7
		C182.5,97.1,188.4,106.6,189.3,119.1z"/>
	<path class="st7" d="M62.7,186.2c-0.6,0.9-0.9,2.2-2.2,1.8c-0.4-0.1-0.9-1-0.7-1.4C60.3,185.2,61.6,186.3,62.7,186.2z"/>
	<path class="st7" d="M115.7,49.1c-4.6,1.8-9.4,3.1-13.8,5.4C91.5,60.2,84,68,81.2,79.9c-1,4.3-3.2,6.2-6.9,6.2
		c-3,0-5.1-1.5-6.1-4.4c-0.5-1.4-0.5-2.9-0.1-4.3C71.2,62.9,79.4,52,92,44.5c5.4-3.3,11.2-5.8,17.4-7.3c1.3-0.3,2.6-0.5,3.2-0.6
		c4.4,0,6.8,1.8,7.4,5.1C120.6,44.9,119,47.9,115.7,49.1z"/>
	<path class="st7" d="M189.3,119.1c-0.1,1.4,0,2.4-0.2,3.4c-0.7,3.4-3.4,5.4-6.8,5.2c-3.4-0.2-5.7-2.2-5.8-5.8
		c-0.3-6.1-1.7-11.6-6.7-15.6c-1.5-1.2-3.2-2.1-4.8-3.1c-4.2-2.4-5.6-5.7-4-9.1c1.7-3.5,5.6-4.8,9.8-2.7
		C182.5,97.1,188.4,106.6,189.3,119.1z"/>
</g>
</svg>
