<?xml version="1.0" encoding="utf-8"?>
<!-- Generator: Adobe Illustrator 24.3.0, SVG Export Plug-In . SVG Version: 6.00 Build 0)  -->
<svg version="1.1" id="Layer_1" xmlns="http://www.w3.org/2000/svg" xmlns:xlink="http://www.w3.org/1999/xlink" x="0px" y="0px"
	 viewBox="0 0 386.1 372" style="enable-background:new 0 0 386.1 372;" xml:space="preserve">
<style type="text/css">
	.st0{fill:#0071B2;}
	.st1{fill:#F39418;}
	.st2{fill:#0CA438;}
	.st3{fill:#696969;}
	.st4{fill:#8027B7;}
	.st5{fill:#1D3662;}
	.st6{fill:#1C3661;}
	.st7{fill:#444343;}
</style>
<g>
	<path class="st7" d="M335.2,265.8c1.9,3.2,0.8,6.3-3,8.7c-13,8.2-27.2,12-42.5,12c-32.3,0-64.6,0-96.8,0c-32.3,0-64.6,0-96.9,0
		c-15.6,0-30-4-43.1-12.4c-4-2.5-5.1-5.8-3.2-9c1.9-3.2,5.5-3.7,9.4-1.1c11.5,7.3,24,10.6,37.5,10.6c64.2-0.1,128.4-0.1,192.6,0
		c13.2,0,25.3-3.1,36.5-10C329.7,262,333.3,262.6,335.2,265.8z"/>
	<path class="st7" d="M352.5,219.3c-9.7-20.6-26-35.3-45-47.1c-30.5-18.9-64.3-27.3-99.8-29.3c-18.7-1-37.4-0.1-55.8,3
		c-25.2,4.2-49,12-71.1,25.1c-16.1,9.6-30.3,21.3-41,37c-10.5,15.5-16.4,32.6-14.3,51.3c3.8,32.7,31.9,51.6,58.1,51.2
		c36.3-0.5,72.6-0.1,108.8-0.1c36.8,0,73.6,0.2,110.3-0.1c23.5-0.2,40.9-11.2,51.6-32C364.6,258.6,361.7,238.6,352.5,219.3z
		 M274.2,169.7c4.4,1.9,8.7,3.7,13.9,5.9c-21.9,8.7-35.3,23.4-40,45.7c-0.8,3.9-3.8,6-7.3,5.3c-3.4-0.6-5.4-3.7-4.6-7.7
		c4.4-21.6,16.3-37.8,35.3-48.9C272.3,169.4,273.2,169.2,274.2,169.7z M312.1,297.3c-3.4,0.8-6.8,1.2-10.4,1.2
		c-72.6,0-145.1,0-217.7,0c-25.2,0-45.2-18.4-46.6-43.5c-0.8-14,3.9-26.9,11.5-38.6c7.6-11.8,17.7-21.1,29.7-29.5
		c-1.7,6.3-3.3,12-4.3,17.9c-1.8,11,4,20,14.2,21.7c10.5,1.8,19.5-4.8,21.2-15.6c3-18.6,12.4-33.4,27.6-44.4c9-6.5,19-9.5,29.9-10.2
		c4-0.2,7.9-1.3,12.1-0.6c-3.2,4-6.5,7.8-9.4,11.9c-9.6,13.2-15.5,28-18.1,44.1c-1.6,10,5.3,19.3,15.4,20.8
		c9.7,1.4,18.7-5.5,20.3-15.5c4.5-28,24-48.6,51.5-55.1c6.6-1.6,12.5,0.2,18.9,2.3c-1.2,0.9-2.2,1.7-3.2,2.5
		c-16.4,13.1-26.8,29.9-30.8,50.6c-1.9,9.7,3.9,18.6,13.5,20.9c9.4,2.3,19-3.1,21.4-12.7c2-8.2,4.7-16,10.1-22.6
		c8.5-10.5,19.6-16.3,32.9-17.9c1.2-0.1,2.2,0,3.2,0.7c19.5,13.3,35.3,29.4,41.3,53.2C353.6,266,339,291,312.1,297.3z"/>
	<path class="st7" d="M204.1,64.4c-0.1,6.1-2.2,11.4-6.2,16c-5.7,6.5-5.8,11.1-0.7,17.9c2.3,3.1,2.1,6.5-0.5,8.6
		c-2.6,2.2-6,1.8-8.7-0.9c-8.2-8.5-8.6-22.3-0.8-31.7c6.5-7.8,6.6-10.8,1-19.1c-1.9-2.8-1.6-6,0.7-8.1c2.5-2.2,5.9-2.1,8.4,0.4
		C201.8,52.2,204.1,57.8,204.1,64.4z"/>
	<path class="st7" d="M247.5,108c0-6.4,2.1-11.7,6.1-16.3c5.9-6.8,6-11.1,0.8-18.2c-2.2-2.9-2-6.2,0.4-8.4c2.5-2.3,6-2.1,8.7,0.6
		c8.5,8.5,8.8,22.7,0.7,32.3c-6,7.1-6.2,11-0.8,18.5c2.1,2.9,1.9,6.2-0.7,8.4c-2.5,2.1-5.9,2-8.4-0.6
		C249.8,119.6,247.6,114.1,247.5,108z"/>
	<path class="st7" d="M115.8,111.2c0.1-3.8,2.2-9.1,6.2-13.7c5.7-6.5,5.9-11.1,0.7-17.9c-2.3-3.1-2.2-6.4,0.5-8.7
		c2.6-2.2,5.9-1.9,8.6,0.9c8.4,8.6,8.6,22.5,0.7,32c-6.2,7.4-6.3,10.8-0.8,18.8c1.9,2.8,1.7,6-0.7,8.1c-2.4,2.2-5.8,2-8.4-0.4
		C118.6,126.6,115.8,119.7,115.8,111.2z"/>
	<path class="st7" d="M332.2,274.5c-13,8.2-27.2,12-42.5,12c-32.3,0-64.6,0-96.8,0c-32.3,0-64.6,0-96.9,0c-15.6,0-30-4-43.1-12.4
		c-4-2.5-5.1-5.8-3.2-9c1.9-3.2,5.5-3.7,9.4-1.1c11.5,7.3,24,10.6,37.5,10.6c64.2-0.1,128.4-0.1,192.6,0c13.2,0,25.3-3.1,36.5-10
		c4-2.5,7.5-1.9,9.4,1.3C337,268.9,336,272.1,332.2,274.5z"/>
	<path class="st7" d="M332.2,274.5c-13,8.2-27.2,12-42.5,12c-32.3,0-64.6,0-96.8,0c-32.3,0-64.6,0-96.9,0c-15.6,0-30-4-43.1-12.4
		c-4-2.5-5.1-5.8-3.2-9c1.9-3.2,5.5-3.7,9.4-1.1c11.5,7.3,24,10.6,37.5,10.6c64.2-0.1,128.4-0.1,192.6,0c13.2,0,25.3-3.1,36.5-10
		c4-2.5,7.5-1.9,9.4,1.3C337,268.9,336,272.1,332.2,274.5z"/>
</g>
</svg>
