<?xml version="1.0" encoding="utf-8"?>
<!-- Generator: Adobe Illustrator 24.3.0, SVG Export Plug-In . SVG Version: 6.00 Build 0)  -->
<svg version="1.1" id="Layer_1" xmlns="http://www.w3.org/2000/svg" xmlns:xlink="http://www.w3.org/1999/xlink" x="0px" y="0px"
	 viewBox="0 0 386.1 372" style="enable-background:new 0 0 386.1 372;" xml:space="preserve">
<style type="text/css">
	.st0{fill:#0071B2;}
	.st1{fill:#F39418;}
	.st2{fill:#0CA438;}
	.st3{fill:#696969;}
	.st4{fill:#8027B7;}
	.st5{fill:#1D3662;}
	.st6{fill:#1C3661;}
	.st7{fill:#444343;}
</style>
<g>
	<path class="st7" d="M151.1,280.8c0-8.4,0-8.4-8.6-8.3c-1.9,0-2.5,0.5-2.4,2.5c0.1,8.2,0,16.4,0,24.7v19.5c0,8.3,0,8.2,8.2,8.3
		c2.2,0,2.8-0.6,2.8-2.8C151,310.1,151.1,295.5,151.1,280.8z M195,280.8c0-8.4,0-8.4-8.6-8.3c-1.9,0-2.5,0.5-2.4,2.5
		c0.1,8.3,0,16.7,0,25v19.2c0,8.3,0,8.2,8.2,8.3c2.2,0,2.8-0.6,2.8-2.8C194.9,310.1,195,295.5,195,280.8z M238.8,300.3v-19.5
		c0-8.3,0-8.2-8.3-8.2c-2.4,0-2.7,0.8-2.7,2.9c0.1,14.5,0,29,0,43.5c0,8.7,0,8.7,8.6,8.6c2,0,2.4-0.7,2.4-2.5
		C238.8,316.8,238.8,308.5,238.8,300.3z M282.7,292c0-8.7,0-8.6-8.7-8.5c-2.1,0-2.4,0.8-2.3,2.6c0.1,4.6,0,9.1,0,13.7v8.6
		c0,8.2,0,8.1,8,8.2c2.3,0,3.1-0.4,3-2.9C282.6,306.4,282.7,299.2,282.7,292z M326.6,299.7v-2.4c0-8.5,0-8.4-8.5-8.3
		c-1.9,0-2.6,0.4-2.5,2.4c0.2,3.8,0,7.5,0,11.3c0,8.7,0,8.6,8.9,8.3c1.6-0.1,2.2-0.4,2.1-2.1C326.5,305.9,326.6,302.8,326.6,299.7z
		 M326.6,299.7v-2.4c0-8.5,0-8.4-8.5-8.3c-1.9,0-2.6,0.4-2.5,2.4c0.2,3.8,0,7.5,0,11.3c0,8.7,0,8.6,8.9,8.3c1.6-0.1,2.2-0.4,2.1-2.1
		C326.5,305.9,326.6,302.8,326.6,299.7z M282.7,292c0-8.7,0-8.6-8.7-8.5c-2.1,0-2.4,0.8-2.3,2.6c0.1,4.6,0,9.1,0,13.7v8.6
		c0,8.2,0,8.1,8,8.2c2.3,0,3.1-0.4,3-2.9C282.6,306.4,282.7,299.2,282.7,292z M238.8,300.3v-19.5c0-8.3,0-8.2-8.3-8.2
		c-2.4,0-2.7,0.8-2.7,2.9c0.1,14.5,0,29,0,43.5c0,8.7,0,8.7,8.6,8.6c2,0,2.4-0.7,2.4-2.5C238.8,316.8,238.8,308.5,238.8,300.3z
		 M195,280.8c0-8.4,0-8.4-8.6-8.3c-1.9,0-2.5,0.5-2.4,2.5c0.1,8.3,0,16.7,0,25v19.2c0,8.3,0,8.2,8.2,8.3c2.2,0,2.8-0.6,2.8-2.8
		C194.9,310.1,195,295.5,195,280.8z M151.1,280.8c0-8.4,0-8.4-8.6-8.3c-1.9,0-2.5,0.5-2.4,2.5c0.1,8.2,0,16.4,0,24.7v19.5
		c0,8.3,0,8.2,8.2,8.3c2.2,0,2.8-0.6,2.8-2.8C151,310.1,151.1,295.5,151.1,280.8z M151.1,280.8c0-8.4,0-8.4-8.6-8.3
		c-1.9,0-2.5,0.5-2.4,2.5c0.1,8.2,0,16.4,0,24.7v19.5c0,8.3,0,8.2,8.2,8.3c2.2,0,2.8-0.6,2.8-2.8C151,310.1,151.1,295.5,151.1,280.8
		z M195,280.8c0-8.4,0-8.4-8.6-8.3c-1.9,0-2.5,0.5-2.4,2.5c0.1,8.3,0,16.7,0,25v19.2c0,8.3,0,8.2,8.2,8.3c2.2,0,2.8-0.6,2.8-2.8
		C194.9,310.1,195,295.5,195,280.8z M238.8,300.3v-19.5c0-8.3,0-8.2-8.3-8.2c-2.4,0-2.7,0.8-2.7,2.9c0.1,14.5,0,29,0,43.5
		c0,8.7,0,8.7,8.6,8.6c2,0,2.4-0.7,2.4-2.5C238.8,316.8,238.8,308.5,238.8,300.3z M282.7,292c0-8.7,0-8.6-8.7-8.5
		c-2.1,0-2.4,0.8-2.3,2.6c0.1,4.6,0,9.1,0,13.7v8.6c0,8.2,0,8.1,8,8.2c2.3,0,3.1-0.4,3-2.9C282.6,306.4,282.7,299.2,282.7,292z
		 M326.6,299.7v-2.4c0-8.5,0-8.4-8.5-8.3c-1.9,0-2.6,0.4-2.5,2.4c0.2,3.8,0,7.5,0,11.3c0,8.7,0,8.6,8.9,8.3c1.6-0.1,2.2-0.4,2.1-2.1
		C326.5,305.9,326.6,302.8,326.6,299.7z M326.6,299.7v-2.4c0-8.5,0-8.4-8.5-8.3c-1.9,0-2.6,0.4-2.5,2.4c0.2,3.8,0,7.5,0,11.3
		c0,8.7,0,8.6,8.9,8.3c1.6-0.1,2.2-0.4,2.1-2.1C326.5,305.9,326.6,302.8,326.6,299.7z M282.7,292c0-8.7,0-8.6-8.7-8.5
		c-2.1,0-2.4,0.8-2.3,2.6c0.1,4.6,0,9.1,0,13.7v8.6c0,8.2,0,8.1,8,8.2c2.3,0,3.1-0.4,3-2.9C282.6,306.4,282.7,299.2,282.7,292z
		 M238.8,300.3v-19.5c0-8.3,0-8.2-8.3-8.2c-2.4,0-2.7,0.8-2.7,2.9c0.1,14.5,0,29,0,43.5c0,8.7,0,8.7,8.6,8.6c2,0,2.4-0.7,2.4-2.5
		C238.8,316.8,238.8,308.5,238.8,300.3z M195,280.8c0-8.4,0-8.4-8.6-8.3c-1.9,0-2.5,0.5-2.4,2.5c0.1,8.3,0,16.7,0,25v19.2
		c0,8.3,0,8.2,8.2,8.3c2.2,0,2.8-0.6,2.8-2.8C194.9,310.1,195,295.5,195,280.8z M151.1,280.8c0-8.4,0-8.4-8.6-8.3
		c-1.9,0-2.5,0.5-2.4,2.5c0.1,8.2,0,16.4,0,24.7v19.5c0,8.3,0,8.2,8.2,8.3c2.2,0,2.8-0.6,2.8-2.8C151,310.1,151.1,295.5,151.1,280.8
		z M355.1,273.4c-2.1-1.3-2.1-1.9-0.7-3.7c5.2-6.6,9-13.9,11.9-21.8c4.4-12.1,4.5-24.6,4.1-37.2c-0.8-23.7-10.4-43.2-28.9-58.1
		c-10.2-8.2-19.9-8.3-30.6-0.7c-1.2,0.8-1.9,0.9-2.9,0c-2.6-2.4-5.7-3.9-9.1-4.6c-2-0.4-2.2-1.2-2-3c0.6-5,1.1-10,1.4-15
		c0.3-4.8,1.5-9.5,0.6-14.3c-2.1-11.9-12.5-19.3-24.8-17.8c-11.8,1.4-19.8,11.7-18.7,24.1c0.7,7.7,1.3,15.5,2.2,23.2
		c0.2,1.8-0.1,2.6-2,3c-3.1,0.7-5.9,2.3-8.5,4.3c-0.6,0.5-1.1,1.6-2.2,1.1c-1.3-0.6-1-1.8-0.9-3c0.8-7.3-0.6-14.1-4.5-20.3
		c-1.1-1.8-1.1-3,0-4.8c13-21.7-2.3-49.1-27.5-49.6c-1.9,0-2.7-0.5-3.5-2.3c-3.6-8.4-9.8-14.2-18.3-17.5c-1.8-0.7-3.2-1.6-4.4-3
		c-6.3-6.6-14-10.1-23.1-10.2c-2.1,0-2.8-0.8-3.6-2.6c-5.4-11.4-14.5-18.2-27.1-19.3c-12.6-1.1-22.7,4-30,14.2
		c-0.9,1.3-1.7,2-3.4,2.2C84.8,39,75.4,46.4,70.7,59.6c-0.6,1.6-1.5,2.3-2.9,2.9c-30.7,14-35.6,53.9-9.1,74.9
		c1.6,1.2,1.7,2.1,1.1,3.9c-4.2,13-1.4,24.5,8.2,34.2c1.3,1.3,1.7,2.4,1.4,4.2c-2.9,17.6,8.5,33.9,26.1,37.4c1.7,0.3,2.5,1,3.1,2.6
		c3.5,9.9,7,19.7,10.6,29.6c0.6,1.6,0.4,2.6-1,3.7c-4.7,3.5-8.8,7.7-11.9,12.7c-1.5,2.5-3.1,2.6-5.6,2c-8.4-2-16.9-3.9-25.3-5.7
		c-8-1.7-15.7,3.1-17.9,11.1c-1,3.4-0.6,6.9,0,10.3c-10.4,1.2-16.9,7.5-17,16.5c-0.1,9.1,6.4,15.6,17.1,16.8
		c-0.1,0.5-0.2,0.8-0.2,1.2c-3,14.9,9.3,23,19.8,20c7.8-2.2,15.8-3.6,23.6-5.4c2.4-0.6,3.8-0.3,5.6,2c14.3,19.5,33.7,28.3,57.7,25.3
		c22.2-2.8,44.2-6.5,66.3-9.9c40.9-6.3,81.8-12.7,122.7-18.9c13.4-2,24-11.5,26.7-24.1C372.5,293.3,367,280.5,355.1,273.4z
		 M48.1,305.5c-4.2,0-6.7-2.2-6.7-5.6c0.1-3.3,2.5-5.3,6.6-5.3c5.8,0,11.6,0,17.4,0c5.9,0,11.8,0.1,17.8,0c1.7,0,2.4,0.4,2.2,2.2
		c-0.2,2.8,1,6.7-0.4,8.2c-1.7,1.8-5.6,0.5-8.5,0.5C67,305.6,57.6,305.5,48.1,305.5z M85.8,322.4c-7.3,1.4-14.5,3.2-21.7,4.7
		c-3.4,0.8-5.8-0.9-6.2-4c-0.5-4.4,1.2-6.6,5.1-6.7c3.8-0.1,7.5,0,11.3,0c3.8,0,7.5,0,11.3,0c1.2,0,2,0.1,2.5,1.5
		C89.3,320.7,89,321.8,85.8,322.4z M88.8,279.5c-0.5,1.5,0.1,4.2-2.9,4.1c-3.9-0.1-7.7,0-11.6,0c-3.9,0-7.7,0.1-11.6,0
		c-3.7-0.1-5.3-2.4-4.8-6.6c0.4-3.2,2.7-4.8,6.1-4c7.5,1.7,15.1,3.3,22.6,5.1C87.5,278.2,89.5,277.6,88.8,279.5z M320,158.9
		c4.7-2.3,9.1-1.9,13.2,1.2c15.9,12.2,24.9,28.4,26.1,48.3c0.7,12.3,0.9,24.6-3.6,36.5c-3,8-7.3,15.2-12.8,21.6
		c-1.5,1.7-2.9,2.3-5,1.9c-2.5-0.5-5.1-0.9-7.9-1.4c10-22,8.7-44.9,6.1-67.7c-1.6-13.7-8-25.8-16.9-36.4
		C317.3,160.8,317.9,159.9,320,158.9z M295.8,158.3c0.7-0.6,1.5-0.1,2.2,0.2c2.3,0.9,4,2.6,5.8,4.2c14.5,13.2,22.3,29.6,22.6,49.2
		c0.2,11.6,1.1,23.3-1.3,34.8c-1.1,5.6-3,11-5.4,16.1c-0.8,1.8-1.7,2.6-3.8,2.2c-13.2-2.1-26.3-4.2-39.5-6.1c-2.4-0.3-2.2-2-2.5-3.4
		c-2.2-10.6-2.4-21.3-2.1-30.6c-0.1-9.6-0.2-17.9,0.8-26.1c0.3-2.3,0.9-3.3,3.7-3.3c8.5,0.3,16.7-1.1,23.4-6.8
		c6.7-5.6,6.5-13.5,0-19.1c-0.9-0.7-1.8-1.4-2.8-2C295.2,166.7,294.4,159.6,295.8,158.3z M262.7,177.5c1.6-0.9,3.2-1.8,5-2.1
		c3.2-0.6,3.7-2.3,3.4-5.3c-1.6-16.2-3.1-32.5-4.6-48.7c-0.9-9,5.3-14.9,13.6-13c5.3,1.2,8.5,5.7,8.1,11.5c-0.9,11-2,22-3,33.1
		c-0.6,6.2-1.1,12.5-1.7,18.7c-0.2,2,0.4,2.8,2.3,3.3c2.2,0.5,4.3,1.4,6.3,2.6c2,1.3,2,2.5-0.1,3.8c-4.5,2.7-9.6,3.5-14.8,3.6
		c-5-0.1-10-0.9-14.4-3.5C260.4,180.1,260.4,178.7,262.7,177.5z M254.3,160.2c1.2-0.9,2.6-2.3,3.9-1.8c1.3,0.5,0.7,2.6,1,4
		c0.6,2.8-0.1,4.5-2.8,6.3c-9.6,6.2-8.7,16.9,1.8,22.5c3.4,1.8,3.9,3.5,3.6,7.2c-1.5,18.7-2,37.4,0.8,56c0.2,1.6,0.6,2.6-1.8,2.1
		c-9.1-1.5-18.2-3-27.4-4.3c-2.1-0.3-3-1-3.5-3.2c-2.2-8.5-2-17.2-1.9-27.2c-0.5-10.6,0.1-22.4,4.8-33.6
		C237.4,177,244.6,167.6,254.3,160.2z M235.7,159.6c1.2,0.9,1.6,1.5,0.4,2.9c-13.8,15.9-19.9,34.5-19.2,55.5
		c0.3,10.6-0.7,21.2,2,32.1c-6.2-1-11.8-1.9-17.5-2.7c-1.5-0.2-2.1-0.9-2.6-2.2c-1.8-5-3.1-10-3.5-15.3
		c-1.5-19.8-0.5-39.1,12.1-55.9c4-5.3,8.5-10.1,13.9-14C225.9,156.7,231.6,156.7,235.7,159.6z M196.7,74.1c2.2,3.2,3.4,6.8,3.7,10.5
		c0.2,3.1,1.4,3.4,4.1,2.7c9.5-2.6,17.7-0.5,24,7.2c7.3,8.9,6.3,20.8-2,29.5c-3.2,3.3-3.2,3.3,0,6.6c3.9,4,6.2,8.7,6.7,14.2
		c0.1,1.1,0.4,2.2-1.6,1.9c-8.4-1.2-15,2.4-21.1,7.8c-7.7,6.8-13.9,14.7-18.7,24.2c-2.2-6.1-4.3-11.8-6.3-17.6
		c-0.6-1.8,0.3-3.6,0.8-5.3c3.7-13.9,10.6-25.9,20.9-35.9c1.6-1.6,2.2-2.7,0.3-4.3c-0.3-0.2-0.4-0.5-0.7-0.8
		c-4.7-5.8-4.7-5.8-9.9-0.2c-7.8,8.3-13.8,17.8-18.1,28.5c-1.4-0.3-1.4-1.7-1.8-2.6c-5.9-13.1-12.4-25.9-19.7-38.2
		c-1.4-2.3-2.4-2.5-4.3-0.9c-2,1.6-5.6,2.3-6,4.6c-0.3,1.9,2.1,4.3,3.4,6.5c5.1,8.7,9.7,17.7,14.1,27.5c-10.8-3.7-21.4-4.7-32.1-4.5
		c-2.8,0.1-4.5,0.3-3.5,3.8c0.6,2.3-0.4,5.5,1.2,6.8c1.4,1.1,4.4,0.2,6.6,0.3c9.2,0.1,18.2,1.3,26.7,5c5.3,2.3,9.3,5.6,11.1,11.6
		c2.4,7.5,5.3,14.8,7.7,22.3c0.2,0.7,0.7,1.4,0.2,2.5c-7.9-3.7-16.1-6-24.7-7.2c-3.4-0.5-6.8-0.7-10.2-1c-1.5-0.2-2.2,0.3-1.9,1.8
		c0,0.1,0,0.2,0,0.3c-0.3,8.6-0.3,8.5,8.3,9.5c10.1,1.1,19.7,3.6,28.4,9.2c1.4,0.9,2.5,1.8,2.3,4c-1.1,13.2-1.4,26.4,2.2,39.4
		c0.1,0.4,0.2,0.8,0.3,1.5c-9.9-1.5-19.4-3-29-4.4c-2.6-0.4-5.2-0.8-7.8-0.9c-15.3-0.9-25-15.4-19.6-29.8c1.2-3.3,1-4.7-2.1-6.7
		c-11.2-7.2-13.6-20.1-6.3-31.3c2.9-4.5,2.9-4.5-1.8-6.9c-12.8-6.6-19.8-18.7-18.7-32.3c1.1-13.7,10.4-24.8,24.4-29
		c2.2-0.7,2.9-1.6,3.3-3.9c2.3-13,11.9-20.3,24.8-18.9c2.9,0.3,3.1-1.5,3.8-3.2c3.6-8,9.6-12.7,18.3-13.5
		C185,63.6,191.8,67,196.7,74.1z M106.6,209.4c-0.6-1.8-1.4-2.7-3.5-2.6c-16.1,0.9-28.2-15.4-21.2-31c1-2.3,0.5-3.3-1.5-4.6
		c-12.4-7.9-15-20.5-6.9-32.7c2.5-3.8,2.5-3.8-1.8-5.9c-22-11.2-26-38.7-7.9-54.7c4-3.6,8.7-5.9,13.8-7.2c1.6-0.4,2.1-1,2.4-2.7
		c2.5-14.1,11.2-20.9,25.4-19.7c2.4,0.2,2.6-1.2,3.2-2.6c3.7-8.7,10.2-13.7,19.6-14.2c11.7-0.6,20.9,7.4,22.7,19.7
		c0.5,3.3,1.3,4.2,4.6,3.2c4.1-1.3,8.3-1.5,12.5,0c0.3,1-0.7,0.9-1.2,1.1c-6.5,2.6-11.9,6.7-15.7,12.7c-0.8,1.2-1.6,1.6-3,1.8
		c-13.9,1.9-23.4,9.4-28.2,22.7c-0.5,1.4-1.3,2.1-2.7,2.7c-31,14.1-35.8,53.8-9.2,75c1.4,1.1,1.6,2,1.1,3.6
		c-4.3,13.2-1.5,24.7,8.3,34.5c1,1.1,1.6,2,1.4,3.5c-2,11.1,1.2,20.7,8.9,28.9c0.3,0.3,0.5,0.7,0.8,1.2c-2.1,0.8-4.1,1.3-5.8,2.3
		c-2.8,1.7-3.7,0.5-4.6-2.2C114.4,231.2,110.4,220.3,106.6,209.4z M342.9,319.8c-24,3.8-48,7.4-72,11.1c-23,3.5-46,7.1-69,10.7
		c-16.7,2.6-33.3,5.6-50.1,7.5c-28.7,3.4-52.3-17.1-55.2-43.7c-3-27.3,16.8-50.6,41.9-54.1c2.6-0.4,5.2-0.6,7.9-0.6
		c9.7,0.3,19.2,2.4,28.8,3.8c27.5,4.1,55,8.4,82.5,12.7c28.4,4.4,56.8,8.7,85.2,13.1c9.7,1.5,16.6,10,16.6,19.7
		C359.5,309.8,352.6,318.2,342.9,319.8z M326.6,299.7v-2.4c0-8.5,0-8.4-8.5-8.3c-1.9,0-2.6,0.4-2.5,2.4c0.2,3.8,0,7.5,0,11.3
		c0,8.7,0,8.6,8.9,8.3c1.6-0.1,2.2-0.4,2.1-2.1C326.5,305.9,326.6,302.8,326.6,299.7z M282.7,292c0-8.7,0-8.6-8.7-8.5
		c-2.1,0-2.4,0.8-2.3,2.6c0.1,4.6,0,9.1,0,13.7v8.6c0,8.2,0,8.1,8,8.2c2.3,0,3.1-0.4,3-2.9C282.6,306.4,282.7,299.2,282.7,292z
		 M238.8,300.3v-19.5c0-8.3,0-8.2-8.3-8.2c-2.4,0-2.7,0.8-2.7,2.9c0.1,14.5,0,29,0,43.5c0,8.7,0,8.7,8.6,8.6c2,0,2.4-0.7,2.4-2.5
		C238.8,316.8,238.8,308.5,238.8,300.3z M195,280.8c0-8.4,0-8.4-8.6-8.3c-1.9,0-2.5,0.5-2.4,2.5c0.1,8.3,0,16.7,0,25v19.2
		c0,8.3,0,8.2,8.2,8.3c2.2,0,2.8-0.6,2.8-2.8C194.9,310.1,195,295.5,195,280.8z M151.1,280.8c0-8.4,0-8.4-8.6-8.3
		c-1.9,0-2.5,0.5-2.4,2.5c0.1,8.2,0,16.4,0,24.7v19.5c0,8.3,0,8.2,8.2,8.3c2.2,0,2.8-0.6,2.8-2.8C151,310.1,151.1,295.5,151.1,280.8
		z M151.1,280.8c0-8.4,0-8.4-8.6-8.3c-1.9,0-2.5,0.5-2.4,2.5c0.1,8.2,0,16.4,0,24.7v19.5c0,8.3,0,8.2,8.2,8.3c2.2,0,2.8-0.6,2.8-2.8
		C151,310.1,151.1,295.5,151.1,280.8z M195,280.8c0-8.4,0-8.4-8.6-8.3c-1.9,0-2.5,0.5-2.4,2.5c0.1,8.3,0,16.7,0,25v19.2
		c0,8.3,0,8.2,8.2,8.3c2.2,0,2.8-0.6,2.8-2.8C194.9,310.1,195,295.5,195,280.8z M238.8,300.3v-19.5c0-8.3,0-8.2-8.3-8.2
		c-2.4,0-2.7,0.8-2.7,2.9c0.1,14.5,0,29,0,43.5c0,8.7,0,8.7,8.6,8.6c2,0,2.4-0.7,2.4-2.5C238.8,316.8,238.8,308.5,238.8,300.3z
		 M282.7,292c0-8.7,0-8.6-8.7-8.5c-2.1,0-2.4,0.8-2.3,2.6c0.1,4.6,0,9.1,0,13.7v8.6c0,8.2,0,8.1,8,8.2c2.3,0,3.1-0.4,3-2.9
		C282.6,306.4,282.7,299.2,282.7,292z M326.6,299.7v-2.4c0-8.5,0-8.4-8.5-8.3c-1.9,0-2.6,0.4-2.5,2.4c0.2,3.8,0,7.5,0,11.3
		c0,8.7,0,8.6,8.9,8.3c1.6-0.1,2.2-0.4,2.1-2.1C326.5,305.9,326.6,302.8,326.6,299.7z M326.6,299.7v-2.4c0-8.5,0-8.4-8.5-8.3
		c-1.9,0-2.6,0.4-2.5,2.4c0.2,3.8,0,7.5,0,11.3c0,8.7,0,8.6,8.9,8.3c1.6-0.1,2.2-0.4,2.1-2.1C326.5,305.9,326.6,302.8,326.6,299.7z
		 M282.7,292c0-8.7,0-8.6-8.7-8.5c-2.1,0-2.4,0.8-2.3,2.6c0.1,4.6,0,9.1,0,13.7v8.6c0,8.2,0,8.1,8,8.2c2.3,0,3.1-0.4,3-2.9
		C282.6,306.4,282.7,299.2,282.7,292z M238.8,300.3v-19.5c0-8.3,0-8.2-8.3-8.2c-2.4,0-2.7,0.8-2.7,2.9c0.1,14.5,0,29,0,43.5
		c0,8.7,0,8.7,8.6,8.6c2,0,2.4-0.7,2.4-2.5C238.8,316.8,238.8,308.5,238.8,300.3z M195,280.8c0-8.4,0-8.4-8.6-8.3
		c-1.9,0-2.5,0.5-2.4,2.5c0.1,8.3,0,16.7,0,25v19.2c0,8.3,0,8.2,8.2,8.3c2.2,0,2.8-0.6,2.8-2.8C194.9,310.1,195,295.5,195,280.8z
		 M151.1,280.8c0-8.4,0-8.4-8.6-8.3c-1.9,0-2.5,0.5-2.4,2.5c0.1,8.2,0,16.4,0,24.7v19.5c0,8.3,0,8.2,8.2,8.3c2.2,0,2.8-0.6,2.8-2.8
		C151,310.1,151.1,295.5,151.1,280.8z"/>
	<path class="st7" d="M151.2,324.7c0,2.2-0.6,2.8-2.8,2.8c-8.2,0-8.2,0-8.2-8.3v-19.5c0-8.2,0.1-16.4,0-24.7c0-1.9,0.5-2.4,2.4-2.5
		c8.6-0.1,8.6-0.2,8.6,8.3C151.1,295.5,151,310.1,151.2,324.7z"/>
	<path class="st7" d="M195,324.7c0,2.2-0.6,2.8-2.8,2.8c-8.2,0-8.2,0-8.2-8.3V300c0-8.3,0.1-16.7,0-25c0-1.9,0.5-2.4,2.4-2.5
		c8.6-0.1,8.6-0.2,8.6,8.3C195,295.5,194.9,310.1,195,324.7z"/>
	<path class="st7" d="M238.9,325c0,1.8-0.3,2.5-2.4,2.5c-8.6,0.1-8.6,0.2-8.6-8.6c0-14.5,0-29,0-43.5c0-2.1,0.3-2.9,2.7-2.9
		c8.3,0.1,8.3,0,8.3,8.2v19.5C238.8,308.5,238.8,316.8,238.9,325z"/>
	<path class="st7" d="M282.8,313.6c0.1,2.5-0.7,3-3,2.9c-8-0.1-8,0-8-8.2v-8.6c0-4.6,0.1-9.1,0-13.7c0-1.8,0.2-2.6,2.3-2.6
		c8.7-0.1,8.7-0.2,8.7,8.5C282.7,299.2,282.6,306.4,282.8,313.6z"/>
	<path class="st7" d="M326.6,309c0.1,1.7-0.5,2-2.1,2.1c-8.9,0.3-8.9,0.4-8.9-8.3c0-3.8,0.1-7.5,0-11.3c-0.1-2,0.6-2.4,2.5-2.4
		c8.5-0.1,8.5-0.1,8.5,8.3v2.4C326.6,302.8,326.5,305.9,326.6,309z"/>
	<path class="st7" d="M151.2,324.7c0,2.2-0.6,2.8-2.8,2.8c-8.2,0-8.2,0-8.2-8.3v-19.5c0-8.2,0.1-16.4,0-24.7c0-1.9,0.5-2.4,2.4-2.5
		c8.6-0.1,8.6-0.2,8.6,8.3C151.1,295.5,151,310.1,151.2,324.7z"/>
	<path class="st7" d="M195,324.7c0,2.2-0.6,2.8-2.8,2.8c-8.2,0-8.2,0-8.2-8.3V300c0-8.3,0.1-16.7,0-25c0-1.9,0.5-2.4,2.4-2.5
		c8.6-0.1,8.6-0.2,8.6,8.3C195,295.5,194.9,310.1,195,324.7z"/>
	<path class="st7" d="M238.9,325c0,1.8-0.3,2.5-2.4,2.5c-8.6,0.1-8.6,0.2-8.6-8.6c0-14.5,0-29,0-43.5c0-2.1,0.3-2.9,2.7-2.9
		c8.3,0.1,8.3,0,8.3,8.2v19.5C238.8,308.5,238.8,316.8,238.9,325z"/>
	<path class="st7" d="M282.8,313.6c0.1,2.5-0.7,3-3,2.9c-8-0.1-8,0-8-8.2v-8.6c0-4.6,0.1-9.1,0-13.7c0-1.8,0.2-2.6,2.3-2.6
		c8.7-0.1,8.7-0.2,8.7,8.5C282.7,299.2,282.6,306.4,282.8,313.6z"/>
	<path class="st7" d="M326.6,309c0.1,1.7-0.5,2-2.1,2.1c-8.9,0.3-8.9,0.4-8.9-8.3c0-3.8,0.1-7.5,0-11.3c-0.1-2,0.6-2.4,2.5-2.4
		c8.5-0.1,8.5-0.1,8.5,8.3v2.4C326.6,302.8,326.5,305.9,326.6,309z"/>
</g>
</svg>
