<?xml version="1.0" encoding="utf-8"?>
<!-- Generator: Adobe Illustrator 24.3.0, SVG Export Plug-In . SVG Version: 6.00 Build 0)  -->
<svg version="1.1" id="Layer_1" xmlns="http://www.w3.org/2000/svg" xmlns:xlink="http://www.w3.org/1999/xlink" x="0px" y="0px"
	 viewBox="0 0 386.1 317.3" style="enable-background:new 0 0 386.1 317.3;" xml:space="preserve">
<style type="text/css">
	.st0{fill:#0071B2;}
	.st1{fill:#F39418;}
	.st2{fill:#0CA438;}
	.st3{fill:#696969;}
	.st4{fill:#444343;}
	.st5{fill:#1D3662;}
	.st6{fill:#1C3661;}
	.st7{fill:#676767;}
</style>
<g>
	<path class="st4" d="M271.4,168.6h-9.8c-4.4-30.1-28.2-54.1-58.3-58.6V99.1c0-5.6-4.5-10-10-10s-10,4.5-10,10v10.7
		c-30.5,4.2-54.7,28.3-59.1,58.7h-8.6c-5.6,0-10,4.5-10,10c0,5.6,4.5,10,10,10h8.6c4.4,30.6,28.9,54.7,59.6,58.8v9.2
		c0,5.6,4.5,10,10,10c5.6,0,10-4.5,10-10v-9.4c29.9-4.7,53.4-28.6,57.8-58.6h9.8c5.6,0,10-4.5,10-10
		C281.5,173.1,277,168.6,271.4,168.6z M203.8,229.5v-11.3c0-5.6-4.5-10-10-10c-5.6,0-10,4.5-10,10v11.6c-21-3.8-37.7-20.2-41.8-41.1
		H154c5.6,0,10-4.5,10-10c0-5.6-4.5-10-10-10h-12.2c4.1-20.8,20.6-37.1,41.4-41v10c0,5.6,4.5,10,10,10s10-4.5,10-10v-9.9
		c20.4,4.2,36.5,20.4,40.5,40.9H233c-5.6,0-10,4.5-10,10c0,5.6,4.5,10,10,10h10.9C239.9,209,224,225.2,203.8,229.5z"/>
	<circle class="st4" cx="192.9" cy="178.7" r="11"/>
</g>
<path class="st4" d="M357.8,153.6l-55.9-49V22.3c0-5.9-4.8-10.7-10.7-10.7h-4h-4.8h-19.6h-1.1h-7.8c-5.9,0-10.7,4.8-10.7,10.7v30.6
	l-43.8-38.5c-1.5-1.3-3.4-2-5.3-2.2c0,0-0.1,0-0.1,0c-0.2,0-0.3,0-0.5,0c-0.2,0-0.3,0-0.5,0c0,0-0.1,0-0.1,0
	c-1.9,0.1-3.7,0.8-5.3,2.2L29,153.6c-3.7,3.2-4,8.8-0.8,12.4c3.2,3.7,8.8,4,12.4,0.8l25.7-22.5V298c0,4.5,3.7,8.2,8.2,8.2h8.5h2.7
	H302h11.2c4.5,0,8.2-3.7,8.2-8.2V145.1l24.8,21.7c3.7,3.2,9.2,2.8,12.4-0.8C361.8,162.4,361.4,156.8,357.8,153.6z M262.7,31.3h19.6
	v56.1l-19.6-17.2V31.3z M85.6,286V127.2l107.7-94.6L302,128.1v158H85.6z"/>
</svg>
