<?xml version="1.0" encoding="utf-8"?>
<!-- Generator: Adobe Illustrator 24.3.0, SVG Export Plug-In . SVG Version: 6.00 Build 0)  -->
<svg version="1.1" id="Layer_1" xmlns="http://www.w3.org/2000/svg" xmlns:xlink="http://www.w3.org/1999/xlink" x="0px" y="0px"
	 viewBox="0 0 504 372" style="enable-background:new 0 0 504 372;" xml:space="preserve">
<style type="text/css">
	.st0{fill:#0071B2;}
	.st1{fill:#F39418;}
	.st2{fill:#0CA438;}
	.st3{fill:#696969;}
	.st4{fill:#8027B7;}
	.st5{fill:#1D3662;}
	.st6{fill:#1C3661;}
</style>
<g>
	<path class="st6" d="M428.7,313.5h-22.4V179.7C420,175.2,430,162.3,430,147v-28.7c0-18.6-15.1-33.8-33.8-33.8H371h-9.8h-4.6V64.3
		c0-18.7-15.2-33.8-33.8-33.8H175.9c-18.7,0-33.8,15.2-33.8,33.8v20.3h-7.4h-9.3H99.7c-18.6,0-33.8,15.1-33.8,33.8V147
		c0,16.1,11.1,29.6,26,33.3v133.1H68.3c-9.2,0-16.7,7.5-16.7,16.7v0.7c0,9.2,7.5,16.7,16.7,16.7h360.5c9.2,0,16.7-7.5,16.7-16.7
		v-0.7C445.5,321,438,313.5,428.7,313.5z M371,94.3h25.2c13.2,0,24,10.8,24,24V147c0,13.6-11,24.6-24.6,24.6
		c-13.6,0-24.6-11-24.6-24.6V94.3z M361.2,94.3V147c0,13.6-11,24.6-24.6,24.6s-24.6-11-24.6-24.6V94.3h44.6H361.2z M302.3,147
		c0,13.6-11,24.6-24.6,24.6s-24.6-11-24.6-24.6V94.3h49.2V147z M243.3,147c0,13.6-11,24.6-24.6,24.6s-24.6-11-24.6-24.6V94.3h49.2
		V147z M151.9,64.3c0-13.3,10.8-24.1,24.1-24.1h146.9c13.3,0,24.1,10.8,24.1,24.1v20.3h-34.8h-9.8h-49.2h-9.8h-49.2h-9.8h-32.5V64.3
		z M135.2,94.3h6.9h42.3V147c0,13.6-11,24.6-24.6,24.6s-24.6-11-24.6-24.6V94.3z M75.7,147v-28.7c0-13.2,10.8-24,24-24h25.2V147
		c0,13.6-11,24.6-24.6,24.6S75.7,160.6,75.7,147z M101.7,181.4c12.1-0.5,22.6-7.2,28.3-17.1c6,10.2,17,17.2,29.7,17.2
		c12.5,0,23.5-6.7,29.5-16.7c6,10,17,16.7,29.5,16.7s23.5-6.7,29.5-16.7c6,10,17,16.7,29.5,16.7c12.5,0,23.5-6.7,29.5-16.7
		c6,10,17,16.7,29.5,16.7s23.5-6.7,29.5-16.7c6,10,17,16.7,29.5,16.7c0.3,0,0.6,0,0.9,0v132.1H249.4v-88.7
		c0-15.6-12.7-28.3-28.3-28.3H141c-15.6,0-28.3,12.7-28.3,28.3v88.7h-10.9V181.4z M122.4,313.5v-88.7c0-10.2,8.3-18.5,18.5-18.5
		h35.2v107.3H122.4z M185.9,206.2h35.2c10.2,0,18.5,8.3,18.5,18.5v88.7h-53.7V206.2z M435.7,331c0,3.8-3.1,6.9-6.9,6.9H68.3
		c-3.8,0-6.9-3.1-6.9-6.9v-0.7c0-3.8,3.1-6.9,6.9-6.9h44.4h136.8h179.3c3.8,0,6.9,3.1,6.9,6.9V331z"/>
	<path class="st6" d="M383.1,230.1c0-17.5-14.3-31.8-31.8-31.8h-59.7c-17.5,0-31.8,14.3-31.8,31.8v44.6h123.3V230.1z M373.3,264.9
		H269.6v-34.8c0-12.1,9.9-22,22-22h59.7c12.1,0,22,9.9,22,22V264.9z"/>
</g>
</svg>
