<?xml version="1.0" encoding="utf-8"?>
<!-- Generator: Adobe Illustrator 24.3.0, SVG Export Plug-In . SVG Version: 6.00 Build 0)  -->
<svg version="1.1" id="Layer_1" xmlns="http://www.w3.org/2000/svg" xmlns:xlink="http://www.w3.org/1999/xlink" x="0px" y="0px"
	 viewBox="0 0 298.6 372" style="enable-background:new 0 0 298.6 372;" xml:space="preserve">
<style type="text/css">
	.st0{fill:#0071B2;}
	.st1{fill:#F39418;}
	.st2{fill:#0CA438;}
	.st3{fill:#696969;}
	.st4{fill:#8027B7;}
	.st5{fill:#1D3662;}
	.st6{fill:#1C3661;}
	.st7{fill:#444343;}
</style>
<path class="st7" d="M76.6,209.2c-11.7,0-21.4,9.7-21.5,21.5c-0.1,11.9,9.6,21.7,21.5,21.6c11.8,0,21.4-9.6,21.6-21.4
	C98.4,219.2,88.3,209.2,76.6,209.2z M76.6,242.6c-6.5-0.1-11.8-5.5-11.7-11.9c0.1-6.5,5.4-11.7,11.9-11.7c6.5,0,11.7,5.3,11.7,11.8
	C88.4,237.4,83,242.7,76.6,242.6z M76.6,209.2c-11.7,0-21.4,9.7-21.5,21.5c-0.1,11.9,9.6,21.7,21.5,21.6c11.8,0,21.4-9.6,21.6-21.4
	C98.4,219.2,88.3,209.2,76.6,209.2z M76.6,242.6c-6.5-0.1-11.8-5.5-11.7-11.9c0.1-6.5,5.4-11.7,11.9-11.7c6.5,0,11.7,5.3,11.7,11.8
	C88.4,237.4,83,242.7,76.6,242.6z M76.6,209.2c-11.7,0-21.4,9.7-21.5,21.5c-0.1,11.9,9.6,21.7,21.5,21.6c11.8,0,21.4-9.6,21.6-21.4
	C98.4,219.2,88.3,209.2,76.6,209.2z M76.6,242.6c-6.5-0.1-11.8-5.5-11.7-11.9c0.1-6.5,5.4-11.7,11.9-11.7c6.5,0,11.7,5.3,11.7,11.8
	C88.4,237.4,83,242.7,76.6,242.6z M76.6,209.2c-11.7,0-21.4,9.7-21.5,21.5c-0.1,11.9,9.6,21.7,21.5,21.6c11.8,0,21.4-9.6,21.6-21.4
	C98.4,219.2,88.3,209.2,76.6,209.2z M76.6,242.6c-6.5-0.1-11.8-5.5-11.7-11.9c0.1-6.5,5.4-11.7,11.9-11.7c6.5,0,11.7,5.3,11.7,11.8
	C88.4,237.4,83,242.7,76.6,242.6z M89.9,292.5c-4.4-0.1-8.8,0-13.2,0c-4.4,0-8.8,0-13.2,0c-3.4,0-5.5,2-5.5,4.8c0,2.7,2,4.8,5.1,4.9
	c9,0.1,18,0.2,27.1,0c3.3,0,5.4-2.4,5.2-5.2C95.1,294.2,93.2,292.5,89.9,292.5z M76.6,209.2c-11.7,0-21.4,9.7-21.5,21.5
	c-0.1,11.9,9.6,21.7,21.5,21.6c11.8,0,21.4-9.6,21.6-21.4C98.4,219.2,88.3,209.2,76.6,209.2z M76.6,242.6
	c-6.5-0.1-11.8-5.5-11.7-11.9c0.1-6.5,5.4-11.7,11.9-11.7c6.5,0,11.7,5.3,11.7,11.8C88.4,237.4,83,242.7,76.6,242.6z M167.8,303.4
	c-11.9-0.1-23.8-0.1-35.7,0c-3.7,0-5.6,2.1-5.5,5.2c0.2,2.9,2.1,4.5,5.7,4.5c5.7,0,11.5,0,17.2,0c5.9,0,11.9,0,17.8,0
	c3.8,0,5.8-1.8,5.8-4.8C173.2,305.4,171.3,303.4,167.8,303.4z M167.1,288c-11.5,0-22.9,0-34.4,0c-4,0-6.2,1.8-6.2,4.9
	c0,3.1,2.2,4.9,6.1,4.9c5.6,0,11.2,0,16.9,0c5.8,0,11.7,0,17.5,0c4,0,6.1-1.8,6.2-4.9C173.2,289.8,171.1,288,167.1,288z
	 M168.4,187.2c-12.3-0.1-24.7-0.1-37,0c-5.8,0-9,3.2-9,9.1c0,9.1,0.2,18.3,0.5,27.4c0.2,6.2,3.4,9.2,9.5,9.3c5.8,0,11.7,0,17.5,0
	c6,0,11.9,0.1,17.8,0c5.6-0.1,8.9-3.1,9.1-8.7c0.3-9.4,0.5-18.7,0.5-28.1C177.4,190.4,174.2,187.2,168.4,187.2z M167.2,221
	c0,1.9-0.7,2.1-2.3,2.1c-10-0.1-20-0.1-30,0c-1.8,0-2.2-0.5-2.2-2.2c0-7.1-0.1-14.3-0.5-21.4c-0.1-2.3,0.7-2.8,2.8-2.7
	c5.1,0.1,10.1,0,15.2,0c5,0,9.9,0.1,14.8,0c1.9,0,2.8,0.2,2.7,2.5C167.4,206.5,167.2,213.8,167.2,221z M172.2,142.7
	c-7.1-2.9-14.5-4.4-22.2-4.4c-7.8,0-15.3,1.5-22.5,4.4c-5.6,2.2-8.5,6.4-8.7,12.4c-0.1,1.8,0.2,3.5,0.1,5.3
	c-0.4,11.1,6.3,13.3,14.4,8.1c9-5.7,19.1-6,29.1-2c2.9,1.1,5.4,2.9,8.2,4.2c4.4,2,9-0.3,9.7-5.1c0.5-3.4,0.6-6.8,0.6-10.2
	C181,149.2,177.9,145,172.2,142.7z M170.9,159.6c-13.9-7-27.9-7.2-41.8-0.1c-1.2-6.1-0.9-6.7,4.8-8.7c10.4-3.6,20.9-3.6,31.4-0.2
	C171.5,152.6,171.5,152.7,170.9,159.6z M172.2,142.7c-7.1-2.9-14.5-4.4-22.2-4.4c-7.8,0-15.3,1.5-22.5,4.4
	c-5.6,2.2-8.5,6.4-8.7,12.4c-0.1,1.8,0.2,3.5,0.1,5.3c-0.4,11.1,6.3,13.3,14.4,8.1c9-5.7,19.1-6,29.1-2c2.9,1.1,5.4,2.9,8.2,4.2
	c4.4,2,9-0.3,9.7-5.1c0.5-3.4,0.6-6.8,0.6-10.2C181,149.2,177.9,145,172.2,142.7z M170.9,159.6c-13.9-7-27.9-7.2-41.8-0.1
	c-1.2-6.1-0.9-6.7,4.8-8.7c10.4-3.6,20.9-3.6,31.4-0.2C171.5,152.6,171.5,152.7,170.9,159.6z M168.4,187.2c-12.3-0.1-24.7-0.1-37,0
	c-5.8,0-9,3.2-9,9.1c0,9.1,0.2,18.3,0.5,27.4c0.2,6.2,3.4,9.2,9.5,9.3c5.8,0,11.7,0,17.5,0c6,0,11.9,0.1,17.8,0
	c5.6-0.1,8.9-3.1,9.1-8.7c0.3-9.4,0.5-18.7,0.5-28.1C177.4,190.4,174.2,187.2,168.4,187.2z M167.2,221c0,1.9-0.7,2.1-2.3,2.1
	c-10-0.1-20-0.1-30,0c-1.8,0-2.2-0.5-2.2-2.2c0-7.1-0.1-14.3-0.5-21.4c-0.1-2.3,0.7-2.8,2.8-2.7c5.1,0.1,10.1,0,15.2,0
	c5,0,9.9,0.1,14.8,0c1.9,0,2.8,0.2,2.7,2.5C167.4,206.5,167.2,213.8,167.2,221z M167.1,288c-11.5,0-22.9,0-34.4,0
	c-4,0-6.2,1.8-6.2,4.9c0,3.1,2.2,4.9,6.1,4.9c5.6,0,11.2,0,16.9,0c5.8,0,11.7,0,17.5,0c4,0,6.1-1.8,6.2-4.9
	C173.2,289.8,171.1,288,167.1,288z M167.8,303.4c-11.9-0.1-23.8-0.1-35.7,0c-3.7,0-5.6,2.1-5.5,5.2c0.2,2.9,2.1,4.5,5.7,4.5
	c5.7,0,11.5,0,17.2,0c5.9,0,11.9,0,17.8,0c3.8,0,5.8-1.8,5.8-4.8C173.2,305.4,171.3,303.4,167.8,303.4z M89.9,292.5
	c-4.4-0.1-8.8,0-13.2,0c-4.4,0-8.8,0-13.2,0c-3.4,0-5.5,2-5.5,4.8c0,2.7,2,4.8,5.1,4.9c9,0.1,18,0.2,27.1,0c3.3,0,5.4-2.4,5.2-5.2
	C95.1,294.2,93.2,292.5,89.9,292.5z M76.6,209.2c-11.7,0-21.4,9.7-21.5,21.5c-0.1,11.9,9.6,21.7,21.5,21.6
	c11.8,0,21.4-9.6,21.6-21.4C98.4,219.2,88.3,209.2,76.6,209.2z M76.6,242.6c-6.5-0.1-11.8-5.5-11.7-11.9c0.1-6.5,5.4-11.7,11.9-11.7
	c6.5,0,11.7,5.3,11.7,11.8C88.4,237.4,83,242.7,76.6,242.6z M89.9,292.5c-4.4-0.1-8.8,0-13.2,0c-4.4,0-8.8,0-13.2,0
	c-3.4,0-5.5,2-5.5,4.8c0,2.7,2,4.8,5.1,4.9c9,0.1,18,0.2,27.1,0c3.3,0,5.4-2.4,5.2-5.2C95.1,294.2,93.2,292.5,89.9,292.5z
	 M76.6,209.2c-11.7,0-21.4,9.7-21.5,21.5c-0.1,11.9,9.6,21.7,21.5,21.6c11.8,0,21.4-9.6,21.6-21.4C98.4,219.2,88.3,209.2,76.6,209.2
	z M76.6,242.6c-6.5-0.1-11.8-5.5-11.7-11.9c0.1-6.5,5.4-11.7,11.9-11.7c6.5,0,11.7,5.3,11.7,11.8C88.4,237.4,83,242.7,76.6,242.6z
	 M167.8,303.4c-11.9-0.1-23.8-0.1-35.7,0c-3.7,0-5.6,2.1-5.5,5.2c0.2,2.9,2.1,4.5,5.7,4.5c5.7,0,11.5,0,17.2,0c5.9,0,11.9,0,17.8,0
	c3.8,0,5.8-1.8,5.8-4.8C173.2,305.4,171.3,303.4,167.8,303.4z M167.1,288c-11.5,0-22.9,0-34.4,0c-4,0-6.2,1.8-6.2,4.9
	c0,3.1,2.2,4.9,6.1,4.9c5.6,0,11.2,0,16.9,0c5.8,0,11.7,0,17.5,0c4,0,6.1-1.8,6.2-4.9C173.2,289.8,171.1,288,167.1,288z
	 M168.4,187.2c-12.3-0.1-24.7-0.1-37,0c-5.8,0-9,3.2-9,9.1c0,9.1,0.2,18.3,0.5,27.4c0.2,6.2,3.4,9.2,9.5,9.3c5.8,0,11.7,0,17.5,0
	c6,0,11.9,0.1,17.8,0c5.6-0.1,8.9-3.1,9.1-8.7c0.3-9.4,0.5-18.7,0.5-28.1C177.4,190.4,174.2,187.2,168.4,187.2z M167.2,221
	c0,1.9-0.7,2.1-2.3,2.1c-10-0.1-20-0.1-30,0c-1.8,0-2.2-0.5-2.2-2.2c0-7.1-0.1-14.3-0.5-21.4c-0.1-2.3,0.7-2.8,2.8-2.7
	c5.1,0.1,10.1,0,15.2,0c5,0,9.9,0.1,14.8,0c1.9,0,2.8,0.2,2.7,2.5C167.4,206.5,167.2,213.8,167.2,221z M172.2,142.7
	c-7.1-2.9-14.5-4.4-22.2-4.4c-7.8,0-15.3,1.5-22.5,4.4c-5.6,2.2-8.5,6.4-8.7,12.4c-0.1,1.8,0.2,3.5,0.1,5.3
	c-0.4,11.1,6.3,13.3,14.4,8.1c9-5.7,19.1-6,29.1-2c2.9,1.1,5.4,2.9,8.2,4.2c4.4,2,9-0.3,9.7-5.1c0.5-3.4,0.6-6.8,0.6-10.2
	C181,149.2,177.9,145,172.2,142.7z M170.9,159.6c-13.9-7-27.9-7.2-41.8-0.1c-1.2-6.1-0.9-6.7,4.8-8.7c10.4-3.6,20.9-3.6,31.4-0.2
	C171.5,152.6,171.5,152.7,170.9,159.6z M172.2,142.7c-7.1-2.9-14.5-4.4-22.2-4.4c-7.8,0-15.3,1.5-22.5,4.4
	c-5.6,2.2-8.5,6.4-8.7,12.4c-0.1,1.8,0.2,3.5,0.1,5.3c-0.4,11.1,6.3,13.3,14.4,8.1c9-5.7,19.1-6,29.1-2c2.9,1.1,5.4,2.9,8.2,4.2
	c4.4,2,9-0.3,9.7-5.1c0.5-3.4,0.6-6.8,0.6-10.2C181,149.2,177.9,145,172.2,142.7z M170.9,159.6c-13.9-7-27.9-7.2-41.8-0.1
	c-1.2-6.1-0.9-6.7,4.8-8.7c10.4-3.6,20.9-3.6,31.4-0.2C171.5,152.6,171.5,152.7,170.9,159.6z M168.4,187.2c-12.3-0.1-24.7-0.1-37,0
	c-5.8,0-9,3.2-9,9.1c0,9.1,0.2,18.3,0.5,27.4c0.2,6.2,3.4,9.2,9.5,9.3c5.8,0,11.7,0,17.5,0c6,0,11.9,0.1,17.8,0
	c5.6-0.1,8.9-3.1,9.1-8.7c0.3-9.4,0.5-18.7,0.5-28.1C177.4,190.4,174.2,187.2,168.4,187.2z M167.2,221c0,1.9-0.7,2.1-2.3,2.1
	c-10-0.1-20-0.1-30,0c-1.8,0-2.2-0.5-2.2-2.2c0-7.1-0.1-14.3-0.5-21.4c-0.1-2.3,0.7-2.8,2.8-2.7c5.1,0.1,10.1,0,15.2,0
	c5,0,9.9,0.1,14.8,0c1.9,0,2.8,0.2,2.7,2.5C167.4,206.5,167.2,213.8,167.2,221z M167.1,288c-11.5,0-22.9,0-34.4,0
	c-4,0-6.2,1.8-6.2,4.9c0,3.1,2.2,4.9,6.1,4.9c5.6,0,11.2,0,16.9,0c5.8,0,11.7,0,17.5,0c4,0,6.1-1.8,6.2-4.9
	C173.2,289.8,171.1,288,167.1,288z M167.8,303.4c-11.9-0.1-23.8-0.1-35.7,0c-3.7,0-5.6,2.1-5.5,5.2c0.2,2.9,2.1,4.5,5.7,4.5
	c5.7,0,11.5,0,17.2,0c5.9,0,11.9,0,17.8,0c3.8,0,5.8-1.8,5.8-4.8C173.2,305.4,171.3,303.4,167.8,303.4z M89.9,292.5
	c-4.4-0.1-8.8,0-13.2,0c-4.4,0-8.8,0-13.2,0c-3.4,0-5.5,2-5.5,4.8c0,2.7,2,4.8,5.1,4.9c9,0.1,18,0.2,27.1,0c3.3,0,5.4-2.4,5.2-5.2
	C95.1,294.2,93.2,292.5,89.9,292.5z M76.6,209.2c-11.7,0-21.4,9.7-21.5,21.5c-0.1,11.9,9.6,21.7,21.5,21.6
	c11.8,0,21.4-9.6,21.6-21.4C98.4,219.2,88.3,209.2,76.6,209.2z M76.6,242.6c-6.5-0.1-11.8-5.5-11.7-11.9c0.1-6.5,5.4-11.7,11.9-11.7
	c6.5,0,11.7,5.3,11.7,11.8C88.4,237.4,83,242.7,76.6,242.6z M89.9,292.5c-4.4-0.1-8.8,0-13.2,0c-4.4,0-8.8,0-13.2,0
	c-3.4,0-5.5,2-5.5,4.8c0,2.7,2,4.8,5.1,4.9c9,0.1,18,0.2,27.1,0c3.3,0,5.4-2.4,5.2-5.2C95.1,294.2,93.2,292.5,89.9,292.5z
	 M76.6,209.2c-11.7,0-21.4,9.7-21.5,21.5c-0.1,11.9,9.6,21.7,21.5,21.6c11.8,0,21.4-9.6,21.6-21.4C98.4,219.2,88.3,209.2,76.6,209.2
	z M76.6,242.6c-6.5-0.1-11.8-5.5-11.7-11.9c0.1-6.5,5.4-11.7,11.9-11.7c6.5,0,11.7,5.3,11.7,11.8C88.4,237.4,83,242.7,76.6,242.6z
	 M167.8,303.4c-11.9-0.1-23.8-0.1-35.7,0c-3.7,0-5.6,2.1-5.5,5.2c0.2,2.9,2.1,4.5,5.7,4.5c5.7,0,11.5,0,17.2,0c5.9,0,11.9,0,17.8,0
	c3.8,0,5.8-1.8,5.8-4.8C173.2,305.4,171.3,303.4,167.8,303.4z M167.1,288c-11.5,0-22.9,0-34.4,0c-4,0-6.2,1.8-6.2,4.9
	c0,3.1,2.2,4.9,6.1,4.9c5.6,0,11.2,0,16.9,0c5.8,0,11.7,0,17.5,0c4,0,6.1-1.8,6.2-4.9C173.2,289.8,171.1,288,167.1,288z
	 M168.4,187.2c-12.3-0.1-24.7-0.1-37,0c-5.8,0-9,3.2-9,9.1c0,9.1,0.2,18.3,0.5,27.4c0.2,6.2,3.4,9.2,9.5,9.3c5.8,0,11.7,0,17.5,0
	c6,0,11.9,0.1,17.8,0c5.6-0.1,8.9-3.1,9.1-8.7c0.3-9.4,0.5-18.7,0.5-28.1C177.4,190.4,174.2,187.2,168.4,187.2z M167.2,221
	c0,1.9-0.7,2.1-2.3,2.1c-10-0.1-20-0.1-30,0c-1.8,0-2.2-0.5-2.2-2.2c0-7.1-0.1-14.3-0.5-21.4c-0.1-2.3,0.7-2.8,2.8-2.7
	c5.1,0.1,10.1,0,15.2,0c5,0,9.9,0.1,14.8,0c1.9,0,2.8,0.2,2.7,2.5C167.4,206.5,167.2,213.8,167.2,221z M172.2,142.7
	c-7.1-2.9-14.5-4.4-22.2-4.4c-7.8,0-15.3,1.5-22.5,4.4c-5.6,2.2-8.5,6.4-8.7,12.4c-0.1,1.8,0.2,3.5,0.1,5.3
	c-0.4,11.1,6.3,13.3,14.4,8.1c9-5.7,19.1-6,29.1-2c2.9,1.1,5.4,2.9,8.2,4.2c4.4,2,9-0.3,9.7-5.1c0.5-3.4,0.6-6.8,0.6-10.2
	C181,149.2,177.9,145,172.2,142.7z M170.9,159.6c-13.9-7-27.9-7.2-41.8-0.1c-1.2-6.1-0.9-6.7,4.8-8.7c10.4-3.6,20.9-3.6,31.4-0.2
	C171.5,152.6,171.5,152.7,170.9,159.6z M172.2,142.7c-7.1-2.9-14.5-4.4-22.2-4.4c-7.8,0-15.3,1.5-22.5,4.4
	c-5.6,2.2-8.5,6.4-8.7,12.4c-0.1,1.8,0.2,3.5,0.1,5.3c-0.4,11.1,6.3,13.3,14.4,8.1c9-5.7,19.1-6,29.1-2c2.9,1.1,5.4,2.9,8.2,4.2
	c4.4,2,9-0.3,9.7-5.1c0.5-3.4,0.6-6.8,0.6-10.2C181,149.2,177.9,145,172.2,142.7z M170.9,159.6c-13.9-7-27.9-7.2-41.8-0.1
	c-1.2-6.1-0.9-6.7,4.8-8.7c10.4-3.6,20.9-3.6,31.4-0.2C171.5,152.6,171.5,152.7,170.9,159.6z M168.4,187.2c-12.3-0.1-24.7-0.1-37,0
	c-5.8,0-9,3.2-9,9.1c0,9.1,0.2,18.3,0.5,27.4c0.2,6.2,3.4,9.2,9.5,9.3c5.8,0,11.7,0,17.5,0c6,0,11.9,0.1,17.8,0
	c5.6-0.1,8.9-3.1,9.1-8.7c0.3-9.4,0.5-18.7,0.5-28.1C177.4,190.4,174.2,187.2,168.4,187.2z M167.2,221c0,1.9-0.7,2.1-2.3,2.1
	c-10-0.1-20-0.1-30,0c-1.8,0-2.2-0.5-2.2-2.2c0-7.1-0.1-14.3-0.5-21.4c-0.1-2.3,0.7-2.8,2.8-2.7c5.1,0.1,10.1,0,15.2,0
	c5,0,9.9,0.1,14.8,0c1.9,0,2.8,0.2,2.7,2.5C167.4,206.5,167.2,213.8,167.2,221z M167.1,288c-11.5,0-22.9,0-34.4,0
	c-4,0-6.2,1.8-6.2,4.9c0,3.1,2.2,4.9,6.1,4.9c5.6,0,11.2,0,16.9,0c5.8,0,11.7,0,17.5,0c4,0,6.1-1.8,6.2-4.9
	C173.2,289.8,171.1,288,167.1,288z M167.8,303.4c-11.9-0.1-23.8-0.1-35.7,0c-3.7,0-5.6,2.1-5.5,5.2c0.2,2.9,2.1,4.5,5.7,4.5
	c5.7,0,11.5,0,17.2,0c5.9,0,11.9,0,17.8,0c3.8,0,5.8-1.8,5.8-4.8C173.2,305.4,171.3,303.4,167.8,303.4z M89.9,292.5
	c-4.4-0.1-8.8,0-13.2,0c-4.4,0-8.8,0-13.2,0c-3.4,0-5.5,2-5.5,4.8c0,2.7,2,4.8,5.1,4.9c9,0.1,18,0.2,27.1,0c3.3,0,5.4-2.4,5.2-5.2
	C95.1,294.2,93.2,292.5,89.9,292.5z M76.6,209.2c-11.7,0-21.4,9.7-21.5,21.5c-0.1,11.9,9.6,21.7,21.5,21.6
	c11.8,0,21.4-9.6,21.6-21.4C98.4,219.2,88.3,209.2,76.6,209.2z M76.6,242.6c-6.5-0.1-11.8-5.5-11.7-11.9c0.1-6.5,5.4-11.7,11.9-11.7
	c6.5,0,11.7,5.3,11.7,11.8C88.4,237.4,83,242.7,76.6,242.6z M89.9,292.5c-4.4-0.1-8.8,0-13.2,0c-4.4,0-8.8,0-13.2,0
	c-3.4,0-5.5,2-5.5,4.8c0,2.7,2,4.8,5.1,4.9c9,0.1,18,0.2,27.1,0c3.3,0,5.4-2.4,5.2-5.2C95.1,294.2,93.2,292.5,89.9,292.5z
	 M76.6,209.2c-11.7,0-21.4,9.7-21.5,21.5c-0.1,11.9,9.6,21.7,21.5,21.6c11.8,0,21.4-9.6,21.6-21.4C98.4,219.2,88.3,209.2,76.6,209.2
	z M76.6,242.6c-6.5-0.1-11.8-5.5-11.7-11.9c0.1-6.5,5.4-11.7,11.9-11.7c6.5,0,11.7,5.3,11.7,11.8C88.4,237.4,83,242.7,76.6,242.6z
	 M167.8,303.4c-11.9-0.1-23.8-0.1-35.7,0c-3.7,0-5.6,2.1-5.5,5.2c0.2,2.9,2.1,4.5,5.7,4.5c5.7,0,11.5,0,17.2,0c5.9,0,11.9,0,17.8,0
	c3.8,0,5.8-1.8,5.8-4.8C173.2,305.4,171.3,303.4,167.8,303.4z M167.1,288c-11.5,0-22.9,0-34.4,0c-4,0-6.2,1.8-6.2,4.9
	c0,3.1,2.2,4.9,6.1,4.9c5.6,0,11.2,0,16.9,0c5.8,0,11.7,0,17.5,0c4,0,6.1-1.8,6.2-4.9C173.2,289.8,171.1,288,167.1,288z
	 M168.4,187.2c-12.3-0.1-24.7-0.1-37,0c-5.8,0-9,3.2-9,9.1c0,9.1,0.2,18.3,0.5,27.4c0.2,6.2,3.4,9.2,9.5,9.3c5.8,0,11.7,0,17.5,0
	c6,0,11.9,0.1,17.8,0c5.6-0.1,8.9-3.1,9.1-8.7c0.3-9.4,0.5-18.7,0.5-28.1C177.4,190.4,174.2,187.2,168.4,187.2z M167.2,221
	c0,1.9-0.7,2.1-2.3,2.1c-10-0.1-20-0.1-30,0c-1.8,0-2.2-0.5-2.2-2.2c0-7.1-0.1-14.3-0.5-21.4c-0.1-2.3,0.7-2.8,2.8-2.7
	c5.1,0.1,10.1,0,15.2,0c5,0,9.9,0.1,14.8,0c1.9,0,2.8,0.2,2.7,2.5C167.4,206.5,167.2,213.8,167.2,221z M172.2,142.7
	c-7.1-2.9-14.5-4.4-22.2-4.4c-7.8,0-15.3,1.5-22.5,4.4c-5.6,2.2-8.5,6.4-8.7,12.4c-0.1,1.8,0.2,3.5,0.1,5.3
	c-0.4,11.1,6.3,13.3,14.4,8.1c9-5.7,19.1-6,29.1-2c2.9,1.1,5.4,2.9,8.2,4.2c4.4,2,9-0.3,9.7-5.1c0.5-3.4,0.6-6.8,0.6-10.2
	C181,149.2,177.9,145,172.2,142.7z M170.9,159.6c-13.9-7-27.9-7.2-41.8-0.1c-1.2-6.1-0.9-6.7,4.8-8.7c10.4-3.6,20.9-3.6,31.4-0.2
	C171.5,152.6,171.5,152.7,170.9,159.6z M172.2,142.7c-7.1-2.9-14.5-4.4-22.2-4.4c-7.8,0-15.3,1.5-22.5,4.4
	c-5.6,2.2-8.5,6.4-8.7,12.4c-0.1,1.8,0.2,3.5,0.1,5.3c-0.4,11.1,6.3,13.3,14.4,8.1c9-5.7,19.1-6,29.1-2c2.9,1.1,5.4,2.9,8.2,4.2
	c4.4,2,9-0.3,9.7-5.1c0.5-3.4,0.6-6.8,0.6-10.2C181,149.2,177.9,145,172.2,142.7z M170.9,159.6c-13.9-7-27.9-7.2-41.8-0.1
	c-1.2-6.1-0.9-6.7,4.8-8.7c10.4-3.6,20.9-3.6,31.4-0.2C171.5,152.6,171.5,152.7,170.9,159.6z M168.4,187.2c-12.3-0.1-24.7-0.1-37,0
	c-5.8,0-9,3.2-9,9.1c0,9.1,0.2,18.3,0.5,27.4c0.2,6.2,3.4,9.2,9.5,9.3c5.8,0,11.7,0,17.5,0c6,0,11.9,0.1,17.8,0
	c5.6-0.1,8.9-3.1,9.1-8.7c0.3-9.4,0.5-18.7,0.5-28.1C177.4,190.4,174.2,187.2,168.4,187.2z M167.2,221c0,1.9-0.7,2.1-2.3,2.1
	c-10-0.1-20-0.1-30,0c-1.8,0-2.2-0.5-2.2-2.2c0-7.1-0.1-14.3-0.5-21.4c-0.1-2.3,0.7-2.8,2.8-2.7c5.1,0.1,10.1,0,15.2,0
	c5,0,9.9,0.1,14.8,0c1.9,0,2.8,0.2,2.7,2.5C167.4,206.5,167.2,213.8,167.2,221z M167.1,288c-11.5,0-22.9,0-34.4,0
	c-4,0-6.2,1.8-6.2,4.9c0,3.1,2.2,4.9,6.1,4.9c5.6,0,11.2,0,16.9,0c5.8,0,11.7,0,17.5,0c4,0,6.1-1.8,6.2-4.9
	C173.2,289.8,171.1,288,167.1,288z M167.8,303.4c-11.9-0.1-23.8-0.1-35.7,0c-3.7,0-5.6,2.1-5.5,5.2c0.2,2.9,2.1,4.5,5.7,4.5
	c5.7,0,11.5,0,17.2,0c5.9,0,11.9,0,17.8,0c3.8,0,5.8-1.8,5.8-4.8C173.2,305.4,171.3,303.4,167.8,303.4z M89.9,292.5
	c-4.4-0.1-8.8,0-13.2,0c-4.4,0-8.8,0-13.2,0c-3.4,0-5.5,2-5.5,4.8c0,2.7,2,4.8,5.1,4.9c9,0.1,18,0.2,27.1,0c3.3,0,5.4-2.4,5.2-5.2
	C95.1,294.2,93.2,292.5,89.9,292.5z M76.6,209.2c-11.7,0-21.4,9.7-21.5,21.5c-0.1,11.9,9.6,21.7,21.5,21.6
	c11.8,0,21.4-9.6,21.6-21.4C98.4,219.2,88.3,209.2,76.6,209.2z M76.6,242.6c-6.5-0.1-11.8-5.5-11.7-11.9c0.1-6.5,5.4-11.7,11.9-11.7
	c6.5,0,11.7,5.3,11.7,11.8C88.4,237.4,83,242.7,76.6,242.6z M89.9,292.5c-4.4-0.1-8.8,0-13.2,0c-4.4,0-8.8,0-13.2,0
	c-3.4,0-5.5,2-5.5,4.8c0,2.7,2,4.8,5.1,4.9c9,0.1,18,0.2,27.1,0c3.3,0,5.4-2.4,5.2-5.2C95.1,294.2,93.2,292.5,89.9,292.5z
	 M76.6,209.2c-11.7,0-21.4,9.7-21.5,21.5c-0.1,11.9,9.6,21.7,21.5,21.6c11.8,0,21.4-9.6,21.6-21.4C98.4,219.2,88.3,209.2,76.6,209.2
	z M76.6,242.6c-6.5-0.1-11.8-5.5-11.7-11.9c0.1-6.5,5.4-11.7,11.9-11.7c6.5,0,11.7,5.3,11.7,11.8C88.4,237.4,83,242.7,76.6,242.6z
	 M167.8,303.4c-11.9-0.1-23.8-0.1-35.7,0c-3.7,0-5.6,2.1-5.5,5.2c0.2,2.9,2.1,4.5,5.7,4.5c5.7,0,11.5,0,17.2,0c5.9,0,11.9,0,17.8,0
	c3.8,0,5.8-1.8,5.8-4.8C173.2,305.4,171.3,303.4,167.8,303.4z M167.1,288c-11.5,0-22.9,0-34.4,0c-4,0-6.2,1.8-6.2,4.9
	c0,3.1,2.2,4.9,6.1,4.9c5.6,0,11.2,0,16.9,0c5.8,0,11.7,0,17.5,0c4,0,6.1-1.8,6.2-4.9C173.2,289.8,171.1,288,167.1,288z
	 M168.4,187.2c-12.3-0.1-24.7-0.1-37,0c-5.8,0-9,3.2-9,9.1c0,9.1,0.2,18.3,0.5,27.4c0.2,6.2,3.4,9.2,9.5,9.3c5.8,0,11.7,0,17.5,0
	c6,0,11.9,0.1,17.8,0c5.6-0.1,8.9-3.1,9.1-8.7c0.3-9.4,0.5-18.7,0.5-28.1C177.4,190.4,174.2,187.2,168.4,187.2z M167.2,221
	c0,1.9-0.7,2.1-2.3,2.1c-10-0.1-20-0.1-30,0c-1.8,0-2.2-0.5-2.2-2.2c0-7.1-0.1-14.3-0.5-21.4c-0.1-2.3,0.7-2.8,2.8-2.7
	c5.1,0.1,10.1,0,15.2,0c5,0,9.9,0.1,14.8,0c1.9,0,2.8,0.2,2.7,2.5C167.4,206.5,167.2,213.8,167.2,221z M172.2,142.7
	c-7.1-2.9-14.5-4.4-22.2-4.4c-7.8,0-15.3,1.5-22.5,4.4c-5.6,2.2-8.5,6.4-8.7,12.4c-0.1,1.8,0.2,3.5,0.1,5.3
	c-0.4,11.1,6.3,13.3,14.4,8.1c9-5.7,19.1-6,29.1-2c2.9,1.1,5.4,2.9,8.2,4.2c4.4,2,9-0.3,9.7-5.1c0.5-3.4,0.6-6.8,0.6-10.2
	C181,149.2,177.9,145,172.2,142.7z M170.9,159.6c-13.9-7-27.9-7.2-41.8-0.1c-1.2-6.1-0.9-6.7,4.8-8.7c10.4-3.6,20.9-3.6,31.4-0.2
	C171.5,152.6,171.5,152.7,170.9,159.6z M249.4,252c-11.2-10.7-33.1-11.6-45.2-2c-10.6,8.5-10.7,21.1-0.4,29.9
	c9.7,8.2,28.6,9.3,40.2,2.4c6.4-3.8,10.8-9,11.1-15.7C255.3,260.6,253.2,255.7,249.4,252z M240.9,272.7c-4.5,3.3-9.8,4.3-15.1,4.5
	c-5.6-0.3-11-1.3-15.5-4.8c-5.6-4.3-5.6-10.3,0-14.6c7.9-6.1,22.7-6.3,30.7-0.3C247,262.1,247,268.2,240.9,272.7z M249.9,299.1
	c-8,0-16.1,0-24.1,0s-16.1,0-24.1,0c-4.2,0-6.4,1.7-6.4,4.9c0,3.1,2.2,4.9,6.2,4.9c16.2,0,32.4,0,48.6,0c3.9,0,6.2-2,6.1-5
	C256.2,300.8,253.9,299.1,249.9,299.1z M249.9,299.1c-8,0-16.1,0-24.1,0s-16.1,0-24.1,0c-4.2,0-6.4,1.7-6.4,4.9
	c0,3.1,2.2,4.9,6.2,4.9c16.2,0,32.4,0,48.6,0c3.9,0,6.2-2,6.1-5C256.2,300.8,253.9,299.1,249.9,299.1z M249.4,252
	c-11.2-10.7-33.1-11.6-45.2-2c-10.6,8.5-10.7,21.1-0.4,29.9c9.7,8.2,28.6,9.3,40.2,2.4c6.4-3.8,10.8-9,11.1-15.7
	C255.3,260.6,253.2,255.7,249.4,252z M240.9,272.7c-4.5,3.3-9.8,4.3-15.1,4.5c-5.6-0.3-11-1.3-15.5-4.8c-5.6-4.3-5.6-10.3,0-14.6
	c7.9-6.1,22.7-6.3,30.7-0.3C247,262.1,247,268.2,240.9,272.7z M172.2,142.7c-7.1-2.9-14.5-4.4-22.2-4.4c-7.8,0-15.3,1.5-22.5,4.4
	c-5.6,2.2-8.5,6.4-8.7,12.4c-0.1,1.8,0.2,3.5,0.1,5.3c-0.4,11.1,6.3,13.3,14.4,8.1c9-5.7,19.1-6,29.1-2c2.9,1.1,5.4,2.9,8.2,4.2
	c4.4,2,9-0.3,9.7-5.1c0.5-3.4,0.6-6.8,0.6-10.2C181,149.2,177.9,145,172.2,142.7z M170.9,159.6c-13.9-7-27.9-7.2-41.8-0.1
	c-1.2-6.1-0.9-6.7,4.8-8.7c10.4-3.6,20.9-3.6,31.4-0.2C171.5,152.6,171.5,152.7,170.9,159.6z M168.4,187.2c-12.3-0.1-24.7-0.1-37,0
	c-5.8,0-9,3.2-9,9.1c0,9.1,0.2,18.3,0.5,27.4c0.2,6.2,3.4,9.2,9.5,9.3c5.8,0,11.7,0,17.5,0c6,0,11.9,0.1,17.8,0
	c5.6-0.1,8.9-3.1,9.1-8.7c0.3-9.4,0.5-18.7,0.5-28.1C177.4,190.4,174.2,187.2,168.4,187.2z M167.2,221c0,1.9-0.7,2.1-2.3,2.1
	c-10-0.1-20-0.1-30,0c-1.8,0-2.2-0.5-2.2-2.2c0-7.1-0.1-14.3-0.5-21.4c-0.1-2.3,0.7-2.8,2.8-2.7c5.1,0.1,10.1,0,15.2,0
	c5,0,9.9,0.1,14.8,0c1.9,0,2.8,0.2,2.7,2.5C167.4,206.5,167.2,213.8,167.2,221z M167.1,288c-11.5,0-22.9,0-34.4,0
	c-4,0-6.2,1.8-6.2,4.9c0,3.1,2.2,4.9,6.1,4.9c5.6,0,11.2,0,16.9,0c5.8,0,11.7,0,17.5,0c4,0,6.1-1.8,6.2-4.9
	C173.2,289.8,171.1,288,167.1,288z M167.8,303.4c-11.9-0.1-23.8-0.1-35.7,0c-3.7,0-5.6,2.1-5.5,5.2c0.2,2.9,2.1,4.5,5.7,4.5
	c5.7,0,11.5,0,17.2,0c5.9,0,11.9,0,17.8,0c3.8,0,5.8-1.8,5.8-4.8C173.2,305.4,171.3,303.4,167.8,303.4z M89.9,292.5
	c-4.4-0.1-8.8,0-13.2,0c-4.4,0-8.8,0-13.2,0c-3.4,0-5.5,2-5.5,4.8c0,2.7,2,4.8,5.1,4.9c9,0.1,18,0.2,27.1,0c3.3,0,5.4-2.4,5.2-5.2
	C95.1,294.2,93.2,292.5,89.9,292.5z M76.6,209.2c-11.7,0-21.4,9.7-21.5,21.5c-0.1,11.9,9.6,21.7,21.5,21.6
	c11.8,0,21.4-9.6,21.6-21.4C98.4,219.2,88.3,209.2,76.6,209.2z M76.6,242.6c-6.5-0.1-11.8-5.5-11.7-11.9c0.1-6.5,5.4-11.7,11.9-11.7
	c6.5,0,11.7,5.3,11.7,11.8C88.4,237.4,83,242.7,76.6,242.6z M89.9,292.5c-4.4-0.1-8.8,0-13.2,0c-4.4,0-8.8,0-13.2,0
	c-3.4,0-5.5,2-5.5,4.8c0,2.7,2,4.8,5.1,4.9c9,0.1,18,0.2,27.1,0c3.3,0,5.4-2.4,5.2-5.2C95.1,294.2,93.2,292.5,89.9,292.5z
	 M76.6,209.2c-11.7,0-21.4,9.7-21.5,21.5c-0.1,11.9,9.6,21.7,21.5,21.6c11.8,0,21.4-9.6,21.6-21.4C98.4,219.2,88.3,209.2,76.6,209.2
	z M76.6,242.6c-6.5-0.1-11.8-5.5-11.7-11.9c0.1-6.5,5.4-11.7,11.9-11.7c6.5,0,11.7,5.3,11.7,11.8C88.4,237.4,83,242.7,76.6,242.6z
	 M167.8,303.4c-11.9-0.1-23.8-0.1-35.7,0c-3.7,0-5.6,2.1-5.5,5.2c0.2,2.9,2.1,4.5,5.7,4.5c5.7,0,11.5,0,17.2,0c5.9,0,11.9,0,17.8,0
	c3.8,0,5.8-1.8,5.8-4.8C173.2,305.4,171.3,303.4,167.8,303.4z M167.1,288c-11.5,0-22.9,0-34.4,0c-4,0-6.2,1.8-6.2,4.9
	c0,3.1,2.2,4.9,6.1,4.9c5.6,0,11.2,0,16.9,0c5.8,0,11.7,0,17.5,0c4,0,6.1-1.8,6.2-4.9C173.2,289.8,171.1,288,167.1,288z
	 M168.4,187.2c-12.3-0.1-24.7-0.1-37,0c-5.8,0-9,3.2-9,9.1c0,9.1,0.2,18.3,0.5,27.4c0.2,6.2,3.4,9.2,9.5,9.3c5.8,0,11.7,0,17.5,0
	c6,0,11.9,0.1,17.8,0c5.6-0.1,8.9-3.1,9.1-8.7c0.3-9.4,0.5-18.7,0.5-28.1C177.4,190.4,174.2,187.2,168.4,187.2z M167.2,221
	c0,1.9-0.7,2.1-2.3,2.1c-10-0.1-20-0.1-30,0c-1.8,0-2.2-0.5-2.2-2.2c0-7.1-0.1-14.3-0.5-21.4c-0.1-2.3,0.7-2.8,2.8-2.7
	c5.1,0.1,10.1,0,15.2,0c5,0,9.9,0.1,14.8,0c1.9,0,2.8,0.2,2.7,2.5C167.4,206.5,167.2,213.8,167.2,221z M172.2,142.7
	c-7.1-2.9-14.5-4.4-22.2-4.4c-7.8,0-15.3,1.5-22.5,4.4c-5.6,2.2-8.5,6.4-8.7,12.4c-0.1,1.8,0.2,3.5,0.1,5.3
	c-0.4,11.1,6.3,13.3,14.4,8.1c9-5.7,19.1-6,29.1-2c2.9,1.1,5.4,2.9,8.2,4.2c4.4,2,9-0.3,9.7-5.1c0.5-3.4,0.6-6.8,0.6-10.2
	C181,149.2,177.9,145,172.2,142.7z M170.9,159.6c-13.9-7-27.9-7.2-41.8-0.1c-1.2-6.1-0.9-6.7,4.8-8.7c10.4-3.6,20.9-3.6,31.4-0.2
	C171.5,152.6,171.5,152.7,170.9,159.6z M249.4,252c-11.2-10.7-33.1-11.6-45.2-2c-10.6,8.5-10.7,21.1-0.4,29.9
	c9.7,8.2,28.6,9.3,40.2,2.4c6.4-3.8,10.8-9,11.1-15.7C255.3,260.6,253.2,255.7,249.4,252z M240.9,272.7c-4.5,3.3-9.8,4.3-15.1,4.5
	c-5.6-0.3-11-1.3-15.5-4.8c-5.6-4.3-5.6-10.3,0-14.6c7.9-6.1,22.7-6.3,30.7-0.3C247,262.1,247,268.2,240.9,272.7z M249.9,299.1
	c-8,0-16.1,0-24.1,0s-16.1,0-24.1,0c-4.2,0-6.4,1.7-6.4,4.9c0,3.1,2.2,4.9,6.2,4.9c16.2,0,32.4,0,48.6,0c3.9,0,6.2-2,6.1-5
	C256.2,300.8,253.9,299.1,249.9,299.1z M249.9,299.1c-8,0-16.1,0-24.1,0s-16.1,0-24.1,0c-4.2,0-6.4,1.7-6.4,4.9
	c0,3.1,2.2,4.9,6.2,4.9c16.2,0,32.4,0,48.6,0c3.9,0,6.2-2,6.1-5C256.2,300.8,253.9,299.1,249.9,299.1z M203.9,279.9
	c9.7,8.2,28.6,9.3,40.2,2.4c6.4-3.8,10.8-9,11.1-15.7c0.2-6-1.9-10.9-5.8-14.6c-11.2-10.7-33.1-11.6-45.2-2
	C193.6,258.5,193.5,271.2,203.9,279.9z M210.2,257.9c7.9-6.1,22.7-6.3,30.7-0.3c6.1,4.5,6.1,10.6,0,15.2c-4.5,3.3-9.8,4.3-15.1,4.5
	c-5.6-0.3-11-1.3-15.5-4.8C204.6,268.1,204.6,262.2,210.2,257.9z M172.2,142.7c-7.1-2.9-14.5-4.4-22.2-4.4c-7.8,0-15.3,1.5-22.5,4.4
	c-5.6,2.2-8.5,6.4-8.7,12.4c-0.1,1.8,0.2,3.5,0.1,5.3c-0.4,11.1,6.3,13.3,14.4,8.1c9-5.7,19.1-6,29.1-2c2.9,1.1,5.4,2.9,8.2,4.2
	c4.4,2,9-0.3,9.7-5.1c0.5-3.4,0.6-6.8,0.6-10.2C181,149.2,177.9,145,172.2,142.7z M170.9,159.6c-13.9-7-27.9-7.2-41.8-0.1
	c-1.2-6.1-0.9-6.7,4.8-8.7c10.4-3.6,20.9-3.6,31.4-0.2C171.5,152.6,171.5,152.7,170.9,159.6z M168.4,187.2c-12.3-0.1-24.7-0.1-37,0
	c-5.8,0-9,3.2-9,9.1c0,9.1,0.2,18.3,0.5,27.4c0.2,6.2,3.4,9.2,9.5,9.3c5.8,0,11.7,0,17.5,0c6,0,11.9,0.1,17.8,0
	c5.6-0.1,8.9-3.1,9.1-8.7c0.3-9.4,0.5-18.7,0.5-28.1C177.4,190.4,174.2,187.2,168.4,187.2z M167.2,221c0,1.9-0.7,2.1-2.3,2.1
	c-10-0.1-20-0.1-30,0c-1.8,0-2.2-0.5-2.2-2.2c0-7.1-0.1-14.3-0.5-21.4c-0.1-2.3,0.7-2.8,2.8-2.7c5.1,0.1,10.1,0,15.2,0
	c5,0,9.9,0.1,14.8,0c1.9,0,2.8,0.2,2.7,2.5C167.4,206.5,167.2,213.8,167.2,221z M167.1,288c-11.5,0-22.9,0-34.4,0
	c-4,0-6.2,1.8-6.2,4.9c0,3.1,2.2,4.9,6.1,4.9c5.6,0,11.2,0,16.9,0c5.8,0,11.7,0,17.5,0c4,0,6.1-1.8,6.2-4.9
	C173.2,289.8,171.1,288,167.1,288z M167.8,303.4c-11.9-0.1-23.8-0.1-35.7,0c-3.7,0-5.6,2.1-5.5,5.2c0.2,2.9,2.1,4.5,5.7,4.5
	c5.7,0,11.5,0,17.2,0c5.9,0,11.9,0,17.8,0c3.8,0,5.8-1.8,5.8-4.8C173.2,305.4,171.3,303.4,167.8,303.4z M89.9,292.5
	c-4.4-0.1-8.8,0-13.2,0c-4.4,0-8.8,0-13.2,0c-3.4,0-5.5,2-5.5,4.8c0,2.7,2,4.8,5.1,4.9c9,0.1,18,0.2,27.1,0c3.3,0,5.4-2.4,5.2-5.2
	C95.1,294.2,93.2,292.5,89.9,292.5z M76.6,209.2c-11.7,0-21.4,9.7-21.5,21.5c-0.1,11.9,9.6,21.7,21.5,21.6
	c11.8,0,21.4-9.6,21.6-21.4C98.4,219.2,88.3,209.2,76.6,209.2z M76.6,242.6c-6.5-0.1-11.8-5.5-11.7-11.9c0.1-6.5,5.4-11.7,11.9-11.7
	c6.5,0,11.7,5.3,11.7,11.8C88.4,237.4,83,242.7,76.6,242.6z M280.2,187.3c0-8.3-3-14.9-9.6-20c-6.2-4.8-12.3-9.7-18.4-14.6
	c-0.9-0.7-2-1.1-1.6-2.8c3.3-14.3,1.5-28.4-2.2-42.4c-0.3-1.3-1.3-2.6-0.1-4c1.3-1.6,1.5-3.6,1.4-5.7c0-8.7,0-17.4,0-26.1
	c0-6.2-2.8-9-9.1-9.1c-10-0.1-20.1-0.1-30.1,0c-6.2,0-9.1,3-9.1,9.2c0,8.6,0,17.2,0,25.8c0,1.7,0,3.5,0.9,4.8c1.4,1.9,1,3.6,0.4,5.6
	c-3.6,13.2-5.2,26.6-2.5,40.2c0.7,3.5-0.6,4.7-2.9,5.8c0-6.6-0.2-13.1,0-19.5c0.3-6.4-1.7-11.5-6.3-16c-5.5-5.3-10.6-10.9-16-16.3
	c-2.8-2.8-3.8-6.1-4.2-10c-0.5-4.7,2-8.7,2-13.2c0-18.2,0-36.4,0-54.6c0-6.6-2.9-9.5-9.5-9.5c-9,0-18.1,0-27.1,0
	c-6.6,0-9.5,2.9-9.5,9.4c0,18.2,0,36.4,0,54.6c0,1.8,0.2,3.5,0.9,5.2c2.5,5.8,1.1,13.8-3.3,18.3c-5.5,5.7-11,11.5-16.6,17.1
	c-3.8,3.8-5.6,8.3-5.4,13.7c0.1,2.5,0.2,5.1,0.2,7.6c0,9.6,0,19.1,0,28.6c-3.8-1.7-6.5-4.7-7.7-8.5c-0.6-2-1.2-3.9,1-5.6
	c1.4-1.1,1.7-3.1,1.7-4.9c0-7.8,0.1-15.7,0-23.5c-0.1-5.3-2.9-8.2-8.2-8.3c-8.5-0.1-17-0.1-25.5,0c-5.2,0.1-7.9,2.9-8,8.1
	c-0.1,7.9,0,15.9,0,23.8c0,2.1,0.5,4,2.1,5.3c1.4,1.2,1.2,2.4,0.8,3.8c-2,7.6-7.6,10.7-14.9,12.1c-9.9,2-16.4,8.2-19.2,17.9
	c-2.1,7.4-1,15.1-1,22.7c0,1.7,1.2,3,2.8,3.8c3.4,1.5,6.7-0.8,6.9-5c0.1-5.1-0.1-10.1,0.1-15.2c0.3-8.3,6.8-14.9,15.1-14.9
	c17.4-0.1,34.8,0,52.3-0.1c1.9,0,2.8,0.4,2.7,2.5c-0.1,3.3-0.1,6.6,0.2,9.9c0.2,2.4-0.7,2.9-2.9,2.9c-16.7-0.1-33.3-0.1-50,0
	c-9.2,0-13.4,4.1-13.4,13.2c0,32.3,0,64.6,0,96.9c0,8.1,3.5,11.6,11.7,11.6c17.6,0,35.3,0,52.9,0c1,0,2,0.1,3.6,0.2
	c-3.5,2.8-4.3,6.1-4.1,9.8c0.2,4.4,0,8.8,0.4,13.2c0.2,2.5-0.5,2.8-2.7,2.8c-19.7-0.1-39.5,0-59.2,0c-5.6,0-6.5-0.9-6.5-6.5
	c0-33.3,0-66.6,0-99.9c0-5.4-1.5-7.8-5-7.7c-3.4,0-4.8,2.4-4.8,7.9c0,32.8,0.1,65.7-0.1,98.6c-0.1,8.6,2.9,14.7,11.3,17.5h233.5
	c9.1-3.1,12-9.6,12-18.8C280.1,285.5,280.2,236.4,280.2,187.3z M65.5,130.1c0-1.8,0.7-2.2,2.3-2.2c3,0.1,6,0,8.9,0
	c2.9,0,5.7,0.1,8.6,0c1.6-0.1,2.4,0.2,2.4,2.1c-0.1,5.4-0.1,10.8,0,16.2c0,1.7-0.6,2-2.1,2c-6-0.1-11.9-0.1-17.8,0
	c-1.7,0-2.3-0.5-2.3-2.2C65.6,140.7,65.6,135.4,65.5,130.1z M64.4,170.7c2-3.8,3.9-7.5,4.3-11.7c0.1-1.2,1.2-1.1,2.1-1.1
	c3.9,0,7.7,0,11.6,0c1.3,0,2,0.3,2.2,1.7c0.5,3.9,2.1,7.3,4.5,11H64.4z M47.1,208.8c0-2.7,1.1-3.4,3.5-3.3c16.9,0.1,33.7,0.1,50.6,0
	c2,0,2.6,0.5,2.6,2.5c0.2,15.3,0.5,30.6,0.9,45.9c0,2-0.7,2.3-2.4,2.3c-8.9-0.1-17.8,0-26.8,0c-8.6,0-17.2-0.1-25.8,0
	c-2,0-2.6-0.4-2.6-2.5C47.2,238.8,47.2,223.8,47.1,208.8z M49.7,266c8.8,0.1,17.6,0,26.4,0c8.5,0,17,0.1,25.5-0.1
	c2.9-0.1,3.7,0.9,3.3,3.5c-0.1,0.8-0.1,1.6,0,2.3c0.3,1.8-0.6,2.1-2.2,2.1c-17.7,0-35.5-0.1-53.2,0c-1.9,0-2.6-0.6-2.3-2.4
	c0.1-1,0.1-2,0-3C46.8,266.4,47.7,266,49.7,266z M102.9,307.8c-8.8-0.1-17.6,0-26.4,0c-8.8,0-17.6-0.1-26.4,0c-2.2,0-3.1-0.3-3-2.8
	c0.2-6.2,0.1-12.3,0-18.5c0-2,0.3-2.9,2.6-2.8c17.6,0.1,35.2,0.1,52.9,0c2,0,2.6,0.5,2.6,2.5c0,6.3,0.1,12.6,0.4,18.8
	C105.6,307.2,105.1,307.8,102.9,307.8z M139.2,24.4c7.2,0.1,14.3,0.1,21.5,0c2.1,0,2.6,0.5,2.5,2.6c-0.1,4.9,0,4.9-5,4.9h-7.9
	c-3.8,0-7.5-0.1-11.2,0c-1.9,0.1-2.6-0.5-2.3-2.4c0.1-0.9,0.1-1.8,0-2.6C136.3,24.8,137.2,24.4,139.2,24.4z M163.1,60
	c0,5.3-0.1,10.6,0,15.9c0,1.7-0.2,2.5-2.2,2.5c-7.4-0.1-14.8-0.1-22.2,0c-1.8,0-2.2-0.6-2.1-2.3c0.1-10.7,0.1-21.4,0-32.1
	c0-2,0.6-2.3,2.4-2.3c7.3,0.1,14.5,0.1,21.8,0c1.9,0,2.3,0.6,2.3,2.4C163.1,49.4,163.1,54.7,163.1,60z M188.5,328
	c-0.1,3.9-0.3,7.7-0.2,11.6c0.1,3-1.1,4-4.1,4c-21.2-0.1-42.3,0-63.5,0c-1.9,0-3.8-0.1-5.6,0c-2.6,0.2-3.5-1.1-3.5-3.5
	c0-4.2-0.1-8.4-0.2-12.6c0-1,0.1-1.9,0.9-2.7c2.6-2.6,3.3-5.8,3.2-9.4c-0.6-30.8-1.1-61.7-1.7-92.6c-0.5-30-1-60-1.6-89.9
	c0-2.9,0.9-5.1,2.9-7.1c5.3-5.3,10.3-10.9,15.7-16.1c5.4-5.2,8.1-11.4,7.7-18.9c-0.1-2.1,0.4-2.9,2.7-2.8c5.9,0.2,11.9,0.1,17.9,0
	c1.8,0,2.5,0.4,2.4,2.4c-0.6,8.2,2.6,14.7,8.5,20.2c5.1,4.8,9.6,10,14.6,14.9c2.3,2.3,3.2,4.7,3.1,8c-0.6,30.3-1.1,60.6-1.6,90.9h0
	c-0.5,30.1-1.1,60.2-1.6,90.2c-0.1,3.9,0.4,7.5,3.4,10.3C188.7,325.9,188.5,326.9,188.5,328z M211.3,74.2c-0.2-1.6,0.6-2,2.1-2
	c4.1,0.1,8.1,0,12.2,0c4,0,7.9,0.1,11.9-0.1c2-0.1,2.9,0.4,2.6,2.5c-0.1,0.9-0.1,1.8,0,2.6c0.3,2.1-0.7,2.5-2.6,2.5
	c-7.8-0.1-15.6-0.1-23.4,0c-2.1,0-3-0.5-2.7-2.7C211.5,76.2,211.4,75.2,211.3,74.2z M240.1,91.4c0,5.6,0.1,5.6-5.4,5.6
	c-6.8,0-13.6-0.1-20.4,0.1c-2.2,0.1-3-0.5-2.9-2.8c0.1-5.3,0-5.3,5.4-5.3h9.2c3.9,0,7.7,0.1,11.5,0
	C239.4,88.7,240.1,89.3,240.1,91.4z M209.3,125.9c0.5-6.1,2.1-11.9,3.6-17.7c0.3-1.2,1-1.5,2.1-1.5c7,0,14.1,0.1,21.1,0
	c1.5,0,2,0.5,2.4,1.9c1.6,5.6,2.9,11.2,3.5,17.1c0.2,2-0.2,2.5-2.1,2.4c-4.8-0.1-9.7,0-14.5,0c-4.7,0-9.5-0.1-14.2,0
	C209.5,128.2,209.1,127.6,209.3,125.9z M262.6,343.5c-20.6,0-41.2,0-61.8,0.1c-2.4,0-3.3-0.4-2.9-3c0.4-2.5-0.6-5.8,0.6-7.3
	c1.5-1.7,4.9-0.5,7.5-0.5c9.4-0.1,18.7,0,28.1,0c11,0,22,0.1,33-0.1c2.7,0,3.2,0.9,3.1,3.3C270.2,342.3,269.1,343.5,262.6,343.5z
	 M226.6,199.9c1.2,0.2,2.4,0.2,3.6,0.2c12.5,0,24.9,0,37.4,0c2,0,2.8,0.4,2.8,2.7c-0.1,39.2-0.1,78.5,0,117.8c0,1.8-0.3,2.5-2.3,2.4
	c-22.6-0.1-45.2,0-67.8,0c-2.7,0-6.1-4.5-6-8c0.3-19.6,0.7-39.2,1-58.9c0.1-6.8,0-13.6,0-21.1c4.5,3.2,8.5,2.5,12.7,0.8
	c12-4.9,24-4.8,36,0.1c2,0.8,4.1,1.8,6.3,1.6c2.5-0.2,4.7-1.2,6.2-3.3c2-2.6,3.8-5.5,5.1-8.5c2-4.4,0-9.2-4.6-11.3
	c-18.2-8.3-36.8-9.7-55.8-2.7c-1,0.4-2.1,0.7-3.1,1.2c-1.7,0.7-2.2,0.2-2-1.5c0.1-0.7,0-1.3,0-2c0.1-2.9-0.9-6.4,0.5-8.4
	c1.5-2.2,5.2-0.5,8-0.9c2.9-0.4,4.9-2.2,4.9-4.8c0-2.6-2-4.5-4.9-4.8c-0.2,0-0.4,0-0.7,0c-2.4-0.2-5.6,1.1-7-0.5
	c-1.6-1.8-0.4-5-0.4-7.7c0-4.3,0.3-8.6,0.2-12.9c0-1.8,0.6-2.8,2-3.8c3.5-2.7,6.9-5.4,10.4-8.2c2.6-2.1,3.7-4.4,1.9-7.7
	c-1.7-3.2-1.6-6.8-2.1-10.3c-0.2-1.2,0.4-1.5,1.5-1.5c10.2,0,20.5,0,30.8,0c1.6,0,1.4,1,1.3,2c-0.2,3.4-0.5,6.9-2.1,10
	c-1.6,3.2-0.7,5.4,1.8,7.5c7.5,6,14.9,12,22.5,17.9c4.6,3.5,5.9,8.2,5.6,13.7c-0.1,2.3-1.7,1.6-2.8,1.6c-12.5,0-24.9,0-37.4,0
	c-1.2,0-2.5,0-3.6,0.2c-2.5,0.5-3.8,2.2-3.8,4.6C222.7,197.7,224.1,199.4,226.6,199.9z M201.2,222.2c12.8-5.4,25.9-6.7,39.4-3.3
	c3.3,0.8,6.5,1.8,9.7,3.2c0.6,0.3,1.7,0.1,1.4,1.4c-0.3,2.2-2.6,3.7-4.8,2.9c-14.1-5.5-28.1-5.5-42.2,0c-2.3,0.9-4.3-0.5-4.8-2.9
	C199.5,222.2,200.6,222.4,201.2,222.2z M249.9,299.1c-8,0-16.1,0-24.1,0s-16.1,0-24.1,0c-4.2,0-6.4,1.7-6.4,4.9
	c0,3.1,2.2,4.9,6.2,4.9c16.2,0,32.4,0,48.6,0c3.9,0,6.2-2,6.1-5C256.2,300.8,253.9,299.1,249.9,299.1z M203.9,279.9
	c9.7,8.2,28.6,9.3,40.2,2.4c6.4-3.8,10.8-9,11.1-15.7c0.2-6-1.9-10.9-5.8-14.6c-11.2-10.7-33.1-11.6-45.2-2
	C193.6,258.5,193.5,271.2,203.9,279.9z M210.2,257.9c7.9-6.1,22.7-6.3,30.7-0.3c6.1,4.5,6.1,10.6,0,15.2c-4.5,3.3-9.8,4.3-15.1,4.5
	c-5.6-0.3-11-1.3-15.5-4.8C204.6,268.1,204.6,262.2,210.2,257.9z M172.2,142.7c-7.1-2.9-14.5-4.4-22.2-4.4c-7.8,0-15.3,1.5-22.5,4.4
	c-5.6,2.2-8.5,6.4-8.7,12.4c-0.1,1.8,0.2,3.5,0.1,5.3c-0.4,11.1,6.3,13.3,14.4,8.1c9-5.7,19.1-6,29.1-2c2.9,1.1,5.4,2.9,8.2,4.2
	c4.4,2,9-0.3,9.7-5.1c0.5-3.4,0.6-6.8,0.6-10.2C181,149.2,177.9,145,172.2,142.7z M170.9,159.6c-13.9-7-27.9-7.2-41.8-0.1
	c-1.2-6.1-0.9-6.7,4.8-8.7c10.4-3.6,20.9-3.6,31.4-0.2C171.5,152.6,171.5,152.7,170.9,159.6z M168.4,187.2c-12.3-0.1-24.7-0.1-37,0
	c-5.8,0-9,3.2-9,9.1c0,9.1,0.2,18.3,0.5,27.4c0.2,6.2,3.4,9.2,9.5,9.3c5.8,0,11.7,0,17.5,0c6,0,11.9,0.1,17.8,0
	c5.6-0.1,8.9-3.1,9.1-8.7c0.3-9.4,0.5-18.7,0.5-28.1C177.4,190.4,174.2,187.2,168.4,187.2z M167.2,221c0,1.9-0.7,2.1-2.3,2.1
	c-10-0.1-20-0.1-30,0c-1.8,0-2.2-0.5-2.2-2.2c0-7.1-0.1-14.3-0.5-21.4c-0.1-2.3,0.7-2.8,2.8-2.7c5.1,0.1,10.1,0,15.2,0
	c5,0,9.9,0.1,14.8,0c1.9,0,2.8,0.2,2.7,2.5C167.4,206.5,167.2,213.8,167.2,221z M167.1,288c-11.5,0-22.9,0-34.4,0
	c-4,0-6.2,1.8-6.2,4.9c0,3.1,2.2,4.9,6.1,4.9c5.6,0,11.2,0,16.9,0c5.8,0,11.7,0,17.5,0c4,0,6.1-1.8,6.2-4.9
	C173.2,289.8,171.1,288,167.1,288z M167.8,303.4c-11.9-0.1-23.8-0.1-35.7,0c-3.7,0-5.6,2.1-5.5,5.2c0.2,2.9,2.1,4.5,5.7,4.5
	c5.7,0,11.5,0,17.2,0c5.9,0,11.9,0,17.8,0c3.8,0,5.8-1.8,5.8-4.8C173.2,305.4,171.3,303.4,167.8,303.4z M76.7,252.3
	c11.8,0,21.4-9.6,21.6-21.4c0.1-11.7-9.9-21.8-21.6-21.7c-11.7,0-21.4,9.7-21.5,21.5C55,242.6,64.7,252.3,76.7,252.3z M76.7,219
	c6.5,0,11.7,5.3,11.7,11.8c0,6.5-5.4,11.8-11.8,11.7c-6.5-0.1-11.8-5.5-11.7-11.9C64.9,224.3,70.2,219,76.7,219z M89.9,292.5
	c-4.4-0.1-8.8,0-13.2,0c-4.4,0-8.8,0-13.2,0c-3.4,0-5.5,2-5.5,4.8c0,2.7,2,4.8,5.1,4.9c9,0.1,18,0.2,27.1,0c3.3,0,5.4-2.4,5.2-5.2
	C95.1,294.2,93.2,292.5,89.9,292.5z M76.6,209.2c-11.7,0-21.4,9.7-21.5,21.5c-0.1,11.9,9.6,21.7,21.5,21.6
	c11.8,0,21.4-9.6,21.6-21.4C98.4,219.2,88.3,209.2,76.6,209.2z M76.6,242.6c-6.5-0.1-11.8-5.5-11.7-11.9c0.1-6.5,5.4-11.7,11.9-11.7
	c6.5,0,11.7,5.3,11.7,11.8C88.4,237.4,83,242.7,76.6,242.6z M89.9,292.5c-4.4-0.1-8.8,0-13.2,0c-4.4,0-8.8,0-13.2,0
	c-3.4,0-5.5,2-5.5,4.8c0,2.7,2,4.8,5.1,4.9c9,0.1,18,0.2,27.1,0c3.3,0,5.4-2.4,5.2-5.2C95.1,294.2,93.2,292.5,89.9,292.5z
	 M167.8,303.4c-11.9-0.1-23.8-0.1-35.7,0c-3.7,0-5.6,2.1-5.5,5.2c0.2,2.9,2.1,4.5,5.7,4.5c5.7,0,11.5,0,17.2,0c5.9,0,11.9,0,17.8,0
	c3.8,0,5.8-1.8,5.8-4.8C173.2,305.4,171.3,303.4,167.8,303.4z M167.1,288c-11.5,0-22.9,0-34.4,0c-4,0-6.2,1.8-6.2,4.9
	c0,3.1,2.2,4.9,6.1,4.9c5.6,0,11.2,0,16.9,0c5.8,0,11.7,0,17.5,0c4,0,6.1-1.8,6.2-4.9C173.2,289.8,171.1,288,167.1,288z
	 M168.4,187.2c-12.3-0.1-24.7-0.1-37,0c-5.8,0-9,3.2-9,9.1c0,9.1,0.2,18.3,0.5,27.4c0.2,6.2,3.4,9.2,9.5,9.3c5.8,0,11.7,0,17.5,0
	c6,0,11.9,0.1,17.8,0c5.6-0.1,8.9-3.1,9.1-8.7c0.3-9.4,0.5-18.7,0.5-28.1C177.4,190.4,174.2,187.2,168.4,187.2z M167.2,221
	c0,1.9-0.7,2.1-2.3,2.1c-10-0.1-20-0.1-30,0c-1.8,0-2.2-0.5-2.2-2.2c0-7.1-0.1-14.3-0.5-21.4c-0.1-2.3,0.7-2.8,2.8-2.7
	c5.1,0.1,10.1,0,15.2,0c5,0,9.9,0.1,14.8,0c1.9,0,2.8,0.2,2.7,2.5C167.4,206.5,167.2,213.8,167.2,221z M172.2,142.7
	c-7.1-2.9-14.5-4.4-22.2-4.4c-7.8,0-15.3,1.5-22.5,4.4c-5.6,2.2-8.5,6.4-8.7,12.4c-0.1,1.8,0.2,3.5,0.1,5.3
	c-0.4,11.1,6.3,13.3,14.4,8.1c9-5.7,19.1-6,29.1-2c2.9,1.1,5.4,2.9,8.2,4.2c4.4,2,9-0.3,9.7-5.1c0.5-3.4,0.6-6.8,0.6-10.2
	C181,149.2,177.9,145,172.2,142.7z M170.9,159.6c-13.9-7-27.9-7.2-41.8-0.1c-1.2-6.1-0.9-6.7,4.8-8.7c10.4-3.6,20.9-3.6,31.4-0.2
	C171.5,152.6,171.5,152.7,170.9,159.6z M249.4,252c-11.2-10.7-33.1-11.6-45.2-2c-10.6,8.5-10.7,21.1-0.4,29.9
	c9.7,8.2,28.6,9.3,40.2,2.4c6.4-3.8,10.8-9,11.1-15.7C255.3,260.6,253.2,255.7,249.4,252z M240.9,272.7c-4.5,3.3-9.8,4.3-15.1,4.5
	c-5.6-0.3-11-1.3-15.5-4.8c-5.6-4.3-5.6-10.3,0-14.6c7.9-6.1,22.7-6.3,30.7-0.3C247,262.1,247,268.2,240.9,272.7z M249.9,299.1
	c-8,0-16.1,0-24.1,0s-16.1,0-24.1,0c-4.2,0-6.4,1.7-6.4,4.9c0,3.1,2.2,4.9,6.2,4.9c16.2,0,32.4,0,48.6,0c3.9,0,6.2-2,6.1-5
	C256.2,300.8,253.9,299.1,249.9,299.1z M249.9,299.1c-8,0-16.1,0-24.1,0s-16.1,0-24.1,0c-4.2,0-6.4,1.7-6.4,4.9
	c0,3.1,2.2,4.9,6.2,4.9c16.2,0,32.4,0,48.6,0c3.9,0,6.2-2,6.1-5C256.2,300.8,253.9,299.1,249.9,299.1z M249.4,252
	c-11.2-10.7-33.1-11.6-45.2-2c-10.6,8.5-10.7,21.1-0.4,29.9c9.7,8.2,28.6,9.3,40.2,2.4c6.4-3.8,10.8-9,11.1-15.7
	C255.3,260.6,253.2,255.7,249.4,252z M240.9,272.7c-4.5,3.3-9.8,4.3-15.1,4.5c-5.6-0.3-11-1.3-15.5-4.8c-5.6-4.3-5.6-10.3,0-14.6
	c7.9-6.1,22.7-6.3,30.7-0.3C247,262.1,247,268.2,240.9,272.7z M172.2,142.7c-7.1-2.9-14.5-4.4-22.2-4.4c-7.8,0-15.3,1.5-22.5,4.4
	c-5.6,2.2-8.5,6.4-8.7,12.4c-0.1,1.8,0.2,3.5,0.1,5.3c-0.4,11.1,6.3,13.3,14.4,8.1c9-5.7,19.1-6,29.1-2c2.9,1.1,5.4,2.9,8.2,4.2
	c4.4,2,9-0.3,9.7-5.1c0.5-3.4,0.6-6.8,0.6-10.2C181,149.2,177.9,145,172.2,142.7z M170.9,159.6c-13.9-7-27.9-7.2-41.8-0.1
	c-1.2-6.1-0.9-6.7,4.8-8.7c10.4-3.6,20.9-3.6,31.4-0.2C171.5,152.6,171.5,152.7,170.9,159.6z M168.4,187.2c-12.3-0.1-24.7-0.1-37,0
	c-5.8,0-9,3.2-9,9.1c0,9.1,0.2,18.3,0.5,27.4c0.2,6.2,3.4,9.2,9.5,9.3c5.8,0,11.7,0,17.5,0c6,0,11.9,0.1,17.8,0
	c5.6-0.1,8.9-3.1,9.1-8.7c0.3-9.4,0.5-18.7,0.5-28.1C177.4,190.4,174.2,187.2,168.4,187.2z M167.2,221c0,1.9-0.7,2.1-2.3,2.1
	c-10-0.1-20-0.1-30,0c-1.8,0-2.2-0.5-2.2-2.2c0-7.1-0.1-14.3-0.5-21.4c-0.1-2.3,0.7-2.8,2.8-2.7c5.1,0.1,10.1,0,15.2,0
	c5,0,9.9,0.1,14.8,0c1.9,0,2.8,0.2,2.7,2.5C167.4,206.5,167.2,213.8,167.2,221z M167.1,288c-11.5,0-22.9,0-34.4,0
	c-4,0-6.2,1.8-6.2,4.9c0,3.1,2.2,4.9,6.1,4.9c5.6,0,11.2,0,16.9,0c5.8,0,11.7,0,17.5,0c4,0,6.1-1.8,6.2-4.9
	C173.2,289.8,171.1,288,167.1,288z M167.8,303.4c-11.9-0.1-23.8-0.1-35.7,0c-3.7,0-5.6,2.1-5.5,5.2c0.2,2.9,2.1,4.5,5.7,4.5
	c5.7,0,11.5,0,17.2,0c5.9,0,11.9,0,17.8,0c3.8,0,5.8-1.8,5.8-4.8C173.2,305.4,171.3,303.4,167.8,303.4z M76.6,209.2
	c-11.7,0-21.4,9.7-21.5,21.5c-0.1,11.9,9.6,21.7,21.5,21.6c11.8,0,21.4-9.6,21.6-21.4C98.4,219.2,88.3,209.2,76.6,209.2z
	 M76.6,242.6c-6.5-0.1-11.8-5.5-11.7-11.9c0.1-6.5,5.4-11.7,11.9-11.7c6.5,0,11.7,5.3,11.7,11.8C88.4,237.4,83,242.7,76.6,242.6z
	 M89.9,292.5c-4.4-0.1-8.8,0-13.2,0c-4.4,0-8.8,0-13.2,0c-3.4,0-5.5,2-5.5,4.8c0,2.7,2,4.8,5.1,4.9c9,0.1,18,0.2,27.1,0
	c3.3,0,5.4-2.4,5.2-5.2C95.1,294.2,93.2,292.5,89.9,292.5z M76.6,209.2c-11.7,0-21.4,9.7-21.5,21.5c-0.1,11.9,9.6,21.7,21.5,21.6
	c11.8,0,21.4-9.6,21.6-21.4C98.4,219.2,88.3,209.2,76.6,209.2z M76.6,242.6c-6.5-0.1-11.8-5.5-11.7-11.9c0.1-6.5,5.4-11.7,11.9-11.7
	c6.5,0,11.7,5.3,11.7,11.8C88.4,237.4,83,242.7,76.6,242.6z M89.9,292.5c-4.4-0.1-8.8,0-13.2,0c-4.4,0-8.8,0-13.2,0
	c-3.4,0-5.5,2-5.5,4.8c0,2.7,2,4.8,5.1,4.9c9,0.1,18,0.2,27.1,0c3.3,0,5.4-2.4,5.2-5.2C95.1,294.2,93.2,292.5,89.9,292.5z
	 M167.8,303.4c-11.9-0.1-23.8-0.1-35.7,0c-3.7,0-5.6,2.1-5.5,5.2c0.2,2.9,2.1,4.5,5.7,4.5c5.7,0,11.5,0,17.2,0c5.9,0,11.9,0,17.8,0
	c3.8,0,5.8-1.8,5.8-4.8C173.2,305.4,171.3,303.4,167.8,303.4z M167.1,288c-11.5,0-22.9,0-34.4,0c-4,0-6.2,1.8-6.2,4.9
	c0,3.1,2.2,4.9,6.1,4.9c5.6,0,11.2,0,16.9,0c5.8,0,11.7,0,17.5,0c4,0,6.1-1.8,6.2-4.9C173.2,289.8,171.1,288,167.1,288z
	 M168.4,187.2c-12.3-0.1-24.7-0.1-37,0c-5.8,0-9,3.2-9,9.1c0,9.1,0.2,18.3,0.5,27.4c0.2,6.2,3.4,9.2,9.5,9.3c5.8,0,11.7,0,17.5,0
	c6,0,11.9,0.1,17.8,0c5.6-0.1,8.9-3.1,9.1-8.7c0.3-9.4,0.5-18.7,0.5-28.1C177.4,190.4,174.2,187.2,168.4,187.2z M167.2,221
	c0,1.9-0.7,2.1-2.3,2.1c-10-0.1-20-0.1-30,0c-1.8,0-2.2-0.5-2.2-2.2c0-7.1-0.1-14.3-0.5-21.4c-0.1-2.3,0.7-2.8,2.8-2.7
	c5.1,0.1,10.1,0,15.2,0c5,0,9.9,0.1,14.8,0c1.9,0,2.8,0.2,2.7,2.5C167.4,206.5,167.2,213.8,167.2,221z M172.2,142.7
	c-7.1-2.9-14.5-4.4-22.2-4.4c-7.8,0-15.3,1.5-22.5,4.4c-5.6,2.2-8.5,6.4-8.7,12.4c-0.1,1.8,0.2,3.5,0.1,5.3
	c-0.4,11.1,6.3,13.3,14.4,8.1c9-5.7,19.1-6,29.1-2c2.9,1.1,5.4,2.9,8.2,4.2c4.4,2,9-0.3,9.7-5.1c0.5-3.4,0.6-6.8,0.6-10.2
	C181,149.2,177.9,145,172.2,142.7z M170.9,159.6c-13.9-7-27.9-7.2-41.8-0.1c-1.2-6.1-0.9-6.7,4.8-8.7c10.4-3.6,20.9-3.6,31.4-0.2
	C171.5,152.6,171.5,152.7,170.9,159.6z M172.2,142.7c-7.1-2.9-14.5-4.4-22.2-4.4c-7.8,0-15.3,1.5-22.5,4.4
	c-5.6,2.2-8.5,6.4-8.7,12.4c-0.1,1.8,0.2,3.5,0.1,5.3c-0.4,11.1,6.3,13.3,14.4,8.1c9-5.7,19.1-6,29.1-2c2.9,1.1,5.4,2.9,8.2,4.2
	c4.4,2,9-0.3,9.7-5.1c0.5-3.4,0.6-6.8,0.6-10.2C181,149.2,177.9,145,172.2,142.7z M170.9,159.6c-13.9-7-27.9-7.2-41.8-0.1
	c-1.2-6.1-0.9-6.7,4.8-8.7c10.4-3.6,20.9-3.6,31.4-0.2C171.5,152.6,171.5,152.7,170.9,159.6z M168.4,187.2c-12.3-0.1-24.7-0.1-37,0
	c-5.8,0-9,3.2-9,9.1c0,9.1,0.2,18.3,0.5,27.4c0.2,6.2,3.4,9.2,9.5,9.3c5.8,0,11.7,0,17.5,0c6,0,11.9,0.1,17.8,0
	c5.6-0.1,8.9-3.1,9.1-8.7c0.3-9.4,0.5-18.7,0.5-28.1C177.4,190.4,174.2,187.2,168.4,187.2z M167.2,221c0,1.9-0.7,2.1-2.3,2.1
	c-10-0.1-20-0.1-30,0c-1.8,0-2.2-0.5-2.2-2.2c0-7.1-0.1-14.3-0.5-21.4c-0.1-2.3,0.7-2.8,2.8-2.7c5.1,0.1,10.1,0,15.2,0
	c5,0,9.9,0.1,14.8,0c1.9,0,2.8,0.2,2.7,2.5C167.4,206.5,167.2,213.8,167.2,221z M167.1,288c-11.5,0-22.9,0-34.4,0
	c-4,0-6.2,1.8-6.2,4.9c0,3.1,2.2,4.9,6.1,4.9c5.6,0,11.2,0,16.9,0c5.8,0,11.7,0,17.5,0c4,0,6.1-1.8,6.2-4.9
	C173.2,289.8,171.1,288,167.1,288z M167.8,303.4c-11.9-0.1-23.8-0.1-35.7,0c-3.7,0-5.6,2.1-5.5,5.2c0.2,2.9,2.1,4.5,5.7,4.5
	c5.7,0,11.5,0,17.2,0c5.9,0,11.9,0,17.8,0c3.8,0,5.8-1.8,5.8-4.8C173.2,305.4,171.3,303.4,167.8,303.4z M76.6,209.2
	c-11.7,0-21.4,9.7-21.5,21.5c-0.1,11.9,9.6,21.7,21.5,21.6c11.8,0,21.4-9.6,21.6-21.4C98.4,219.2,88.3,209.2,76.6,209.2z
	 M76.6,242.6c-6.5-0.1-11.8-5.5-11.7-11.9c0.1-6.5,5.4-11.7,11.9-11.7c6.5,0,11.7,5.3,11.7,11.8C88.4,237.4,83,242.7,76.6,242.6z
	 M89.9,292.5c-4.4-0.1-8.8,0-13.2,0c-4.4,0-8.8,0-13.2,0c-3.4,0-5.5,2-5.5,4.8c0,2.7,2,4.8,5.1,4.9c9,0.1,18,0.2,27.1,0
	c3.3,0,5.4-2.4,5.2-5.2C95.1,294.2,93.2,292.5,89.9,292.5z M76.6,209.2c-11.7,0-21.4,9.7-21.5,21.5c-0.1,11.9,9.6,21.7,21.5,21.6
	c11.8,0,21.4-9.6,21.6-21.4C98.4,219.2,88.3,209.2,76.6,209.2z M76.6,242.6c-6.5-0.1-11.8-5.5-11.7-11.9c0.1-6.5,5.4-11.7,11.9-11.7
	c6.5,0,11.7,5.3,11.7,11.8C88.4,237.4,83,242.7,76.6,242.6z M89.9,292.5c-4.4-0.1-8.8,0-13.2,0c-4.4,0-8.8,0-13.2,0
	c-3.4,0-5.5,2-5.5,4.8c0,2.7,2,4.8,5.1,4.9c9,0.1,18,0.2,27.1,0c3.3,0,5.4-2.4,5.2-5.2C95.1,294.2,93.2,292.5,89.9,292.5z
	 M167.8,303.4c-11.9-0.1-23.8-0.1-35.7,0c-3.7,0-5.6,2.1-5.5,5.2c0.2,2.9,2.1,4.5,5.7,4.5c5.7,0,11.5,0,17.2,0c5.9,0,11.9,0,17.8,0
	c3.8,0,5.8-1.8,5.8-4.8C173.2,305.4,171.3,303.4,167.8,303.4z M167.1,288c-11.5,0-22.9,0-34.4,0c-4,0-6.2,1.8-6.2,4.9
	c0,3.1,2.2,4.9,6.1,4.9c5.6,0,11.2,0,16.9,0c5.8,0,11.7,0,17.5,0c4,0,6.1-1.8,6.2-4.9C173.2,289.8,171.1,288,167.1,288z
	 M168.4,187.2c-12.3-0.1-24.7-0.1-37,0c-5.8,0-9,3.2-9,9.1c0,9.1,0.2,18.3,0.5,27.4c0.2,6.2,3.4,9.2,9.5,9.3c5.8,0,11.7,0,17.5,0
	c6,0,11.9,0.1,17.8,0c5.6-0.1,8.9-3.1,9.1-8.7c0.3-9.4,0.5-18.7,0.5-28.1C177.4,190.4,174.2,187.2,168.4,187.2z M167.2,221
	c0,1.9-0.7,2.1-2.3,2.1c-10-0.1-20-0.1-30,0c-1.8,0-2.2-0.5-2.2-2.2c0-7.1-0.1-14.3-0.5-21.4c-0.1-2.3,0.7-2.8,2.8-2.7
	c5.1,0.1,10.1,0,15.2,0c5,0,9.9,0.1,14.8,0c1.9,0,2.8,0.2,2.7,2.5C167.4,206.5,167.2,213.8,167.2,221z M172.2,142.7
	c-7.1-2.9-14.5-4.4-22.2-4.4c-7.8,0-15.3,1.5-22.5,4.4c-5.6,2.2-8.5,6.4-8.7,12.4c-0.1,1.8,0.2,3.5,0.1,5.3
	c-0.4,11.1,6.3,13.3,14.4,8.1c9-5.7,19.1-6,29.1-2c2.9,1.1,5.4,2.9,8.2,4.2c4.4,2,9-0.3,9.7-5.1c0.5-3.4,0.6-6.8,0.6-10.2
	C181,149.2,177.9,145,172.2,142.7z M170.9,159.6c-13.9-7-27.9-7.2-41.8-0.1c-1.2-6.1-0.9-6.7,4.8-8.7c10.4-3.6,20.9-3.6,31.4-0.2
	C171.5,152.6,171.5,152.7,170.9,159.6z M172.2,142.7c-7.1-2.9-14.5-4.4-22.2-4.4c-7.8,0-15.3,1.5-22.5,4.4
	c-5.6,2.2-8.5,6.4-8.7,12.4c-0.1,1.8,0.2,3.5,0.1,5.3c-0.4,11.1,6.3,13.3,14.4,8.1c9-5.7,19.1-6,29.1-2c2.9,1.1,5.4,2.9,8.2,4.2
	c4.4,2,9-0.3,9.7-5.1c0.5-3.4,0.6-6.8,0.6-10.2C181,149.2,177.9,145,172.2,142.7z M170.9,159.6c-13.9-7-27.9-7.2-41.8-0.1
	c-1.2-6.1-0.9-6.7,4.8-8.7c10.4-3.6,20.9-3.6,31.4-0.2C171.5,152.6,171.5,152.7,170.9,159.6z M168.4,187.2c-12.3-0.1-24.7-0.1-37,0
	c-5.8,0-9,3.2-9,9.1c0,9.1,0.2,18.3,0.5,27.4c0.2,6.2,3.4,9.2,9.5,9.3c5.8,0,11.7,0,17.5,0c6,0,11.9,0.1,17.8,0
	c5.6-0.1,8.9-3.1,9.1-8.7c0.3-9.4,0.5-18.7,0.5-28.1C177.4,190.4,174.2,187.2,168.4,187.2z M167.2,221c0,1.9-0.7,2.1-2.3,2.1
	c-10-0.1-20-0.1-30,0c-1.8,0-2.2-0.5-2.2-2.2c0-7.1-0.1-14.3-0.5-21.4c-0.1-2.3,0.7-2.8,2.8-2.7c5.1,0.1,10.1,0,15.2,0
	c5,0,9.9,0.1,14.8,0c1.9,0,2.8,0.2,2.7,2.5C167.4,206.5,167.2,213.8,167.2,221z M167.1,288c-11.5,0-22.9,0-34.4,0
	c-4,0-6.2,1.8-6.2,4.9c0,3.1,2.2,4.9,6.1,4.9c5.6,0,11.2,0,16.9,0c5.8,0,11.7,0,17.5,0c4,0,6.1-1.8,6.2-4.9
	C173.2,289.8,171.1,288,167.1,288z M167.8,303.4c-11.9-0.1-23.8-0.1-35.7,0c-3.7,0-5.6,2.1-5.5,5.2c0.2,2.9,2.1,4.5,5.7,4.5
	c5.7,0,11.5,0,17.2,0c5.9,0,11.9,0,17.8,0c3.8,0,5.8-1.8,5.8-4.8C173.2,305.4,171.3,303.4,167.8,303.4z M76.6,209.2
	c-11.7,0-21.4,9.7-21.5,21.5c-0.1,11.9,9.6,21.7,21.5,21.6c11.8,0,21.4-9.6,21.6-21.4C98.4,219.2,88.3,209.2,76.6,209.2z
	 M76.6,242.6c-6.5-0.1-11.8-5.5-11.7-11.9c0.1-6.5,5.4-11.7,11.9-11.7c6.5,0,11.7,5.3,11.7,11.8C88.4,237.4,83,242.7,76.6,242.6z
	 M89.9,292.5c-4.4-0.1-8.8,0-13.2,0c-4.4,0-8.8,0-13.2,0c-3.4,0-5.5,2-5.5,4.8c0,2.7,2,4.8,5.1,4.9c9,0.1,18,0.2,27.1,0
	c3.3,0,5.4-2.4,5.2-5.2C95.1,294.2,93.2,292.5,89.9,292.5z M76.6,209.2c-11.7,0-21.4,9.7-21.5,21.5c-0.1,11.9,9.6,21.7,21.5,21.6
	c11.8,0,21.4-9.6,21.6-21.4C98.4,219.2,88.3,209.2,76.6,209.2z M76.6,242.6c-6.5-0.1-11.8-5.5-11.7-11.9c0.1-6.5,5.4-11.7,11.9-11.7
	c6.5,0,11.7,5.3,11.7,11.8C88.4,237.4,83,242.7,76.6,242.6z M89.9,292.5c-4.4-0.1-8.8,0-13.2,0c-4.4,0-8.8,0-13.2,0
	c-3.4,0-5.5,2-5.5,4.8c0,2.7,2,4.8,5.1,4.9c9,0.1,18,0.2,27.1,0c3.3,0,5.4-2.4,5.2-5.2C95.1,294.2,93.2,292.5,89.9,292.5z
	 M167.8,303.4c-11.9-0.1-23.8-0.1-35.7,0c-3.7,0-5.6,2.1-5.5,5.2c0.2,2.9,2.1,4.5,5.7,4.5c5.7,0,11.5,0,17.2,0c5.9,0,11.9,0,17.8,0
	c3.8,0,5.8-1.8,5.8-4.8C173.2,305.4,171.3,303.4,167.8,303.4z M167.1,288c-11.5,0-22.9,0-34.4,0c-4,0-6.2,1.8-6.2,4.9
	c0,3.1,2.2,4.9,6.1,4.9c5.6,0,11.2,0,16.9,0c5.8,0,11.7,0,17.5,0c4,0,6.1-1.8,6.2-4.9C173.2,289.8,171.1,288,167.1,288z
	 M168.4,187.2c-12.3-0.1-24.7-0.1-37,0c-5.8,0-9,3.2-9,9.1c0,9.1,0.2,18.3,0.5,27.4c0.2,6.2,3.4,9.2,9.5,9.3c5.8,0,11.7,0,17.5,0
	c6,0,11.9,0.1,17.8,0c5.6-0.1,8.9-3.1,9.1-8.7c0.3-9.4,0.5-18.7,0.5-28.1C177.4,190.4,174.2,187.2,168.4,187.2z M167.2,221
	c0,1.9-0.7,2.1-2.3,2.1c-10-0.1-20-0.1-30,0c-1.8,0-2.2-0.5-2.2-2.2c0-7.1-0.1-14.3-0.5-21.4c-0.1-2.3,0.7-2.8,2.8-2.7
	c5.1,0.1,10.1,0,15.2,0c5,0,9.9,0.1,14.8,0c1.9,0,2.8,0.2,2.7,2.5C167.4,206.5,167.2,213.8,167.2,221z M172.2,142.7
	c-7.1-2.9-14.5-4.4-22.2-4.4c-7.8,0-15.3,1.5-22.5,4.4c-5.6,2.2-8.5,6.4-8.7,12.4c-0.1,1.8,0.2,3.5,0.1,5.3
	c-0.4,11.1,6.3,13.3,14.4,8.1c9-5.7,19.1-6,29.1-2c2.9,1.1,5.4,2.9,8.2,4.2c4.4,2,9-0.3,9.7-5.1c0.5-3.4,0.6-6.8,0.6-10.2
	C181,149.2,177.9,145,172.2,142.7z M170.9,159.6c-13.9-7-27.9-7.2-41.8-0.1c-1.2-6.1-0.9-6.7,4.8-8.7c10.4-3.6,20.9-3.6,31.4-0.2
	C171.5,152.6,171.5,152.7,170.9,159.6z M172.2,142.7c-7.1-2.9-14.5-4.4-22.2-4.4c-7.8,0-15.3,1.5-22.5,4.4
	c-5.6,2.2-8.5,6.4-8.7,12.4c-0.1,1.8,0.2,3.5,0.1,5.3c-0.4,11.1,6.3,13.3,14.4,8.1c9-5.7,19.1-6,29.1-2c2.9,1.1,5.4,2.9,8.2,4.2
	c4.4,2,9-0.3,9.7-5.1c0.5-3.4,0.6-6.8,0.6-10.2C181,149.2,177.9,145,172.2,142.7z M170.9,159.6c-13.9-7-27.9-7.2-41.8-0.1
	c-1.2-6.1-0.9-6.7,4.8-8.7c10.4-3.6,20.9-3.6,31.4-0.2C171.5,152.6,171.5,152.7,170.9,159.6z M168.4,187.2c-12.3-0.1-24.7-0.1-37,0
	c-5.8,0-9,3.2-9,9.1c0,9.1,0.2,18.3,0.5,27.4c0.2,6.2,3.4,9.2,9.5,9.3c5.8,0,11.7,0,17.5,0c6,0,11.9,0.1,17.8,0
	c5.6-0.1,8.9-3.1,9.1-8.7c0.3-9.4,0.5-18.7,0.5-28.1C177.4,190.4,174.2,187.2,168.4,187.2z M167.2,221c0,1.9-0.7,2.1-2.3,2.1
	c-10-0.1-20-0.1-30,0c-1.8,0-2.2-0.5-2.2-2.2c0-7.1-0.1-14.3-0.5-21.4c-0.1-2.3,0.7-2.8,2.8-2.7c5.1,0.1,10.1,0,15.2,0
	c5,0,9.9,0.1,14.8,0c1.9,0,2.8,0.2,2.7,2.5C167.4,206.5,167.2,213.8,167.2,221z M167.1,288c-11.5,0-22.9,0-34.4,0
	c-4,0-6.2,1.8-6.2,4.9c0,3.1,2.2,4.9,6.1,4.9c5.6,0,11.2,0,16.9,0c5.8,0,11.7,0,17.5,0c4,0,6.1-1.8,6.2-4.9
	C173.2,289.8,171.1,288,167.1,288z M167.8,303.4c-11.9-0.1-23.8-0.1-35.7,0c-3.7,0-5.6,2.1-5.5,5.2c0.2,2.9,2.1,4.5,5.7,4.5
	c5.7,0,11.5,0,17.2,0c5.9,0,11.9,0,17.8,0c3.8,0,5.8-1.8,5.8-4.8C173.2,305.4,171.3,303.4,167.8,303.4z M76.6,209.2
	c-11.7,0-21.4,9.7-21.5,21.5c-0.1,11.9,9.6,21.7,21.5,21.6c11.8,0,21.4-9.6,21.6-21.4C98.4,219.2,88.3,209.2,76.6,209.2z
	 M76.6,242.6c-6.5-0.1-11.8-5.5-11.7-11.9c0.1-6.5,5.4-11.7,11.9-11.7c6.5,0,11.7,5.3,11.7,11.8C88.4,237.4,83,242.7,76.6,242.6z
	 M89.9,292.5c-4.4-0.1-8.8,0-13.2,0c-4.4,0-8.8,0-13.2,0c-3.4,0-5.5,2-5.5,4.8c0,2.7,2,4.8,5.1,4.9c9,0.1,18,0.2,27.1,0
	c3.3,0,5.4-2.4,5.2-5.2C95.1,294.2,93.2,292.5,89.9,292.5z M76.6,209.2c-11.7,0-21.4,9.7-21.5,21.5c-0.1,11.9,9.6,21.7,21.5,21.6
	c11.8,0,21.4-9.6,21.6-21.4C98.4,219.2,88.3,209.2,76.6,209.2z M76.6,242.6c-6.5-0.1-11.8-5.5-11.7-11.9c0.1-6.5,5.4-11.7,11.9-11.7
	c6.5,0,11.7,5.3,11.7,11.8C88.4,237.4,83,242.7,76.6,242.6z M89.9,292.5c-4.4-0.1-8.8,0-13.2,0c-4.4,0-8.8,0-13.2,0
	c-3.4,0-5.5,2-5.5,4.8c0,2.7,2,4.8,5.1,4.9c9,0.1,18,0.2,27.1,0c3.3,0,5.4-2.4,5.2-5.2C95.1,294.2,93.2,292.5,89.9,292.5z
	 M167.8,303.4c-11.9-0.1-23.8-0.1-35.7,0c-3.7,0-5.6,2.1-5.5,5.2c0.2,2.9,2.1,4.5,5.7,4.5c5.7,0,11.5,0,17.2,0c5.9,0,11.9,0,17.8,0
	c3.8,0,5.8-1.8,5.8-4.8C173.2,305.4,171.3,303.4,167.8,303.4z M167.1,288c-11.5,0-22.9,0-34.4,0c-4,0-6.2,1.8-6.2,4.9
	c0,3.1,2.2,4.9,6.1,4.9c5.6,0,11.2,0,16.9,0c5.8,0,11.7,0,17.5,0c4,0,6.1-1.8,6.2-4.9C173.2,289.8,171.1,288,167.1,288z
	 M168.4,187.2c-12.3-0.1-24.7-0.1-37,0c-5.8,0-9,3.2-9,9.1c0,9.1,0.2,18.3,0.5,27.4c0.2,6.2,3.4,9.2,9.5,9.3c5.8,0,11.7,0,17.5,0
	c6,0,11.9,0.1,17.8,0c5.6-0.1,8.9-3.1,9.1-8.7c0.3-9.4,0.5-18.7,0.5-28.1C177.4,190.4,174.2,187.2,168.4,187.2z M167.2,221
	c0,1.9-0.7,2.1-2.3,2.1c-10-0.1-20-0.1-30,0c-1.8,0-2.2-0.5-2.2-2.2c0-7.1-0.1-14.3-0.5-21.4c-0.1-2.3,0.7-2.8,2.8-2.7
	c5.1,0.1,10.1,0,15.2,0c5,0,9.9,0.1,14.8,0c1.9,0,2.8,0.2,2.7,2.5C167.4,206.5,167.2,213.8,167.2,221z M172.2,142.7
	c-7.1-2.9-14.5-4.4-22.2-4.4c-7.8,0-15.3,1.5-22.5,4.4c-5.6,2.2-8.5,6.4-8.7,12.4c-0.1,1.8,0.2,3.5,0.1,5.3
	c-0.4,11.1,6.3,13.3,14.4,8.1c9-5.7,19.1-6,29.1-2c2.9,1.1,5.4,2.9,8.2,4.2c4.4,2,9-0.3,9.7-5.1c0.5-3.4,0.6-6.8,0.6-10.2
	C181,149.2,177.9,145,172.2,142.7z M170.9,159.6c-13.9-7-27.9-7.2-41.8-0.1c-1.2-6.1-0.9-6.7,4.8-8.7c10.4-3.6,20.9-3.6,31.4-0.2
	C171.5,152.6,171.5,152.7,170.9,159.6z M172.2,142.7c-7.1-2.9-14.5-4.4-22.2-4.4c-7.8,0-15.3,1.5-22.5,4.4
	c-5.6,2.2-8.5,6.4-8.7,12.4c-0.1,1.8,0.2,3.5,0.1,5.3c-0.4,11.1,6.3,13.3,14.4,8.1c9-5.7,19.1-6,29.1-2c2.9,1.1,5.4,2.9,8.2,4.2
	c4.4,2,9-0.3,9.7-5.1c0.5-3.4,0.6-6.8,0.6-10.2C181,149.2,177.9,145,172.2,142.7z M170.9,159.6c-13.9-7-27.9-7.2-41.8-0.1
	c-1.2-6.1-0.9-6.7,4.8-8.7c10.4-3.6,20.9-3.6,31.4-0.2C171.5,152.6,171.5,152.7,170.9,159.6z M168.4,187.2c-12.3-0.1-24.7-0.1-37,0
	c-5.8,0-9,3.2-9,9.1c0,9.1,0.2,18.3,0.5,27.4c0.2,6.2,3.4,9.2,9.5,9.3c5.8,0,11.7,0,17.5,0c6,0,11.9,0.1,17.8,0
	c5.6-0.1,8.9-3.1,9.1-8.7c0.3-9.4,0.5-18.7,0.5-28.1C177.4,190.4,174.2,187.2,168.4,187.2z M167.2,221c0,1.9-0.7,2.1-2.3,2.1
	c-10-0.1-20-0.1-30,0c-1.8,0-2.2-0.5-2.2-2.2c0-7.1-0.1-14.3-0.5-21.4c-0.1-2.3,0.7-2.8,2.8-2.7c5.1,0.1,10.1,0,15.2,0
	c5,0,9.9,0.1,14.8,0c1.9,0,2.8,0.2,2.7,2.5C167.4,206.5,167.2,213.8,167.2,221z M167.1,288c-11.5,0-22.9,0-34.4,0
	c-4,0-6.2,1.8-6.2,4.9c0,3.1,2.2,4.9,6.1,4.9c5.6,0,11.2,0,16.9,0c5.8,0,11.7,0,17.5,0c4,0,6.1-1.8,6.2-4.9
	C173.2,289.8,171.1,288,167.1,288z M167.8,303.4c-11.9-0.1-23.8-0.1-35.7,0c-3.7,0-5.6,2.1-5.5,5.2c0.2,2.9,2.1,4.5,5.7,4.5
	c5.7,0,11.5,0,17.2,0c5.9,0,11.9,0,17.8,0c3.8,0,5.8-1.8,5.8-4.8C173.2,305.4,171.3,303.4,167.8,303.4z M76.6,209.2
	c-11.7,0-21.4,9.7-21.5,21.5c-0.1,11.9,9.6,21.7,21.5,21.6c11.8,0,21.4-9.6,21.6-21.4C98.4,219.2,88.3,209.2,76.6,209.2z
	 M76.6,242.6c-6.5-0.1-11.8-5.5-11.7-11.9c0.1-6.5,5.4-11.7,11.9-11.7c6.5,0,11.7,5.3,11.7,11.8C88.4,237.4,83,242.7,76.6,242.6z
	 M89.9,292.5c-4.4-0.1-8.8,0-13.2,0c-4.4,0-8.8,0-13.2,0c-3.4,0-5.5,2-5.5,4.8c0,2.7,2,4.8,5.1,4.9c9,0.1,18,0.2,27.1,0
	c3.3,0,5.4-2.4,5.2-5.2C95.1,294.2,93.2,292.5,89.9,292.5z M76.6,209.2c-11.7,0-21.4,9.7-21.5,21.5c-0.1,11.9,9.6,21.7,21.5,21.6
	c11.8,0,21.4-9.6,21.6-21.4C98.4,219.2,88.3,209.2,76.6,209.2z M76.6,242.6c-6.5-0.1-11.8-5.5-11.7-11.9c0.1-6.5,5.4-11.7,11.9-11.7
	c6.5,0,11.7,5.3,11.7,11.8C88.4,237.4,83,242.7,76.6,242.6z M89.9,292.5c-4.4-0.1-8.8,0-13.2,0c-4.4,0-8.8,0-13.2,0
	c-3.4,0-5.5,2-5.5,4.8c0,2.7,2,4.8,5.1,4.9c9,0.1,18,0.2,27.1,0c3.3,0,5.4-2.4,5.2-5.2C95.1,294.2,93.2,292.5,89.9,292.5z
	 M76.6,209.2c-11.7,0-21.4,9.7-21.5,21.5c-0.1,11.9,9.6,21.7,21.5,21.6c11.8,0,21.4-9.6,21.6-21.4C98.4,219.2,88.3,209.2,76.6,209.2
	z M76.6,242.6c-6.5-0.1-11.8-5.5-11.7-11.9c0.1-6.5,5.4-11.7,11.9-11.7c6.5,0,11.7,5.3,11.7,11.8C88.4,237.4,83,242.7,76.6,242.6z
	 M89.9,292.5c-4.4-0.1-8.8,0-13.2,0c-4.4,0-8.8,0-13.2,0c-3.4,0-5.5,2-5.5,4.8c0,2.7,2,4.8,5.1,4.9c9,0.1,18,0.2,27.1,0
	c3.3,0,5.4-2.4,5.2-5.2C95.1,294.2,93.2,292.5,89.9,292.5z M76.6,209.2c-11.7,0-21.4,9.7-21.5,21.5c-0.1,11.9,9.6,21.7,21.5,21.6
	c11.8,0,21.4-9.6,21.6-21.4C98.4,219.2,88.3,209.2,76.6,209.2z M76.6,242.6c-6.5-0.1-11.8-5.5-11.7-11.9c0.1-6.5,5.4-11.7,11.9-11.7
	c6.5,0,11.7,5.3,11.7,11.8C88.4,237.4,83,242.7,76.6,242.6z M76.6,209.2c-11.7,0-21.4,9.7-21.5,21.5c-0.1,11.9,9.6,21.7,21.5,21.6
	c11.8,0,21.4-9.6,21.6-21.4C98.4,219.2,88.3,209.2,76.6,209.2z M76.6,242.6c-6.5-0.1-11.8-5.5-11.7-11.9c0.1-6.5,5.4-11.7,11.9-11.7
	c6.5,0,11.7,5.3,11.7,11.8C88.4,237.4,83,242.7,76.6,242.6z"/>
<path class="st7" d="M173.2,308.3c0,3-2,4.8-5.8,4.8c-5.9,0-11.9,0-17.8,0c-5.7,0-11.5,0-17.2,0c-3.6,0-5.6-1.7-5.7-4.5
	c-0.2-3.1,1.8-5.2,5.5-5.2c11.9-0.1,23.8-0.1,35.7,0C171.3,303.4,173.2,305.4,173.2,308.3z"/>
<path class="st7" d="M173.2,292.9c0,3.1-2.2,4.8-6.2,4.9c-5.8,0-11.7,0-17.5,0c-5.6,0-11.2,0-16.9,0c-3.9,0-6.1-1.8-6.1-4.9
	c0-3.1,2.2-4.9,6.2-4.9c11.5,0,22.9,0,34.4,0C171.1,288,173.2,289.8,173.2,292.9z"/>
<path class="st7" d="M168.4,187.2c-12.3-0.1-24.7-0.1-37,0c-5.8,0-9,3.2-9,9.1c0,9.1,0.2,18.3,0.5,27.4c0.2,6.2,3.4,9.2,9.5,9.3
	c5.8,0,11.7,0,17.5,0c6,0,11.9,0.1,17.8,0c5.6-0.1,8.9-3.1,9.1-8.7c0.3-9.4,0.5-18.7,0.5-28.1C177.4,190.4,174.2,187.2,168.4,187.2z
	 M167.2,221c0,1.9-0.7,2.1-2.3,2.1c-10-0.1-20-0.1-30,0c-1.8,0-2.2-0.5-2.2-2.2c0-7.1-0.1-14.3-0.5-21.4c-0.1-2.3,0.7-2.8,2.8-2.7
	c5.1,0.1,10.1,0,15.2,0c5,0,9.9,0.1,14.8,0c1.9,0,2.8,0.2,2.7,2.5C167.4,206.5,167.2,213.8,167.2,221z"/>
<path class="st7" d="M172.2,142.7c-7.1-2.9-14.5-4.4-22.2-4.4c-7.8,0-15.3,1.5-22.5,4.4c-5.6,2.2-8.5,6.4-8.7,12.4
	c-0.1,1.8,0.2,3.5,0.1,5.3c-0.4,11.1,6.3,13.3,14.4,8.1c9-5.7,19.1-6,29.1-2c2.9,1.1,5.4,2.9,8.2,4.2c4.4,2,9-0.3,9.7-5.1
	c0.5-3.4,0.6-6.8,0.6-10.2C181,149.2,177.9,145,172.2,142.7z M170.9,159.6c-13.9-7-27.9-7.2-41.8-0.1c-1.2-6.1-0.9-6.7,4.8-8.7
	c10.4-3.6,20.9-3.6,31.4-0.2C171.5,152.6,171.5,152.7,170.9,159.6z"/>
<path class="st7" d="M249.4,252c-11.2-10.7-33.1-11.6-45.2-2c-10.6,8.5-10.7,21.1-0.4,29.9c9.7,8.2,28.6,9.3,40.2,2.4
	c6.4-3.8,10.8-9,11.1-15.7C255.3,260.6,253.2,255.7,249.4,252z M240.9,272.7c-4.5,3.3-9.8,4.3-15.1,4.5c-5.6-0.3-11-1.3-15.5-4.8
	c-5.6-4.3-5.6-10.3,0-14.6c7.9-6.1,22.7-6.3,30.7-0.3C247,262.1,247,268.2,240.9,272.7z"/>
<path class="st7" d="M256.2,303.9c0,3-2.3,5-6.1,5c-16.2,0-32.4,0-48.6,0c-4,0-6.2-1.8-6.2-4.9c0-3.2,2.1-4.9,6.4-4.9
	c8,0,16.1,0,24.1,0s16.1,0,24.1,0C253.9,299.1,256.2,300.8,256.2,303.9z"/>
<path class="st7" d="M76.6,209.2c-11.7,0-21.4,9.7-21.5,21.5c-0.1,11.9,9.6,21.7,21.5,21.6c11.8,0,21.4-9.6,21.6-21.4
	C98.4,219.2,88.3,209.2,76.6,209.2z M76.6,242.6c-6.5-0.1-11.8-5.5-11.7-11.9c0.1-6.5,5.4-11.7,11.9-11.7c6.5,0,11.7,5.3,11.7,11.8
	C88.4,237.4,83,242.7,76.6,242.6z"/>
<path class="st7" d="M95.3,297c0.2,2.8-1.9,5.1-5.2,5.2c-9,0.1-18.1,0.1-27.1,0c-3.2,0-5.1-2.2-5.1-4.9c0-2.8,2.2-4.8,5.5-4.8
	c4.4-0.1,8.8,0,13.2,0c4.4,0,8.8,0,13.2,0C93.2,292.5,95.1,294.2,95.3,297z"/>
<path class="st7" d="M168.4,187.2c-12.3-0.1-24.7-0.1-37,0c-5.8,0-9,3.2-9,9.1c0,9.1,0.2,18.3,0.5,27.4c0.2,6.2,3.4,9.2,9.5,9.3
	c5.8,0,11.7,0,17.5,0c6,0,11.9,0.1,17.8,0c5.6-0.1,8.9-3.1,9.1-8.7c0.3-9.4,0.5-18.7,0.5-28.1C177.4,190.4,174.2,187.2,168.4,187.2z
	 M167.2,221c0,1.9-0.7,2.1-2.3,2.1c-10-0.1-20-0.1-30,0c-1.8,0-2.2-0.5-2.2-2.2c0-7.1-0.1-14.3-0.5-21.4c-0.1-2.3,0.7-2.8,2.8-2.7
	c5.1,0.1,10.1,0,15.2,0c5,0,9.9,0.1,14.8,0c1.9,0,2.8,0.2,2.7,2.5C167.4,206.5,167.2,213.8,167.2,221z"/>
<path class="st7" d="M172.2,142.7c-7.1-2.9-14.5-4.4-22.2-4.4c-7.8,0-15.3,1.5-22.5,4.4c-5.6,2.2-8.5,6.4-8.7,12.4
	c-0.1,1.8,0.2,3.5,0.1,5.3c-0.4,11.1,6.3,13.3,14.4,8.1c9-5.7,19.1-6,29.1-2c2.9,1.1,5.4,2.9,8.2,4.2c4.4,2,9-0.3,9.7-5.1
	c0.5-3.4,0.6-6.8,0.6-10.2C181,149.2,177.9,145,172.2,142.7z M170.9,159.6c-13.9-7-27.9-7.2-41.8-0.1c-1.2-6.1-0.9-6.7,4.8-8.7
	c10.4-3.6,20.9-3.6,31.4-0.2C171.5,152.6,171.5,152.7,170.9,159.6z"/>
<path class="st7" d="M173.2,292.9c0,3.1-2.2,4.8-6.2,4.9c-5.8,0-11.7,0-17.5,0c-5.6,0-11.2,0-16.9,0c-3.9,0-6.1-1.8-6.1-4.9
	c0-3.1,2.2-4.9,6.2-4.9c11.5,0,22.9,0,34.4,0C171.1,288,173.2,289.8,173.2,292.9z"/>
<path class="st7" d="M173.2,308.3c0,3-2,4.8-5.8,4.8c-5.9,0-11.9,0-17.8,0c-5.7,0-11.5,0-17.2,0c-3.6,0-5.6-1.7-5.7-4.5
	c-0.2-3.1,1.8-5.2,5.5-5.2c11.9-0.1,23.8-0.1,35.7,0C171.3,303.4,173.2,305.4,173.2,308.3z"/>
<path class="st7" d="M249.4,252c-11.2-10.7-33.1-11.6-45.2-2c-10.6,8.5-10.7,21.1-0.4,29.9c9.7,8.2,28.6,9.3,40.2,2.4
	c6.4-3.8,10.8-9,11.1-15.7C255.3,260.6,253.2,255.7,249.4,252z M240.9,272.7c-4.5,3.3-9.8,4.3-15.1,4.5c-5.6-0.3-11-1.3-15.5-4.8
	c-5.6-4.3-5.6-10.3,0-14.6c7.9-6.1,22.7-6.3,30.7-0.3C247,262.1,247,268.2,240.9,272.7z"/>
<path class="st7" d="M256.2,303.9c0,3-2.3,5-6.1,5c-16.2,0-32.4,0-48.6,0c-4,0-6.2-1.8-6.2-4.9c0-3.2,2.1-4.9,6.4-4.9
	c8,0,16.1,0,24.1,0s16.1,0,24.1,0C253.9,299.1,256.2,300.8,256.2,303.9z"/>
<path class="st7" d="M76.6,209.2c-11.7,0-21.4,9.7-21.5,21.5c-0.1,11.9,9.6,21.7,21.5,21.6c11.8,0,21.4-9.6,21.6-21.4
	C98.4,219.2,88.3,209.2,76.6,209.2z M76.6,242.6c-6.5-0.1-11.8-5.5-11.7-11.9c0.1-6.5,5.4-11.7,11.9-11.7c6.5,0,11.7,5.3,11.7,11.8
	C88.4,237.4,83,242.7,76.6,242.6z"/>
<path class="st7" d="M95.3,297c0.2,2.8-1.9,5.1-5.2,5.2c-9,0.1-18.1,0.1-27.1,0c-3.2,0-5.1-2.2-5.1-4.9c0-2.8,2.2-4.8,5.5-4.8
	c4.4-0.1,8.8,0,13.2,0c4.4,0,8.8,0,13.2,0C93.2,292.5,95.1,294.2,95.3,297z"/>
</svg>
