<?xml version="1.0" encoding="utf-8"?>
<!-- Generator: Adobe Illustrator 24.3.0, SVG Export Plug-In . SVG Version: 6.00 Build 0)  -->
<svg version="1.1" id="Layer_1" xmlns="http://www.w3.org/2000/svg" xmlns:xlink="http://www.w3.org/1999/xlink" x="0px" y="0px"
	 viewBox="0 0 335.6 372" style="enable-background:new 0 0 335.6 372;" xml:space="preserve">
<style type="text/css">
	.st0{fill:#444343;}
	.st1{fill:#0071B2;}
	.st2{fill:#F39418;}
	.st3{fill:#0CA438;}
	.st4{fill:#696969;}
	.st5{fill:#8027B7;}
	.st6{fill:#1D3662;}
	.st7{fill:#1C3661;}
</style>
<path class="st0" d="M313.9,34.1c-0.5-4.5-2.3-5.5-6.4-5.4c-29.9,0.1-59.8,0.1-89.6,0.1c-3.7,0-7.4,0.4-10-3.2
	c-1-1.3-2.7-1.2-4.3-1.2c-21.6,0-43.1,0-64.7,0c-1.7,0-3.6-0.1-4.7,1.4c-2.4,3.2-5.7,3-9.1,3c-30.3,0-60.7,0-91,0
	c-1.9,0-4.6-0.8-5,2c-0.7,4.2-1.9,8.3-0.2,12.7c8.3,22,16.4,44.1,24.2,66.3c1.5,4.3,3.6,5.4,7.9,5.4c6.8-0.1,13.7-1,20.4,0.6
	c0.7,1,0.5,2.1,0.4,3.1c-0.1,1.9,0.5,3.1,2,3.5c0.3,0.1,0.7,0.1,1.1,0.1c2.1,0,4.3,0.5,6.3-0.2c0,0,0,0,0,0c0.5-0.2,0.9-0.4,1.3-0.7
	c0,0-0.1-0.1-0.1-0.1c0-6.3,0-6.3,6.3-6.3h144.5c6.3,0,6.3,0,6.3,6.3c0,0.1-0.1,0.2-0.1,0.3c0.1,0.1,0.3,0.3,0.5,0.3
	c0.2,0.1,0.3,0.1,0.5,0.2c0,0,0,0,0,0c0,0,0,0,0,0c3.1,0.9,5.3,1.1,6.8,0.3c1.8-0.9,2.8-3,3.3-6.7c1.7-0.9,3.6-0.3,5.4-0.4
	c6.8-0.3,13.7,0.5,20.6-0.4c0.6-1.4,1.4-2.7,1.9-4.2c7.9-21.6,15.8-43.3,23.8-64.9C313.9,41.9,314.4,38.2,313.9,34.1z M199,34.2
	c-19.1,0-38.1,0-57.2,0c-0.2,0-0.5-0.2-1-0.5c1-2.2,2.8-3.2,5-3.2c17-0.2,34.1-0.6,51.1,0.2c0.8-0.1,1.6,0,2.1,0.8
	c1.2,0.1,2.2,0.9,2.2,2C201.2,34.7,199.8,34.2,199,34.2z"/>
<path class="st0" d="M83.9,122.2c0.3,0.1,0.7,0.1,1.1,0.1c2.1,0,4.3,0.5,6.3-0.2C88.9,122.1,86.4,122.2,83.9,122.2z M250.7,122
	c3.1,0.9,5.3,1.1,6.8,0.3C255.2,122.1,253,122,250.7,122z M313.4,166.9c0.1,0,0.2,0,0.3,0c0.1-0.1,0.2-0.2,0.3-0.4
	C313.8,166.7,313.6,166.8,313.4,166.9z"/>
<path class="st0" d="M314.2,150c-9.2-9-17.7-18.6-27.4-27.1c-8.7-0.9-17.4,0.1-26.1-0.5c-1.1-0.1-2.1-0.1-3.2-0.2
	c-1.6,0.8-3.7,0.6-6.8-0.3c0,0,0,0,0,0c0,0,0,0,0,0c-0.4,0-0.7,0-1.1,0c-3.4-0.1-6.7-0.2-10.1-0.2c-24.2,0-48.4,0.1-72.6,0
	c-24.3-0.1-48.6,0-72.9,0.3c0,0,0,0,0,0c-0.9,0-1.7,0-2.6,0c0,0,0,0,0,0c-2,0.8-4.2,0.3-6.3,0.2c-0.4,0-0.8-0.1-1.1-0.1
	c-8.5,0.1-17.1,0.3-25.6,0.4c-0.9,0-1.9-0.1-2.7,0.3c-1.9,1.1-3.5,2.6-4.7,4.5c-1.6,1-2.8,2.3-3.8,3.9c-6.2,6.1-12.4,12.2-18.5,18.4
	c-3.9,3.9-5.1,12.3-2.6,17.8c0.1,0,0.1,0.1,0.2,0.1c1.5,0.9,3.2,0.4,4.7,0.4c93.5,0,187,0,280.6,0c1.6,0,3.4,0.5,4.9-0.5
	C318.9,162.5,317.8,153.6,314.2,150z M49.4,150.8c4.7-5.5,9.1-10.6,13.4-15.7c0.3-1,0.9-1.7,1.9-1.8c1.4-1.4,3-0.9,4.7-0.8
	c0.6,0,1.3,0,1.9,0c1.7-0.1,3.4-0.2,5.1-0.2c64,0,128.1,0.1,192.1-0.2c7.4,0,12.3,2.3,15.6,8.5c2.8,3.2,5.6,6.4,8.9,10.2H49.4z
	 M313.7,166.9c-0.3,0.2-0.8,0.2-1.3,0.2c0.4,0,0.7-0.1,1-0.2c0.2-0.1,0.4-0.2,0.6-0.3C313.9,166.7,313.8,166.9,313.7,166.9z"/>
<path class="st0" d="M314,166.6c-0.1,0.2-0.2,0.3-0.3,0.4c-0.3,0.2-0.8,0.2-1.3,0.2c0.4,0,0.7-0.1,1-0.2
	C313.6,166.8,313.8,166.7,314,166.6z"/>
<path class="st0" d="M314.5,171.1c-1.3-1.2-2.9-0.6-4.4-0.6c-92.6,0-185.3,0-277.9,0c-1.5,0-3.1-0.6-4.4,0.6
	c-1.4,1.4-0.6,3.2-0.6,4.8c0,45.4,0,90.9-0.1,136.3c0,12-0.5,10.6,10.8,10.6c0.6,0,1.3-0.1,1.8,0c0.9,0.2,2.4-0.7,2.6,1
	c0.1,1.1-0.8,1.5-1.8,1.8c-0.7,0.3-1.4,0.7-2,1.1c-3.7,2.8-4.8,8-2.6,12c2.3,4.2,7.5,6,11.9,4.2c4.2-1.8,7.1-6.9,5.3-11
	c-1.7-3.7-0.4-6,1.9-8.5c1.5-0.6,3-0.3,4.6-0.3c74.3,0,148.6,0,222.9,0c1.5,0,3.1-0.2,4.6,0.3c2.4,2.8,3.8,5.5,1.6,9.2
	c-0.7,1.3-0.6,3.3,0.7,4.8c2.1,4.7,5.5,6.8,9.9,6.1c4.4-0.7,7.7-4.3,8-8.7c0.3-4.7-2-7.8-6.8-9.3c-0.7-0.5-1.7-1.1-1.6-2
	c0.2-0.9,1.2-0.7,1.9-0.7c2.5,0,4.9,0,7.4,0c6.5,0,6.8-0.3,6.8-6.7c0-46.7,0-93.5,0-140.2C315.1,174.3,315.9,172.6,314.5,171.1z
	 M47.3,340c-3.3,1.7-6.3,0.9-8.4-2.3c-2.1-3.2-1.1-6.3,2.6-8.7c0.8,2.8-2.7,7,2,8.4c3.9,1.2,4.1-3.3,6.8-5.6
	C51.4,335.6,50.4,338.3,47.3,340z M299.6,337.1c2.7-1.2,1.8-3.8,1-6c0.2-1.1-0.3-3.4,2-1.2c2.4,2.3,2.5,6.2,0.2,8.7
	c-2.3,2.6-6.6,2.8-9.1,0.4c-0.9-0.9-1.5-2.3-2.3-3.4c0.3-1.1-0.2-2.5,1.1-3.4C294.8,333.9,295,339.1,299.6,337.1z"/>
<path class="st0" d="M314,166.6c-0.1,0.2-0.2,0.3-0.3,0.4c-0.3,0.2-0.8,0.2-1.3,0.2c0.4,0,0.7-0.1,1-0.2
	C313.6,166.8,313.8,166.7,314,166.6z"/>
</svg>
