<?xml version="1.0" encoding="utf-8"?>
<!-- Generator: Adobe Illustrator 24.3.0, SVG Export Plug-In . SVG Version: 6.00 Build 0)  -->
<svg version="1.1" id="Layer_1" xmlns="http://www.w3.org/2000/svg" xmlns:xlink="http://www.w3.org/1999/xlink" x="0px" y="0px"
	 viewBox="0 0 504 372" style="enable-background:new 0 0 504 372;" xml:space="preserve">
<style type="text/css">
	.st0{fill:#0071B2;}
	.st1{fill:#F39418;}
	.st2{fill:#0CA438;}
	.st3{fill:#696969;}
	.st4{fill:#8027B7;}
	.st5{fill:#1D3662;}
	.st6{fill:#1C3661;}
</style>
<g>
	<path class="st6" d="M261.1,212.4c-7.2,5.6-15.3,8.7-28.2,8.9c-5.6,0-13.9-2.9-21.2-8.6c-3.3-2.5-4-5.2-2.1-7.6
		c1.9-2.3,4.5-2.3,7.7,0.1c8.6,6.5,18,8.2,28.3,5.1c3.6-1.1,6.8-3.1,9.8-5.3c2.9-2.2,5.6-2.1,7.4,0.2
		C264.6,207.5,263.9,210.2,261.1,212.4z"/>
	<path class="st6" d="M295.2,165.1c-0.8-4.9-5.2-8.1-10.2-8.2c-11.1-0.1-22.2-0.1-33.2,0c-4.1,0-7.8,1.9-9.1,5.6
		c-1.3,3.9-3.7,4-6.8,3.8c-0.9-0.1-1.9-0.1-2.8,0c-1.4,0.1-2.2-0.2-2.7-1.8c-1.8-5.1-5.5-7.6-10.9-7.7c-5.2,0-10.5,0-15.7,0
		c-3.8,0-7.5,0.2-11.3,0c-12.1-0.9-16.7,4.2-16.1,16.4c0.6,11.3,8.1,20.6,19.2,22.8c4.1,0.8,8.3,0.6,12.5,0.4
		c10-0.5,17-5.5,21.2-14.6c0.9-2,0.2-5,2.3-5.8c2-0.8,4.5-0.2,6.8-0.2c0.2,0,0.4,0,0.6,0c1.7-0.3,2.3,0.4,2.7,2.1
		c2.5,10.2,8.9,16.3,19.1,18.3c3.9,0.8,7.9,0.4,11.9,0.3c5.3-0.1,10-1.9,14.1-5.2C295.3,184.3,296.9,175.1,295.2,165.1z M219,181.2
		c-2,2.7-4.6,4.7-7.9,5.3c-4.7,0.9-9.6,1-14.3,0c-6.7-1.4-10.8-7-10.9-14.2c0-6.9-0.7-6,6-6.1c4,0,7.9,0,11.9,0
		c4.8,0,9.6,0.1,14.4-0.1c2.8-0.1,3.6,1,3.5,3.6C221.7,173.9,221.5,177.8,219,181.2z M284.4,180.1c-4.4,9.5-27.3,9.5-31.9,0.1
		c-1.9-4-2.1-8-1.9-12.2c0.1-1.8,1.4-1.7,2.7-1.7c5,0,10,0,15,0c5,0,10,0.1,15,0c2.2-0.1,3,0.7,2.9,2.9
		C286.3,173,286.1,176.6,284.4,180.1z"/>
	<path class="st6" d="M352.8,326.6c-0.1-31.8-24.2-55.9-55.9-55.9c-2.4,0-4-0.7-5.5-2.6c-2-2.7-4.3-5.2-6.4-7.7
		c-1.3-1.5-2.8-2.3-4.9-2.3c-3.3,0.1-6.7,0.1-10,0c-0.7,0-1.4,0.3-1.9-0.6c-1-2,0.4-6.4,2.4-7.4c20.1-10.2,33.6-26,40.5-47.5
		c1.9-6,1.9-6,8.4-6.1c10.8-0.1,19.8-6.2,23.2-15.9c3.4-9.7,0.5-19.8-7.9-26.7c-1.1-0.9-1.4-1.8-1.4-3.2c0-6.7,0.1-13.4,0-20.1
		c0-1.7,0.4-2.9,1.7-4.1c5.1-4.8,8.7-10.6,11.2-17.1c3.2-8.4,3.1-17.2,2.6-26c-0.3-5.3-5.1-9.2-10.5-9.4c-2.7-0.1-5.3,0-8.6,0
		c9-8.8,12-19,11.9-30.8c-0.1-6.8-1.9-11.7-8.3-14.5h-97.8c-0.4,0.9-1.2,0.6-1.9,0.7c-15.4,2.7-28.2,9.9-38.1,22.2
		c-3.5,4.4-6.5,9.2-9.8,13.8c-4.1,5.5-9.7,8.4-16.6,8.6c-18,0.7-30.1,13.2-30.2,31.2c0,15,0,29.9,0,44.9c0,1.9-0.6,3-2,4.2
		c-12.8,10.6-11.2,30.3,3,38.9c5.2,3.1,10.8,3.6,16.6,3.3c2.3-0.1,3.1,0.6,3.7,2.8c6.1,22.6,19.6,39.4,40.4,50.1
		c2.7,1.4,3.7,2.9,3.5,5.9c-0.1,2.1-0.4,3.2-2.7,2.7c-9-1.7-15.8,1.6-20.3,9.5c-1.6,2.8-3.9,3.1-6.8,3.1c-20.1,0.3-35.7,9-46.6,25.8
		c-7.8,11.8-9.2,25.1-8.2,38.8c0.4,5.3,3.3,9.4,7.8,12.3c1.8,1.1,3.9,1.9,5.8,2.8h175c1.4-1.6,3.2-2.9,2.7-5.5
		c-0.5-2.6-2.3-3.9-5.8-3.9c-17.5,0-34.9,0-52.4,0c-2.2,0-3.4-0.4-4.6-2.5c-5.4-9.4-18.9-9.2-24.2,0.3c-1,1.7-1.9,2.2-3.8,2.2
		c-27.3-0.1-54.5,0-81.8-0.1c-6.4,0-9.2-2.9-9.5-9.3c-0.5-11.7,1.4-22.7,8.5-32.4c8.4-11.5,19.7-17.8,33.8-19.1
		c2-0.2,3.1-0.2,3.2,2.6c0.1,3.8,2,7,4.9,9.5c10,8.4,19.9,16.9,30,25.2c6.6,5.4,14.7,4.6,20.3-1.9c1.9-2.1,3.7-4.3,5.4-6.5
		c0.9-1.1,1.4-1.2,2.3,0c1.8,2.3,3.7,4.5,5.6,6.7c5.5,6.3,13.7,7,20.1,1.7c10.1-8.3,20-16.8,30-25.2c3.1-2.6,4.9-6,5-10.1
		c0.1-2,0.8-2.1,2.4-2c20.4,0.6,39.3,17.8,42.3,38.1c0.7,5,0.7,10,0.6,15c-0.1,4.5-3.3,7.6-7.8,7.8c-1.8,0.1-3.6,0.1-5.3,0
		c-2.6-0.1-5.1,0.2-6.2,3c-1.1,2.8,0.6,4.7,2.4,6.4h11.9c7.6-2.1,12.9-6.7,14.2-14.8C353,332.7,352.8,329.6,352.8,326.6z
		 M314.4,142.1c-0.3-1.2-0.6-2.4-1-3.9c3.7-0.8,6.9-2.2,10.5-3.6c0,4.5,0,8.6,0,12.8c0,1.3-0.5,1.5-1.7,1.4
		c-2.4-0.2-5.3,0.7-7.1-0.4C313.4,147.4,314.9,144.2,314.4,142.1z M334.6,172.8c-0.1,7.4-5.9,13.6-13.2,14.2c-0.7,0.1-1.5,0-2.2,0.1
		c-4.8,0-4.8,0-4.7-4.7c0.1-4.7,0.1-4.7,5.1-5c3.4-0.2,5.3-1.7,5.6-4.3c0.3-2.9-1.9-5-5.4-5.1c-5.3-0.2-5.3-0.2-5.3-5.5
		c0-1,0-2.1,0-3.1c0-0.7,0.2-1,1-1.2C325.2,155.8,334.7,163.2,334.6,172.8z M151.5,177.2c0.4,0.1,0.8,0.1,1.2,0.1
		c4.9,0.2,4.9,0.2,5.1,5.3c0.1,4.6,0.1,4.6-6,4.4c-7-0.2-12.7-5.2-14-12.1c-1.2-6.5,2.7-13.3,9.1-15.8c3.1-1.2,6.4-0.9,9.6-1
		c0.9,0,1.3,0.3,1.3,1.2c0,0.6,0,1.3,0,1.9c0,2.1,0.6,4.6-0.3,6.1c-1,1.5-3.7,0.3-5.6,0.5c-2.8,0.3-4.6,2-4.7,4.5
		C147,174.9,148.8,176.8,151.5,177.2z M168.4,192.2c-0.8-4.7-1.2-9.3-1.2-14c0-11,0-22,0-33c0-4.3,1.6-5.9,5.9-5.9c2.5,0,5,0,7.5,0
		c3.3-0.1,5.4-2,5.4-4.8c0-2.8-2.1-4.6-5.5-4.6c-2.6,0-5.2,0-7.8,0c-8.8,0.1-14.7,6-14.8,14.8c0,4.1,0,4.1-4.1,4.1
		c-5.3,0-5.3,0-5.3-5.5c0-12.7,0-25.3,0-38c0-12.9,8.3-21.5,21.1-21.9c9.8-0.3,17.7-4.4,23.6-12.2c2.9-3.8,5.4-7.9,8.3-11.8
		c10.4-13.8,24.4-21.1,41.6-21.2c28.5-0.2,57.1,0,85.6-0.1c2.8,0,3.6,1,3.5,3.6c-0.2,5,0.2,10-1.8,14.8
		c-4.3,10.6-12.3,16.3-23.6,17.3c-0.3,0-0.6,0-0.9,0c-3.2,0.2-5.1,2.1-5.1,4.8c0.1,2.7,2.1,4.6,5.2,4.6c9.9,0,19.9,0.1,29.8-0.1
		c3-0.1,3.9,0.8,3.9,3.9c0,7.8-0.1,15.5-3.9,22.6c-6.8,12.7-17.4,19.7-31.7,20c-16.4,0.4-32.8,0.1-49.2,0.1h-49.2
		c-0.8,0-1.7,0-2.5,0c-2.7,0.2-4.6,2.1-4.6,4.6c-0.1,2.6,1.9,4.6,4.8,4.8c0.8,0.1,1.7,0,2.5,0h92.5c5.5,0,6.9,1.3,6.9,6.8
		c0,10.9,0,21.8,0,32.7c-0.1,33.4-22,60.9-54.5,68.3C213.5,255.6,174.8,229.8,168.4,192.2z M228.1,302.7c-2,2.1-3.8,4.5-5.7,6.7
		c-1.1,1.2-2.3,2-3.9,2.1c-1.7-0.2-2.8-1-4-1.9c-9.4-7.9-18.8-15.8-28.3-23.8c-3.5-2.9-3.7-5.1-0.8-8.5c2.2-2.6,4-7,6.8-7.2
		c2.5-0.1,5.2,3.7,7.7,5.9c9.3,7.8,18.5,15.6,27.8,23.3C229.2,300.5,229.4,301.3,228.1,302.7z M237.7,292.9c-1.2,1-1.9,1-3.1,0
		c-6.5-5.6-13.1-11.1-19.7-16.6c-1-0.8-1.4-1.7-1.4-2.9c0.1-5.5,0-11.1,0-16.6c0-1.1-0.2-2.1,1.6-1.6c14.4,4.1,28.8,3.8,43.6-0.4
		c0,6.6,0,12.8,0,18.9c0,1.2-0.5,1.9-1.4,2.6C250.8,281.8,244.2,287.3,237.7,292.9z M286.7,285.2c-9.8,8.3-19.6,16.6-29.5,24.8
		c-2.7,2.2-5,2-7.4-0.7c-2-2.3-3.8-4.7-5.9-6.9c-1.2-1.3-0.8-1.9,0.4-2.9c11.4-9.5,22.7-19,34-28.6c1.3-1.1,2.1-1.5,3.3,0.2
		c1.6,2.3,3.6,4.3,5.4,6.5c0.9,1,1.6,2.2,1.7,3.6C288.8,282.9,288,284.2,286.7,285.2z"/>
	<path class="st6" d="M262.8,205.2c1.8,2.3,1.1,5-1.7,7.3c-7.2,5.6-15.3,8.7-28.2,8.9c-5.6,0-13.9-2.9-21.2-8.6
		c-3.3-2.5-4-5.2-2.1-7.6c1.9-2.3,4.5-2.3,7.7,0.1c8.6,6.5,18,8.2,28.3,5.1c3.6-1.1,6.8-3.1,9.8-5.3
		C258.3,202.7,261,202.8,262.8,205.2z"/>
	<path class="st6" d="M295.2,165.1c-0.8-4.9-5.2-8.1-10.2-8.2c-11.1-0.1-22.2-0.1-33.2,0c-4.1,0-7.8,1.9-9.1,5.6
		c-1.3,3.9-3.7,4-6.8,3.8c-0.9-0.1-1.9-0.1-2.8,0c-1.4,0.1-2.2-0.2-2.7-1.8c-1.8-5.1-5.5-7.6-10.9-7.7c-5.2,0-10.5,0-15.7,0
		c-3.8,0-7.5,0.2-11.3,0c-12.1-0.9-16.7,4.2-16.1,16.4c0.6,11.3,8.1,20.6,19.2,22.8c4.1,0.8,8.3,0.6,12.5,0.4
		c10-0.5,17-5.5,21.2-14.6c0.9-2,0.2-5,2.3-5.8c2-0.8,4.5-0.2,6.8-0.2c0.2,0,0.4,0,0.6,0c1.7-0.3,2.3,0.4,2.7,2.1
		c2.5,10.2,8.9,16.3,19.1,18.3c3.9,0.8,7.9,0.4,11.9,0.3c5.3-0.1,10-1.9,14.1-5.2C295.3,184.3,296.9,175.1,295.2,165.1z M219,181.2
		c-2,2.7-4.6,4.7-7.9,5.3c-4.7,0.9-9.6,1-14.3,0c-6.7-1.4-10.8-7-10.9-14.2c0-6.9-0.7-6,6-6.1c4,0,7.9,0,11.9,0
		c4.8,0,9.6,0.1,14.4-0.1c2.8-0.1,3.6,1,3.5,3.6C221.7,173.9,221.5,177.8,219,181.2z M284.4,180.1c-4.4,9.5-27.3,9.5-31.9,0.1
		c-1.9-4-2.1-8-1.9-12.2c0.1-1.8,1.4-1.7,2.7-1.7c5,0,10,0,15,0c5,0,10,0.1,15,0c2.2-0.1,3,0.7,2.9,2.9
		C286.3,173,286.1,176.6,284.4,180.1z"/>
	<path class="st6" d="M295.2,165.1c-0.8-4.9-5.2-8.1-10.2-8.2c-11.1-0.1-22.2-0.1-33.2,0c-4.1,0-7.8,1.9-9.1,5.6
		c-1.3,3.9-3.7,4-6.8,3.8c-0.9-0.1-1.9-0.1-2.8,0c-1.4,0.1-2.2-0.2-2.7-1.8c-1.8-5.1-5.5-7.6-10.9-7.7c-5.2,0-10.5,0-15.7,0
		c-3.8,0-7.5,0.2-11.3,0c-12.1-0.9-16.7,4.2-16.1,16.4c0.6,11.3,8.1,20.6,19.2,22.8c4.1,0.8,8.3,0.6,12.5,0.4
		c10-0.5,17-5.5,21.2-14.6c0.9-2,0.2-5,2.3-5.8c2-0.8,4.5-0.2,6.8-0.2c0.2,0,0.4,0,0.6,0c1.7-0.3,2.3,0.4,2.7,2.1
		c2.5,10.2,8.9,16.3,19.1,18.3c3.9,0.8,7.9,0.4,11.9,0.3c5.3-0.1,10-1.9,14.1-5.2C295.3,184.3,296.9,175.1,295.2,165.1z M219,181.2
		c-2,2.7-4.6,4.7-7.9,5.3c-4.7,0.9-9.6,1-14.3,0c-6.7-1.4-10.8-7-10.9-14.2c0-6.9-0.7-6,6-6.1c4,0,7.9,0,11.9,0
		c4.8,0,9.6,0.1,14.4-0.1c2.8-0.1,3.6,1,3.5,3.6C221.7,173.9,221.5,177.8,219,181.2z M284.4,180.1c-4.4,9.5-27.3,9.5-31.9,0.1
		c-1.9-4-2.1-8-1.9-12.2c0.1-1.8,1.4-1.7,2.7-1.7c5,0,10,0,15,0c5,0,10,0.1,15,0c2.2-0.1,3,0.7,2.9,2.9
		C286.3,173,286.1,176.6,284.4,180.1z"/>
	<path class="st6" d="M261.1,212.4c-7.2,5.6-15.3,8.7-28.2,8.9c-5.6,0-13.9-2.9-21.2-8.6c-3.3-2.5-4-5.2-2.1-7.6
		c1.9-2.3,4.5-2.3,7.7,0.1c8.6,6.5,18,8.2,28.3,5.1c3.6-1.1,6.8-3.1,9.8-5.3c2.9-2.2,5.6-2.1,7.4,0.2
		C264.6,207.5,263.9,210.2,261.1,212.4z"/>
</g>
</svg>
