<?xml version="1.0" encoding="utf-8"?>
<!-- Generator: Adobe Illustrator 24.3.0, SVG Export Plug-In . SVG Version: 6.00 Build 0)  -->
<svg version="1.1" id="Layer_1" xmlns="http://www.w3.org/2000/svg" xmlns:xlink="http://www.w3.org/1999/xlink" x="0px" y="0px"
	 viewBox="0 0 373.5 372" style="enable-background:new 0 0 373.5 372;" xml:space="preserve">
<style type="text/css">
	.st0{fill:#0071B2;}
	.st1{fill:#F39418;}
	.st2{fill:#0CA438;}
	.st3{fill:#696969;}
	.st4{fill:#8027B7;}
	.st5{fill:#1D3662;}
	.st6{fill:#1C3661;}
	.st7{fill:#444343;}
</style>
<g>
	<path class="st7" d="M350.7,160.9H28c-5.5,0-10-4.5-10-10v0c0-5.5,4.5-10,10-10h322.7c5.5,0,10,4.5,10,10v0
		C360.8,156.4,356.3,160.9,350.7,160.9z"/>
	<path class="st7" d="M360.8,121.1h-340v-12c0,0,28.9-84.8,184.1-83.4c0,0,125.3,7,155.9,82.7V121.1z"/>
	<g>
		<path class="st7" d="M150.3,215.6c-10.2,0-19.2-3.3-27.2-6.2c-4.9-1.8-9.5-3.5-13.5-4c-5.8-0.8-13.3,1.3-21.2,3.6
			c-6.6,1.9-13.4,3.8-20.9,4.7c-18.3,2.1-43.4-8.3-46.7-9.6v-22.8c0,0,4.1,1.2,4.1,1.2l0,0c10.4,4,30.4,9.9,40.1,8.8
			c5.7-0.6,11.3-2.3,17.4-4c9.8-2.8,19.8-5.6,30.3-4.2c6.4,0.9,12.4,3.1,18.2,5.2c8,2.9,15.5,5.7,23,4.6c6.4-0.9,11.3-3.1,16.5-5.5
			c6.6-3,13.4-6.1,22.3-5.7c7.4,0.3,14.5,3.3,21.4,6.1c6.4,2.6,13,5.3,18.6,5.3c0,0,0.1,0,0.1,0c5.1,0,12.1-2.6,18.8-5.2
			c9-3.4,18.3-6.8,27.6-6.3c8.4,0.5,15.4,3.2,21.6,5.6c5.2,2,9.7,3.8,14.4,3.9c8.1,0.3,33.6-5.3,45.7-9v23.7
			c-5.9,1.8-32.5,8.4-46.6,7.8c-8.3-0.3-15.4-3-21.5-5.4c-5.3-2-9.9-3.8-14.8-4.1c-4.5-0.3-11.6,2.4-18.4,4.9
			c-8.6,3.2-17.5,6.5-26.5,6.6c-0.1,0-0.2,0-0.2,0c-10,0-19.1-3.7-27.1-7c-5.3-2.2-10.4-4.3-13.9-4.4c-3.3-0.1-6.5,1.2-12,3.7
			c-5.8,2.6-13,5.9-22.6,7.3C154.7,215.5,152.5,215.6,150.3,215.6z"/>
	</g>
	<path class="st7" d="M339.7,233.7H202.2l-9.3,16.9c0,0-7,17.9-29.6,9.9L63.1,233.7H41.9c-11.7,0-21.1,9.5-21.1,21.1v0
		c0,11.7,9.5,21.1,21.1,21.1h297.7c11.7,0,21.1-9.5,21.1-21.1v0C360.8,243.2,351.3,233.7,339.7,233.7z"/>
	<path class="st7" d="M20.8,296.2h340c0,0,2.6,23.8-15.8,42.2H36.1C36.1,338.4,20.8,319.9,20.8,296.2z"/>
</g>
</svg>
