<?xml version="1.0" encoding="utf-8"?>
<!-- Generator: Adobe Illustrator 24.3.0, SVG Export Plug-In . SVG Version: 6.00 Build 0)  -->
<svg version="1.1" id="Layer_1" xmlns="http://www.w3.org/2000/svg" xmlns:xlink="http://www.w3.org/1999/xlink" x="0px" y="0px"
	 viewBox="0 0 265.4 372" style="enable-background:new 0 0 265.4 372;" xml:space="preserve">
<style type="text/css">
	.st0{fill:#0071B2;}
	.st1{fill:#F39418;}
	.st2{fill:#0CA438;}
	.st3{fill:#696969;}
	.st4{fill:#8027B7;}
	.st5{fill:#1D3662;}
	.st6{fill:#1C3661;}
	.st7{fill:#444343;}
</style>
<g>
	<path class="st7" d="M97.5,215.3c-1-18.9-1.8-37.7-2.7-56.6h-0.1c-0.8-17.3-1.5-34.6-2.5-51.9c-0.2-2.8,0.9-6.8-1.1-8.2
		c-2-1.3-5.6-0.1-8.5-0.1c-1.8,0-2.3,0.7-2.2,2.4c0.4,6.1,0.6,12.3,0.9,18.4c1.5,31.1,3,62.2,4.5,93.4c0.3,6,0.2,6,6.3,5.8
		c0.8,0,1.6-0.2,2.3-0.1C97.2,218.9,97.7,217.7,97.5,215.3z M141.9,98.4c-0.6,0-1.1,0-1.7-0.1c-2-0.4-2.6,0.4-2.7,2.5
		c-1.7,36.6-3.5,73.1-5.2,109.7c-0.4,7.7-0.4,7.7,7.4,8.1c0.4,0,0.9,0,1.3,0.1c1.9,0.4,2.4-0.4,2.5-2.3c0.8-19.3,1.8-38.6,2.7-57.9
		h0c0.9-17.5,1.8-35,2.6-52.5C149.2,98.7,149.1,98.7,141.9,98.4z M141.9,98.4c-0.6,0-1.1,0-1.7-0.1c-2-0.4-2.6,0.4-2.7,2.5
		c-1.7,36.6-3.5,73.1-5.2,109.7c-0.4,7.7-0.4,7.7,7.4,8.1c0.4,0,0.9,0,1.3,0.1c1.9,0.4,2.4-0.4,2.5-2.3c0.8-19.3,1.8-38.6,2.7-57.9
		h0c0.9-17.5,1.8-35,2.6-52.5C149.2,98.7,149.1,98.7,141.9,98.4z M97.5,215.3c-1-18.9-1.8-37.7-2.7-56.6h-0.1
		c-0.8-17.3-1.5-34.6-2.5-51.9c-0.2-2.8,0.9-6.8-1.1-8.2c-2-1.3-5.6-0.1-8.5-0.1c-1.8,0-2.3,0.7-2.2,2.4c0.4,6.1,0.6,12.3,0.9,18.4
		c1.5,31.1,3,62.2,4.5,93.4c0.3,6,0.2,6,6.3,5.8c0.8,0,1.6-0.2,2.3-0.1C97.2,218.9,97.7,217.7,97.5,215.3z M97.5,215.3
		c-1-18.9-1.8-37.7-2.7-56.6h-0.1c-0.8-17.3-1.5-34.6-2.5-51.9c-0.2-2.8,0.9-6.8-1.1-8.2c-2-1.3-5.6-0.1-8.5-0.1
		c-1.8,0-2.3,0.7-2.2,2.4c0.4,6.1,0.6,12.3,0.9,18.4c1.5,31.1,3,62.2,4.5,93.4c0.3,6,0.2,6,6.3,5.8c0.8,0,1.6-0.2,2.3-0.1
		C97.2,218.9,97.7,217.7,97.5,215.3z M115.3,270.1c-15.5-0.5-28.8,12.6-29,28.4c-0.2,15.4,12.4,28.3,28.1,28.7
		c15.6,0.4,28.9-12.5,29.1-28.4C143.7,283.5,131,270.6,115.3,270.1z M114.8,315.8c-9.5,0-17.2-7.8-17-17.3c0.1-9.4,7.8-17,17.1-17
		c9.3,0,17,7.7,17.1,17C132.1,307.9,124.3,315.8,114.8,315.8z M141.9,98.4c-0.6,0-1.1,0-1.7-0.1c-2-0.4-2.6,0.4-2.7,2.5
		c-1.7,36.6-3.5,73.1-5.2,109.7c-0.4,7.7-0.4,7.7,7.4,8.1c0.4,0,0.9,0,1.3,0.1c1.9,0.4,2.4-0.4,2.5-2.3c0.8-19.3,1.8-38.6,2.7-57.9
		h0c0.9-17.5,1.8-35,2.6-52.5C149.2,98.7,149.1,98.7,141.9,98.4z M141.9,98.4c-0.6,0-1.1,0-1.7-0.1c-2-0.4-2.6,0.4-2.7,2.5
		c-1.7,36.6-3.5,73.1-5.2,109.7c-0.4,7.7-0.4,7.7,7.4,8.1c0.4,0,0.9,0,1.3,0.1c1.9,0.4,2.4-0.4,2.5-2.3c0.8-19.3,1.8-38.6,2.7-57.9
		h0c0.9-17.5,1.8-35,2.6-52.5C149.2,98.7,149.1,98.7,141.9,98.4z M94.9,158.7L94.9,158.7c-0.9-17.3-1.6-34.6-2.5-51.9
		c-0.2-2.8,0.9-6.8-1.1-8.2c-2-1.3-5.6-0.1-8.5-0.1c-1.8,0-2.3,0.7-2.2,2.4c0.4,6.1,0.6,12.3,0.9,18.4c1.5,31.1,3,62.2,4.5,93.4
		c0.3,6,0.2,6,6.3,5.8c0.8,0,1.6-0.2,2.3-0.1c2.6,0.4,3.1-0.8,2.9-3.2C96.6,196.4,95.7,177.6,94.9,158.7z M115.3,270.1
		c-15.5-0.5-28.8,12.6-29,28.4c-0.2,15.4,12.4,28.3,28.1,28.7c15.6,0.4,28.9-12.5,29.1-28.4C143.7,283.5,131,270.6,115.3,270.1z
		 M114.8,315.8c-9.5,0-17.2-7.8-17-17.3c0.1-9.4,7.8-17,17.1-17c9.3,0,17,7.7,17.1,17C132.1,307.9,124.3,315.8,114.8,315.8z
		 M252.1,104.2c-0.1-9.9-7.5-16.9-17.3-17.1c-5.4-0.1-10.7,0-16.1,0h-26c0.8-6,2.2-11.7,2.3-17.4c0.3-16.2-12.9-31.2-29-33.6
		c-6.6-1-13.2-0.4-19.7-0.5c-2.1,0-2.9-0.4-2.8-2.7c0.2-4-0.1-8,0.1-12.1c0.1-3.5-0.9-6.3-4-8.1H89.9c-3.2,2-3.9,5-3.8,8.6
		c0.1,4-0.1,8,0.1,12.1c0.1,1.7-0.4,2.3-2.2,2.3c-4.7-0.1-9.4-0.1-14.1,0c-15.1,0.3-26.7,7-32,21c-2.7,7.2-6.2,8.6-12.6,7.7
		c-2.9-0.4-5.6,0.1-7.1,3.1c-1.5,2.9-0.1,5.1,1.4,7.4c6.5,9.7,13,19.5,19.5,29.2c0.8,1.2,1.6,2.4,1.8,3.9
		c2.2,18.4,4.5,36.8,6.8,55.1c2.8,22.3,5.5,44.5,8.4,66.8c1.1,8.8,1.9,17.5,0.6,26.3c-1.7,11.2-6.3,21.3-11.4,31.2
		c-3.8,7.5-6.8,15.2-8.6,23.4c-2.9,13-1.9,26.2-1.9,39.4c0,3.9,2.5,5.7,7.1,5.7c48.5,0,97,0,145.4,0c5.4,0,7.4-2,7.5-7.5
		c0.1-5.7,0-11.4,0-17.1c-0.1-8.4-0.6-16.7-2.7-24.9c-2.9-11.4-8.3-21.8-13-32.5c-5.7-13-8.6-26.4-6.2-40.7c0.4-2.4,1.1-3.5,3.7-4.1
		c20.6-4.5,41.1-9.2,61.6-13.9c8.2-1.9,13.6-8.3,13.7-16.4C252.2,167.2,252.2,135.7,252.1,104.2z M187.7,124c0.3-2.2,1-2.7,3.1-2.7
		c8.2,0.1,16.3,0.1,24.5,0c2,0,2.7,0.4,2.7,2.6c-0.1,19.8-0.1,39.5,0,59.3c0,1.5-0.2,2.3-2,2.7c-12.4,2.7-24.7,5.5-37.4,8.3
		c1-7.6,1.9-14.9,2.9-22.1C183.4,156,185.7,140,187.7,124z M98.3,24.7c1.4-1.8,5.4-0.5,8.3-0.5c7.7-0.1,15.4,0,23.1-0.1
		c1.8,0,2.6,0.4,2.5,2.4c-0.2,2.9,0.9,6.6-0.5,8.4c-1.5,1.9-5.4,0.5-8.3,0.6c-2.9,0.1-5.8,0-8.7,0c-4.9,0-9.8-0.1-14.7,0
		c-1.7,0-2.4-0.4-2.3-2.2C97.9,30.4,96.8,26.5,98.3,24.7z M70.2,47c13.9-0.1,27.9,0.1,41.9,0.1c15.7,0,31.5-0.1,47.2-0.1
		c10.6,0,19.5,5.9,22.6,14.7c0.6,1.6,1,2.6-1.5,2.6c-44.3-0.1-88.6,0-133.2,0C49.8,53.7,58.7,47,70.2,47z M181.3,309.6
		c2.8,11,2.1,22.2,2.2,33.3c0,2.1-1.4,1.6-2.5,1.6c-9.9,0-19.9,0-29.8,0H115c-21.9,0-43.8,0-65.7,0.1c-2.4,0-3.2-0.5-3.1-3.1
		c0-12.4-0.2-24.8,4.1-36.7c2.2-6.2,5.2-12.1,8.1-17.9c5.7-11.3,9.7-23,10.2-35.7c0.1-3,1-4,4.2-4c28.2,0.2,56.5,0.1,84.8,0
		c2.4,0,3.4,0.4,3.6,3.2c0.8,10.2,4,19.8,8.1,29.1C173.6,289.4,178.6,299,181.3,309.6z M169,177.5c-2.5,18.7-5,37.4-7.4,56.1
		c-0.2,1.8-1,2.1-2.6,2.1c-29.5,0-59-0.1-88.5,0c-2.1,0-2.4-1.1-2.5-2.6c-1.6-13.2-3.2-26.4-4.9-39.5c-2.8-22.3-5.5-44.5-8.3-66.8
		c-0.8-6.4-1.7-12.8-2.4-19.3c-0.4-3.4-1.3-6.4-3.3-9.3c-5-7.3-9.9-14.8-15.1-22.6h136.7c3,0,6,0.1,9.1,0c2.1-0.1,2.9,0.3,2.6,2.7
		c-1.8,12.3-3.4,24.5-5,36.8C174.6,135.9,171.8,156.7,169,177.5z M240.7,196.8c0,4.5-1.5,6.5-5.7,7.4c-19.8,4.5-39.5,8.9-59.4,13.4
		c-0.2-0.4-0.3-0.5-0.2-0.6c0.6-3.5-0.3-7.8,1.9-10.3c2.1-2.4,6.4-1.9,9.8-2.7c11.6-2.7,23.3-5.2,34.9-7.7c6.2-1.4,7.3-2.8,7.3-9.1
		c0-23,0-46,0-69c0-6.4-1.8-8.2-8.1-8.2c-9.6,0-19.2-0.1-28.8,0.1c-2.4,0-2.9-0.7-2.4-2.8c0.7-2.8-0.3-6.7,1.7-8.2
		c1.8-1.4,5.3-0.4,8.1-0.5c11.2,0,22.3,0,33.5,0c5.4,0,7.4,2,7.5,7.5C240.7,136.3,240.7,166.6,240.7,196.8z M141.9,98.4
		c-0.6,0-1.1,0-1.7-0.1c-2-0.4-2.6,0.4-2.7,2.5c-1.7,36.6-3.5,73.1-5.2,109.7c-0.4,7.7-0.4,7.7,7.4,8.1c0.4,0,0.9,0,1.3,0.1
		c1.9,0.4,2.4-0.4,2.5-2.3c0.8-19.3,1.8-38.6,2.7-57.9h0c0.9-17.5,1.8-35,2.6-52.5C149.2,98.7,149.1,98.7,141.9,98.4z M115.3,270.1
		c-15.5-0.5-28.8,12.6-29,28.4c-0.2,15.4,12.4,28.3,28.1,28.7c15.6,0.4,28.9-12.5,29.1-28.4C143.7,283.5,131,270.6,115.3,270.1z
		 M114.8,315.8c-9.5,0-17.2-7.8-17-17.3c0.1-9.4,7.8-17,17.1-17c9.3,0,17,7.7,17.1,17C132.1,307.9,124.3,315.8,114.8,315.8z
		 M94.9,158.7L94.9,158.7c-0.9-17.3-1.6-34.6-2.5-51.9c-0.2-2.8,0.9-6.8-1.1-8.2c-2-1.3-5.6-0.1-8.5-0.1c-1.8,0-2.3,0.7-2.2,2.4
		c0.4,6.1,0.6,12.3,0.9,18.4c1.5,31.1,3,62.2,4.5,93.4c0.3,6,0.2,6,6.3,5.8c0.8,0,1.6-0.2,2.3-0.1c2.6,0.4,3.1-0.8,2.9-3.2
		C96.6,196.4,95.7,177.6,94.9,158.7z M97.5,215.3c-1-18.9-1.8-37.7-2.7-56.6h-0.1c-0.8-17.3-1.5-34.6-2.5-51.9
		c-0.2-2.8,0.9-6.8-1.1-8.2c-2-1.3-5.6-0.1-8.5-0.1c-1.8,0-2.3,0.7-2.2,2.4c0.4,6.1,0.6,12.3,0.9,18.4c1.5,31.1,3,62.2,4.5,93.4
		c0.3,6,0.2,6,6.3,5.8c0.8,0,1.6-0.2,2.3-0.1C97.2,218.9,97.7,217.7,97.5,215.3z M141.9,98.4c-0.6,0-1.1,0-1.7-0.1
		c-2-0.4-2.6,0.4-2.7,2.5c-1.7,36.6-3.5,73.1-5.2,109.7c-0.4,7.7-0.4,7.7,7.4,8.1c0.4,0,0.9,0,1.3,0.1c1.9,0.4,2.4-0.4,2.5-2.3
		c0.8-19.3,1.8-38.6,2.7-57.9h0c0.9-17.5,1.8-35,2.6-52.5C149.2,98.7,149.1,98.7,141.9,98.4z M141.9,98.4c-0.6,0-1.1,0-1.7-0.1
		c-2-0.4-2.6,0.4-2.7,2.5c-1.7,36.6-3.5,73.1-5.2,109.7c-0.4,7.7-0.4,7.7,7.4,8.1c0.4,0,0.9,0,1.3,0.1c1.9,0.4,2.4-0.4,2.5-2.3
		c0.8-19.3,1.8-38.6,2.7-57.9h0c0.9-17.5,1.8-35,2.6-52.5C149.2,98.7,149.1,98.7,141.9,98.4z M97.5,215.3c-1-18.9-1.8-37.7-2.7-56.6
		h-0.1c-0.8-17.3-1.5-34.6-2.5-51.9c-0.2-2.8,0.9-6.8-1.1-8.2c-2-1.3-5.6-0.1-8.5-0.1c-1.8,0-2.3,0.7-2.2,2.4
		c0.4,6.1,0.6,12.3,0.9,18.4c1.5,31.1,3,62.2,4.5,93.4c0.3,6,0.2,6,6.3,5.8c0.8,0,1.6-0.2,2.3-0.1C97.2,218.9,97.7,217.7,97.5,215.3
		z M97.5,215.3c-1-18.9-1.8-37.7-2.7-56.6h-0.1c-0.8-17.3-1.5-34.6-2.5-51.9c-0.2-2.8,0.9-6.8-1.1-8.2c-2-1.3-5.6-0.1-8.5-0.1
		c-1.8,0-2.3,0.7-2.2,2.4c0.4,6.1,0.6,12.3,0.9,18.4c1.5,31.1,3,62.2,4.5,93.4c0.3,6,0.2,6,6.3,5.8c0.8,0,1.6-0.2,2.3-0.1
		C97.2,218.9,97.7,217.7,97.5,215.3z M141.9,98.4c-0.6,0-1.1,0-1.7-0.1c-2-0.4-2.6,0.4-2.7,2.5c-1.7,36.6-3.5,73.1-5.2,109.7
		c-0.4,7.7-0.4,7.7,7.4,8.1c0.4,0,0.9,0,1.3,0.1c1.9,0.4,2.4-0.4,2.5-2.3c0.8-19.3,1.8-38.6,2.7-57.9h0c0.9-17.5,1.8-35,2.6-52.5
		C149.2,98.7,149.1,98.7,141.9,98.4z M141.9,98.4c-0.6,0-1.1,0-1.7-0.1c-2-0.4-2.6,0.4-2.7,2.5c-1.7,36.6-3.5,73.1-5.2,109.7
		c-0.4,7.7-0.4,7.7,7.4,8.1c0.4,0,0.9,0,1.3,0.1c1.9,0.4,2.4-0.4,2.5-2.3c0.8-19.3,1.8-38.6,2.7-57.9h0c0.9-17.5,1.8-35,2.6-52.5
		C149.2,98.7,149.1,98.7,141.9,98.4z M97.5,215.3c-1-18.9-1.8-37.7-2.7-56.6h-0.1c-0.8-17.3-1.5-34.6-2.5-51.9
		c-0.2-2.8,0.9-6.8-1.1-8.2c-2-1.3-5.6-0.1-8.5-0.1c-1.8,0-2.3,0.7-2.2,2.4c0.4,6.1,0.6,12.3,0.9,18.4c1.5,31.1,3,62.2,4.5,93.4
		c0.3,6,0.2,6,6.3,5.8c0.8,0,1.6-0.2,2.3-0.1C97.2,218.9,97.7,217.7,97.5,215.3z"/>
	<path class="st7" d="M97.5,215.3c0.1,2.5-0.3,3.6-2.9,3.2c-0.8-0.1-1.6,0-2.3,0.1c-6.1,0.2-6.1,0.2-6.3-5.8
		c-1.5-31.1-3-62.3-4.5-93.4c-0.3-6.1-0.5-12.3-0.9-18.4c-0.1-1.7,0.4-2.4,2.2-2.4c2.9,0,6.5-1.2,8.5,0.1c2.1,1.4,1,5.4,1.1,8.2
		c0.9,17.3,1.7,34.6,2.5,51.9h0.1C95.7,177.6,96.6,196.4,97.5,215.3z"/>
	<path class="st7" d="M148.8,106c-0.8,17.5-1.7,35-2.6,52.5h0c-0.9,19.3-1.9,38.6-2.7,57.9c-0.1,1.9-0.6,2.7-2.5,2.3
		c-0.4-0.1-0.9-0.1-1.3-0.1c-7.8-0.4-7.8-0.4-7.4-8.1c1.8-36.6,3.5-73.1,5.2-109.7c0.1-2.1,0.7-2.9,2.7-2.5c0.5,0.1,1.1,0.1,1.7,0.1
		C149.1,98.7,149.2,98.7,148.8,106z"/>
	<path class="st7" d="M115.3,270.1c-15.5-0.5-28.8,12.6-29,28.4c-0.2,15.4,12.4,28.3,28.1,28.7c15.6,0.4,28.9-12.5,29.1-28.4
		C143.7,283.5,131,270.6,115.3,270.1z M114.8,315.8c-9.5,0-17.2-7.8-17-17.3c0.1-9.4,7.8-17,17.1-17c9.3,0,17,7.7,17.1,17
		C132.1,307.9,124.3,315.8,114.8,315.8z"/>
	<path class="st7" d="M94.6,218.5c-0.8-0.1-1.6,0-2.3,0.1c-6.1,0.2-6.1,0.2-6.3-5.8c-1.5-31.1-3-62.3-4.5-93.4
		c-0.3-6.1-0.5-12.3-0.9-18.4c-0.1-1.7,0.4-2.4,2.2-2.4c2.9,0,6.5-1.2,8.5,0.1c2.1,1.4,1,5.4,1.1,8.2c0.9,17.3,1.7,34.6,2.5,51.9
		h0.1c0.9,18.9,1.7,37.7,2.7,56.6C97.7,217.7,97.2,218.9,94.6,218.5z"/>
	<path class="st7" d="M148.8,106c-0.8,17.5-1.7,35-2.6,52.5h0c-0.9,19.3-1.9,38.6-2.7,57.9c-0.1,1.9-0.6,2.7-2.5,2.3
		c-0.4-0.1-0.9-0.1-1.3-0.1c-7.8-0.4-7.8-0.4-7.4-8.1c1.8-36.6,3.5-73.1,5.2-109.7c0.1-2.1,0.7-2.9,2.7-2.5c0.5,0.1,1.1,0.1,1.7,0.1
		C149.1,98.7,149.2,98.7,148.8,106z"/>
	<path class="st7" d="M115.3,270.1c-15.5-0.5-28.8,12.6-29,28.4c-0.2,15.4,12.4,28.3,28.1,28.7c15.6,0.4,28.9-12.5,29.1-28.4
		C143.7,283.5,131,270.6,115.3,270.1z M114.8,315.8c-9.5,0-17.2-7.8-17-17.3c0.1-9.4,7.8-17,17.1-17c9.3,0,17,7.7,17.1,17
		C132.1,307.9,124.3,315.8,114.8,315.8z"/>
</g>
</svg>
