<svg id="Capa_1" data-name="Capa 1" xmlns="http://www.w3.org/2000/svg" viewBox="0 0 933.68 226.45"><defs><style>.cls-1,.cls-3,.cls-5{fill:#1d3661;}.cls-2{fill:#f4c031;}.cls-3{font-size:143.27px;font-family:ClarendonBT-Roman, Clarendon BT;letter-spacing:-0.04em;}.cls-4{letter-spacing:0em;}.cls-5{font-size:35.83px;font-family:Poppins-SemiBold, Poppins;font-weight:600;}</style></defs><title>logo oficial</title><path class="cls-1" d="M37.52,175.67a95.84,95.84,0,0,0,9.9,9.32H169a95.74,95.74,0,0,0,9.89-9.32Z"/><path class="cls-1" d="M195.45,151a98.56,98.56,0,0,0,3.76-9.32H148a75.88,75.88,0,0,1-7.52,9.32Z"/><path class="cls-1" d="M31.13,168H54a75.54,75.54,0,0,1-15.32-9.32H25A95,95,0,0,0,31.13,168Z"/><path class="cls-1" d="M58.29,192.67a96.22,96.22,0,0,0,99.83,0Z"/><path class="cls-1" d="M132.09,158.67A75.89,75.89,0,0,1,116.76,168h68.52a98.78,98.78,0,0,0,6.16-9.32Z"/><path class="cls-1" d="M30.2,151a75.8,75.8,0,0,1-7.51-9.32H17.2A96,96,0,0,0,21,151Z"/><path class="cls-2" d="M108.2,14.25A95.75,95.75,0,0,0,68,23.06l1,1.81A75.87,75.87,0,0,1,152.63,134h48.86A96.29,96.29,0,0,0,108.2,14.25Z"/><polygon class="cls-1" points="87.21 50.43 93.25 58.17 76.06 102.32 66.92 102.32 87.21 50.43"/><polygon class="cls-1" points="47.55 112.85 82.56 112.85 79.31 121.22 52.67 121.22 47.55 112.85"/><polygon class="cls-1" points="102.85 102.32 111.84 102.32 114.78 93.49 139.56 93.49 144.18 82.76 137.86 75.06 133.68 85.75 109.67 85.75 102.85 102.32"/><polygon class="cls-1" points="93.25 129.19 101.61 129.19 104.79 121.22 131.04 121.22 135.77 109.6 130.04 102.32 126.09 112.85 99.29 112.85 93.25 129.19"/><polygon class="cls-1" points="71.25 141.31 79.15 149.91 120.51 149.91 125.97 136.2 119.47 129.7 115.05 141.43 71.25 141.31"/><text class="cls-3" transform="matrix(0.72, 0, -0.13, 0.99, 237.38, 153.06)">L<tspan class="cls-4" x="94.3" y="0">una electric</tspan></text><text class="cls-5" transform="translate(356.78 199.79)">EQUIPAMOS TU NEGOCIO</text></svg>