<?xml version="1.0" encoding="utf-8"?>
<!-- Generator: Adobe Illustrator 24.3.0, SVG Export Plug-In . SVG Version: 6.00 Build 0)  -->
<svg version="1.1" id="Layer_1" xmlns="http://www.w3.org/2000/svg" xmlns:xlink="http://www.w3.org/1999/xlink" x="0px" y="0px"
	 viewBox="0 0 386.1 317.3" style="enable-background:new 0 0 386.1 317.3;" xml:space="preserve">
<style type="text/css">
	.st0{fill:#0071B2;}
	.st1{fill:#F39418;}
	.st2{fill:#0CA438;}
	.st3{fill:#696969;}
	.st4{fill:#8027B7;}
	.st5{fill:#1D3662;}
	.st6{fill:#1C3661;}
	.st7{fill:#444343;}
	.st8{fill:#676767;}
</style>
<g>
	<path class="st7" d="M189.5,181.2c-9.8-6.4-20.8-9.8-31.8-13.2c-3.4-1.1-6.8-2-9.4-2.7c-3.6-0.3-5.6,0.9-6.3,3.5
		c-0.7,2.7,0.3,5,3,6.1c1.4,0.6,2.8,0.9,4.2,1.4c12.1,3.7,24.3,7.1,35.2,13.9c1.1,0.7,2.2,1.1,3.6,0.8c2.2-0.5,3.7-1.7,4.2-3.9
		C192.8,184.3,191.6,182.5,189.5,181.2z M197.4,198.8c-2.8-0.5-5.7,1.1-5.9,3.9c-0.3,5.7-2.6,10.3-6.3,14.4c-2.1,2.3-1.7,5.2,0.5,7
		c2.1,1.8,5,1.7,7.1-0.3c5.3-5.1,8.4-11.3,8.8-18.8C201.7,201.5,200.1,199.2,197.4,198.8z M277.2,133.4c-3.8-0.7-7.7-0.9-11.6-0.8
		c-2.9,0.1-5,1.7-5,4.9c-0.1,3.1,1.7,4.9,4.7,5.2c3.5,0.3,7,0.5,10.6,0.8c3.1,0.2,5.7-1.7,5.8-4.5
		C281.8,135.9,280.3,134,277.2,133.4z M339.1,178c-8.3-16.3-20.6-28.5-36.8-36.8c-1.1-0.6-2.3-0.9-3.2-1.3c-2.8,0.3-4.7,1.4-5.3,4
		c-0.8,3.3,1.1,5.1,3.8,6.5c14.4,7.3,25.2,18.2,32.5,32.6c1.9,3.8,4.8,4.9,7.7,3.2C340.6,184.5,341,181.8,339.1,178z M339.1,178
		c-8.3-16.3-20.6-28.5-36.8-36.8c-1.1-0.6-2.3-0.9-3.2-1.3c-2.8,0.3-4.7,1.4-5.3,4c-0.8,3.3,1.1,5.1,3.8,6.5
		c14.4,7.3,25.2,18.2,32.5,32.6c1.9,3.8,4.8,4.9,7.7,3.2C340.6,184.5,341,181.8,339.1,178z M277.2,133.4c-3.8-0.7-7.7-0.9-11.6-0.8
		c-2.9,0.1-5,1.7-5,4.9c-0.1,3.1,1.7,4.9,4.7,5.2c3.5,0.3,7,0.5,10.6,0.8c3.1,0.2,5.7-1.7,5.8-4.5
		C281.8,135.9,280.3,134,277.2,133.4z M197.4,198.8c-2.8-0.5-5.7,1.1-5.9,3.9c-0.3,5.7-2.6,10.3-6.3,14.4c-2.1,2.3-1.7,5.2,0.5,7
		c2.1,1.8,5,1.7,7.1-0.3c5.3-5.1,8.4-11.3,8.8-18.8C201.7,201.5,200.1,199.2,197.4,198.8z M188.1,190.9c2.2-0.5,3.7-1.7,4.2-3.9
		c0.6-2.6-0.7-4.4-2.7-5.8c-9.8-6.4-20.8-9.8-31.8-13.2c-3.4-1.1-6.8-2-9.4-2.7c-3.6-0.3-5.6,0.9-6.3,3.5c-0.7,2.7,0.3,5,3,6.1
		c1.4,0.6,2.8,0.9,4.2,1.4c12.1,3.7,24.3,7.1,35.2,13.9C185.6,190.8,186.7,191.2,188.1,190.9z M363.2,245.9c-1.4-1-1.1-1.9-0.4-3.2
		c2.3-4.2,4-8.7,5.1-13.4c3.8-16.3,1.7-32.4-3.7-47.9c-10.7-30.8-31.5-52.2-61.8-64.2c-13.9-5.5-28.5-6.9-43.4-6.9
		c-22,0.1-43.9,0-65.9,0.1c-2,0-3.7-0.5-5.5-1.5c-13.4-7.4-25.1-16.7-34.1-29.1c-1.3-1.8-1.6-2.7,0.1-4.4c4.1-3.9,5.9-8.9,6-14.5
		c0.2-11.3-8.3-20.7-19.8-22c-10.4-1.1-20.7,6.4-22.7,17.1c-0.6,3.2-1.5,4.2-5,4.1c-8.4-0.2-16.2,5.5-19.4,13.4
		c-3.2,8-1.4,17.1,4.6,23.1c7.6,7.6,18.3,8.7,27.5,2.8c1-0.6,1.8-1.8,3.1-0.2c3.4,4.2,6.9,8.4,10.7,12.9c-13,2.8-24.1,8.3-34.2,16.1
		c-1.2,0.9-2.1,0.2-3.2-0.2c-8.4-3.1-15.1-8.9-22.3-13.8c-1.9-1.3-1.8-2.3-0.8-4c3.6-6.1,3.9-12.6,1.2-19.1
		c-4.2-9.9-14.8-15.1-25-12.5c-10.6,2.7-17.3,12.3-16.2,23.4c0.2,2-0.1,2.9-2.2,3.2c-3.7,0.5-6.9,2.3-9.8,4.6
		c-4.1,3.3-5.8,8-7.7,12.6v4.8c0.8,1.1-0.1,2.4,0.6,3.5c1.6,7.7,6.1,12.9,13.3,15.7c8.7,3.4,17.4,1.2,23.8-5.6
		c0.7-0.7,1.1-2.5,2.8-1.2c6.3,4.9,13.1,9.1,18.8,14.9c2.7,2.7,2.8,4.9,1.4,8.3c-8.2,21-8.2,42.3,1.3,62.6
		c14.9,32,40.7,48.5,75.9,49.3c23.8,0.5,47.6,0,71.4-0.1c1.1,0,2,0.3,2.8,0.9c5.1,3.4,10.9,4.7,16.9,4.7c33.2,0.1,66.4,0,99.5,0
		c4.4,0,8.6-1,12.4-3.3C370.7,270.3,373.9,253.5,363.2,245.9z M132.5,88.9c-4.3-5.1-6.9-5.1-11.2,0c-3.4,4-8.3,5.3-12.9,3.4
		c-4.5-1.9-7.4-6.6-6.9-11.5c0.4-4.7,3.9-8.8,8.6-9.9c4.1-1,7.6,0.2,10.7,3.1c3,2.8,5.6,3.1,7.9,1.3c2.2-1.9,2.3-4.5,0.2-8
		c-3.3-5.4-2.5-11.4,2-15.2c4.4-3.7,10.8-3.5,15,0.5c4.1,3.9,4.7,10,1.5,14.7c-1.3,1.9-3.2,2.9-5.1,4c-4.2,2.5-4.8,5.4-1.7,9.3
		c4,5,8.1,9.9,12.3,14.7c1.6,1.9,1.4,2.9-0.5,4.2c-2.3,1.7-4.4,3.6-6.7,5.5C141.3,99.4,136.9,94.1,132.5,88.9z M87.6,144.5
		c2.2-2.4,3.5-6.5,6.1-7.6c2.6-1,6,1.9,9.1,3c16.3,5.5,33.1,9.4,49.6,14.2c12.9,3.7,25.9,7.5,37.8,13.8c14.4,7.6,22.4,19.3,23,36.3
		c-0.9,15.3-7.7,27.5-22.2,34.3c-14.6,6.9-28.7,5.1-41.4-5c-7.9-6.2-14-14.1-19.9-22.1c-12.8-17.5-23.6-36.4-36.6-53.8
		c-1.7-2.3-3.3-4.7-5.3-6.7C85.7,148.8,85.4,147,87.6,144.5z M77.8,140c-2.4,0.7-4.8-2.8-7.2-4.4c-3.6-2.4-7-5.1-10.6-7.6
		c-4.4-3.1-7-2.4-9.5,2.5c-2.7,5.3-5.6,7.4-10.4,7.4c-4.7,0-8.8-2.6-10.5-6.8c-1.8-4.4-0.8-9.3,2.6-12.6c3.3-3.2,8.1-4,12.4-2.1
		c0.3,0.1,0.6,0.3,0.9,0.4c4,2,6.5,1.9,8.3-0.4c1.8-2.4,1.2-4.8-2.2-8.3c-3.5-3.5-4.5-8.2-2.6-12.6c1.8-4.4,6.3-7.2,10.8-7
		c4.5,0.2,8.6,3.1,10.1,7.5c1.5,4.3,0.9,8.3-2.5,11.7c-1.1,1-2.2,2-3,3.2c-1.6,2.4-0.8,5.2,2.1,7.4c5.3,3.9,10.7,7.9,16.1,11.6
		c1.6,1.1,1.8,1.9,0.6,3.4C81.3,135.5,80,139.3,77.8,140z M357.5,265c-2.6,3.9-6.5,5.1-11,5.1c-26.4,0-52.9,0-79.3-0.1
		c-7.9,0-15.8,0.6-23.6-0.4c-11-1.5-18.6-12.4-16.3-23.3c0.2-0.9,0.4-1.8,0.5-2.7c0.4-3.6-1.1-6-4-6.4c-3-0.5-5.2,1.2-6.1,4.7
		c-1.8,6.8-1.6,13.6,1.3,20.1c0.2,0.5,0.4,1,0.6,1.6c0.1,0.2,0,0.4,0,0.7c-0.8,0.6-1.7,0.3-2.5,0.3c-20,0-40,0.2-60.1,0
		c-27.9-0.3-49.6-12.2-63.8-36.4c-11-18.8-12.3-38.9-5.2-60.3c3,4.5,5.8,8.4,8.4,12.4c10.2,15.5,19.9,31.2,31.5,45.7
		c6.2,7.8,13.1,14.9,21.8,20.2c29.2,17.6,68.6-1.1,73.3-34.9c3-21.8-7.3-41.5-27.2-52c-14.9-7.8-30.9-12.2-47-16.7
		c-10.9-3.1-21.9-6.1-33.5-9.3c6.3-4.4,12.6-7.2,19.4-9.3c7.3-2.3,14.7-3.2,22.3-3.2c35.6,0,71.2-0.2,106.7,0
		c33.1,0.2,59.8,13.6,79,40.7c12.5,17.7,18.1,37.7,16.2,59.6c-0.6,7.3-3.3,13.9-7.1,20.1c-0.6,0.9-1.2,1.5-2.4,1.5
		c-20.5-0.1-41-0.1-61.4-0.1c-0.1,0-0.1-0.2-0.4-0.7c2.4-1.8,5-3.7,7.4-5.6c3.5-2.7,4.2-5.5,2.2-8.1c-1.9-2.6-5-2.6-8.5-0.1
		c-2.5,1.8-5,3.7-7.4,5.6c-3.6,2.9-5.2,6.7-3.9,11.3c1.3,4.6,4.5,7.3,9.3,7.8c1.2,0.1,2.5,0.2,3.8,0.2c20.3,0,40.5,0,60.8,0
		c2.9,0,5.8,0,7.4,3.1C360.4,259.2,359.3,262.3,357.5,265z M297.5,150.3c14.4,7.3,25.2,18.2,32.5,32.6c1.9,3.8,4.8,4.9,7.7,3.2
		c2.8-1.6,3.2-4.3,1.3-8.1c-8.3-16.3-20.6-28.5-36.8-36.8c-1.1-0.6-2.3-0.9-3.2-1.3c-2.8,0.3-4.7,1.4-5.3,4
		C293,147.1,294.8,149,297.5,150.3z M281.7,138.9c0.1-3-1.4-5-4.5-5.5c-3.8-0.7-7.7-0.9-11.6-0.8c-2.9,0.1-5,1.7-5,4.9
		c-0.1,3.1,1.7,4.9,4.7,5.2c3.5,0.3,7,0.5,10.6,0.8C279.1,143.6,281.6,141.7,281.7,138.9z M185.2,217c-2.1,2.3-1.7,5.2,0.5,7
		c2.1,1.8,5,1.7,7.1-0.3c5.3-5.1,8.4-11.3,8.8-18.8c0.2-3.4-1.4-5.7-4.1-6.1c-2.8-0.5-5.7,1.1-5.9,3.9
		C191.2,208.3,189,212.9,185.2,217z M145.1,174.8c1.4,0.6,2.8,0.9,4.2,1.4c12.1,3.7,24.3,7.1,35.2,13.9c1.1,0.7,2.2,1.1,3.6,0.8
		c2.2-0.5,3.7-1.7,4.2-3.9c0.6-2.6-0.7-4.4-2.7-5.8c-9.8-6.4-20.8-9.8-31.8-13.2c-3.4-1.1-6.8-2-9.4-2.7c-3.6-0.3-5.6,0.9-6.3,3.5
		C141.3,171.5,142.4,173.7,145.1,174.8z M189.5,181.2c-9.8-6.4-20.8-9.8-31.8-13.2c-3.4-1.1-6.8-2-9.4-2.7c-3.6-0.3-5.6,0.9-6.3,3.5
		c-0.7,2.7,0.3,5,3,6.1c1.4,0.6,2.8,0.9,4.2,1.4c12.1,3.7,24.3,7.1,35.2,13.9c1.1,0.7,2.2,1.1,3.6,0.8c2.2-0.5,3.7-1.7,4.2-3.9
		C192.8,184.3,191.6,182.5,189.5,181.2z M197.4,198.8c-2.8-0.5-5.7,1.1-5.9,3.9c-0.3,5.7-2.6,10.3-6.3,14.4c-2.1,2.3-1.7,5.2,0.5,7
		c2.1,1.8,5,1.7,7.1-0.3c5.3-5.1,8.4-11.3,8.8-18.8C201.7,201.5,200.1,199.2,197.4,198.8z M197.4,198.8c-2.8-0.5-5.7,1.1-5.9,3.9
		c-0.3,5.7-2.6,10.3-6.3,14.4c-2.1,2.3-1.7,5.2,0.5,7c2.1,1.8,5,1.7,7.1-0.3c5.3-5.1,8.4-11.3,8.8-18.8
		C201.7,201.5,200.1,199.2,197.4,198.8z M189.5,181.2c-9.8-6.4-20.8-9.8-31.8-13.2c-3.4-1.1-6.8-2-9.4-2.7c-3.6-0.3-5.6,0.9-6.3,3.5
		c-0.7,2.7,0.3,5,3,6.1c1.4,0.6,2.8,0.9,4.2,1.4c12.1,3.7,24.3,7.1,35.2,13.9c1.1,0.7,2.2,1.1,3.6,0.8c2.2-0.5,3.7-1.7,4.2-3.9
		C192.8,184.3,191.6,182.5,189.5,181.2z"/>
	<path class="st7" d="M281.7,138.9c-0.1,2.8-2.7,4.7-5.8,4.5c-3.5-0.3-7-0.4-10.6-0.8c-3.1-0.3-4.8-2.1-4.7-5.2
		c0.1-3.2,2.1-4.8,5-4.9c3.9-0.1,7.7,0.1,11.6,0.8C280.3,134,281.8,135.9,281.7,138.9z"/>
	<path class="st7" d="M337.8,186.1c-2.9,1.7-5.8,0.6-7.7-3.2c-7.3-14.4-18.2-25.2-32.5-32.6c-2.7-1.4-4.5-3.2-3.8-6.5
		c0.6-2.6,2.5-3.6,5.3-4c0.9,0.4,2.1,0.7,3.2,1.3c16.3,8.3,28.6,20.5,36.8,36.8C341,181.8,340.6,184.5,337.8,186.1z"/>
	<path class="st7" d="M184.5,190.1c-10.8-6.8-23.1-10.2-35.2-13.9c-1.4-0.4-2.9-0.8-4.2-1.4c-2.7-1.1-3.8-3.4-3-6.1
		c0.7-2.6,2.7-3.8,6.3-3.5c2.6,0.7,6,1.7,9.4,2.7c11,3.5,22,6.9,31.8,13.2c2.1,1.3,3.3,3.2,2.7,5.8c-0.5,2.2-2,3.5-4.2,3.9
		C186.7,191.2,185.6,190.8,184.5,190.1z"/>
	<path class="st7" d="M201.5,204.9c-0.4,7.4-3.4,13.7-8.8,18.8c-2.1,2.1-5,2.1-7.1,0.3c-2.1-1.9-2.6-4.7-0.5-7
		c3.8-4.1,6-8.7,6.3-14.4c0.2-2.8,3-4.3,5.9-3.9C200.1,199.2,201.7,201.5,201.5,204.9z"/>
	<path class="st7" d="M337.8,186.1c-2.9,1.7-5.8,0.6-7.7-3.2c-7.3-14.4-18.2-25.2-32.5-32.6c-2.7-1.4-4.5-3.2-3.8-6.5
		c0.6-2.6,2.5-3.6,5.3-4c0.9,0.4,2.1,0.7,3.2,1.3c16.3,8.3,28.6,20.5,36.8,36.8C341,181.8,340.6,184.5,337.8,186.1z"/>
	<path class="st7" d="M281.7,138.9c-0.1,2.8-2.7,4.7-5.8,4.5c-3.5-0.3-7-0.4-10.6-0.8c-3.1-0.3-4.8-2.1-4.7-5.2
		c0.1-3.2,2.1-4.8,5-4.9c3.9-0.1,7.7,0.1,11.6,0.8C280.3,134,281.8,135.9,281.7,138.9z"/>
	<path class="st7" d="M192.3,186.9c-0.5,2.2-2,3.5-4.2,3.9c-1.4,0.3-2.5-0.1-3.6-0.8c-10.8-6.8-23.1-10.2-35.2-13.9
		c-1.4-0.4-2.9-0.8-4.2-1.4c-2.7-1.1-3.8-3.4-3-6.1c0.7-2.6,2.7-3.8,6.3-3.5c2.6,0.7,6,1.7,9.4,2.7c11,3.5,22,6.9,31.8,13.2
		C191.6,182.5,192.8,184.3,192.3,186.9z"/>
	<path class="st7" d="M201.5,204.9c-0.4,7.4-3.4,13.7-8.8,18.8c-2.1,2.1-5,2.1-7.1,0.3c-2.1-1.9-2.6-4.7-0.5-7
		c3.8-4.1,6-8.7,6.3-14.4c0.2-2.8,3-4.3,5.9-3.9C200.1,199.2,201.7,201.5,201.5,204.9z"/>
</g>
</svg>
