<?xml version="1.0" encoding="utf-8"?>
<!-- Generator: Adobe Illustrator 24.3.0, SVG Export Plug-In . SVG Version: 6.00 Build 0)  -->
<svg version="1.1" id="Layer_1" xmlns="http://www.w3.org/2000/svg" xmlns:xlink="http://www.w3.org/1999/xlink" x="0px" y="0px"
	 viewBox="0 0 373.5 372" style="enable-background:new 0 0 373.5 372;" xml:space="preserve">
<style type="text/css">
	.st0{fill:#0071B2;}
	.st1{fill:#F39418;}
	.st2{fill:#0CA438;}
	.st3{fill:#696969;}
	.st4{fill:#8027B7;}
	.st5{fill:#1D3662;}
	.st6{fill:#1C3661;}
	.st7{fill:#444343;}
</style>
<path class="st7" d="M355.4,315.1c-0.1-1.9-1.2-1.5-2.3-1.5c-5.7,0-11.5-0.1-17.2,0.1c-2.4,0.1-2.9-0.7-2.9-3
	c0.1-18.1,0.1-36.2,0.1-54.3c0-27.5-19.1-46.7-46.5-46.7c-20.6,0-41.1,0-61.7,0.1c-2.5,0-3.2-0.5-3.1-3.1
	c0.1-20.8,0.1-41.6,0.1-62.4c0-2.8-0.3-5.6-1.2-8.3c-3.3-9.9-11.6-15.4-23.5-15.4c-5,0-4.8,0-5.1-4.8c-0.1-2.6,0.6-3.5,3.2-4.3
	c20.4-6,32.9-29.4,22.9-50.1c-8.4-17.5-20-32.7-32.3-47.5c-1-1.2-1.6-1.1-2.5,0.1C172,27.8,161.2,41.9,153,57.7
	c-2.9,5.6-5.4,11.4-5.5,17.9c-0.3,16.8,10.9,31.7,27.2,36.3c1.8,0.5,2.5,1.1,2.5,3.1c-0.1,5.7,0.1,5.7-5.8,5.7
	c-14.6,0-23.9,9.4-24,24c0,20.3-0.1,40.7,0.1,61c0,3.1-0.5,4.1-3.9,4.1c-20.5-0.2-40.9-0.1-61.4-0.1c-26.8,0-46.1,19.3-46.1,46.1
	c0,18.3-0.1,36.6,0.1,55c0,2.4-0.6,3-3,2.9c-5.7-0.2-11.5-0.1-17.2-0.1c-1.1,0-2.2-0.3-2.2,1.5c0.1,4.8-0.1,9.6,1.1,14.4
	c4.4,17.4,18.9,28.5,37.3,28.6c44.1,0,88.1,0,132.2,0c44.6,0,89.3,0,133.9,0c6.8,0,13.1-1.7,18.9-5.3
	C351.2,344.1,356.2,331,355.4,315.1z M177.1,96.7c-9.3-2.1-16.5-13.9-14.3-23.1c1.7-6.8,5.2-12.8,8.9-18.8
	c3.5-5.7,7.4-11.3,11.6-16.5c0.8-1,1.3-1.8,2.5-0.3c7.7,10,15,20.2,19.6,32c4.2,11-1.7,22.8-13.2,26.9c-0.5-10.2-2.1-13.2-7.4-13.3
	C179.5,83.5,177.6,86.6,177.1,96.7z M162.4,175.1c0-10.2,0-20.4,0-30.7c0-6.2,2.7-8.8,8.8-8.9c9.1,0,18.2,0,27.3,0
	c5.7,0,8.4,2.8,8.4,8.5c0,21,0,42,0.1,63c0,2.3-0.6,2.7-2.8,2.7c-13-0.1-26.1-0.1-39.1,0c-2.2,0-2.8-0.5-2.8-2.7
	C162.5,196.4,162.4,185.7,162.4,175.1z M81.5,224.6c34.4-0.1,68.8,0,103.2,0c33.8,0,67.7,0,101.5,0c20.3,0,32.9,13.3,32.1,33.5
	c-0.1,1.5-0.7,2.5-1.5,3.6c-9.8,13.9-26.7,18.4-43.5,11.6c-8.8-3.6-16.2-9-22.9-15.7c-4.5-4.5-7.8-4.6-12.5-0.4
	c-29.4,25.7-76.9,25.6-106.6-0.1c-4.7-4.1-7.9-3.9-12.5,0.5c-9.4,9.2-19.9,16.3-33.3,18.5c-12.6,2-27-4.4-33.7-15.3
	c-0.4-0.7-0.7-1.3-0.8-2.2C49,240,62.6,224.7,81.5,224.6z M51.1,281.4c1.5,0.2,2.4,1.3,3.4,2c18.9,11.8,37.7,9.9,56.4-0.4
	c5-2.7,9.3-6.3,13.2-10.4c1.3-1.4,2.1-1.3,3.5-0.2c19.3,15.4,41.6,20.3,65.7,18.5c18-1.4,34.4-7.2,48.5-18.7
	c1.8-1.5,2.5-0.2,3.5,0.7c11.6,11.4,25.4,17.9,41.8,18.4c10.4,0.3,19.9-2.7,28.5-8.6c0.7-0.5,1.4-1,2.6-1.8c0,10.3-0.1,20,0.1,29.6
	c0,2.6-0.7,3.1-3.1,3.1c-26.8-0.1-53.5-0.1-80.3-0.1c-60,0-120.1,0-180.1,0.1c-3.1,0-3.8-0.8-3.8-3.8
	C51.2,300.5,51.1,291,51.1,281.4z M319.3,343.3c-0.6,0-1.1,0-1.7,0c-88.6,0-177.1,0-265.7,0c-9.3,0-16.6-5.5-19.6-14.7h304.7
	C334.9,336.7,327.3,342.9,319.3,343.3z"/>
</svg>
