<svg width="34" height="34" viewBox="0 0 34 34" fill="none" xmlns="http://www.w3.org/2000/svg">
<path d="M24.3101 0.283377C25.1828 0.589377 25.5171 1.21271 25.4888 2.11938C25.4548 3.19604 25.4831 4.27271 25.4831 5.40038C25.8685 5.40038 26.2311 5.40038 26.5995 5.40038C27.7838 5.40038 28.3448 5.95571 28.3448 7.13438C28.3448 14.0647 28.3448 21.0007 28.3448 27.931C28.3448 28.0727 28.3448 28.2144 28.3051 28.3504C28.2428 28.5884 28.0615 28.7074 27.8121 28.6904C27.5685 28.6734 27.4098 28.5317 27.3758 28.2824C27.3588 28.1407 27.3645 27.999 27.3645 27.8574C27.3645 20.9894 27.3645 14.127 27.3645 7.25904C27.3645 7.14004 27.3701 7.02104 27.3588 6.90204C27.3305 6.57338 27.1661 6.40904 26.8431 6.38071C26.7468 6.37504 26.6448 6.38071 26.5485 6.38071C21.1311 6.38071 15.7081 6.38071 10.2908 6.38071C9.61647 6.38071 9.49747 6.49971 9.49747 7.17971C9.49747 15.4417 9.49747 23.698 9.49747 31.96C9.49747 32.6174 9.62213 32.742 10.2738 32.742C15.7138 32.742 21.1538 32.742 26.5995 32.742C27.2341 32.742 27.3588 32.6174 27.3645 31.977C27.3645 31.5067 27.3588 31.042 27.3645 30.5717C27.3701 30.2204 27.5685 29.9994 27.8575 30.005C28.1351 30.0107 28.3335 30.226 28.3391 30.5604C28.3505 31.1384 28.3618 31.7164 28.3335 32.2887C28.2881 33.1444 27.6705 33.7167 26.8205 33.7167C21.2275 33.7224 15.6345 33.7224 10.0415 33.7167C9.1518 33.7167 8.53413 33.0877 8.5228 32.1867C8.51713 31.1214 8.5228 30.056 8.5228 28.985C8.5228 28.866 8.5228 28.7527 8.5228 28.5997C8.08647 28.5997 7.68413 28.5997 7.28747 28.5997C6.26747 28.594 5.6668 27.999 5.6668 26.9734C5.6668 18.615 5.6668 10.2567 5.66113 1.90404C5.66113 1.07104 6.0748 0.56671 6.81713 0.289043C7.9278 0.289043 9.03847 0.289043 10.1491 0.289043C10.3531 0.459043 10.5458 0.640377 10.4268 0.946377C10.3078 1.24671 10.0585 1.26938 9.7808 1.26938C9.01013 1.26371 8.2338 1.26938 7.46313 1.26938C6.7548 1.26938 6.64713 1.37704 6.64713 2.07404C6.64713 10.3304 6.64713 18.5867 6.64713 26.8487C6.64713 26.9677 6.61313 27.115 6.6698 27.2C6.7718 27.3587 6.9248 27.5797 7.07213 27.5967C7.54247 27.6477 8.01847 27.6137 8.52847 27.6137C8.52847 27.4494 8.52847 27.3077 8.52847 27.1717C8.52847 20.4567 8.52847 13.7474 8.52847 7.03238C8.52847 6.21071 8.8968 5.68938 9.6278 5.45138C13.8608 4.10271 18.0881 2.74838 22.3211 1.39404C22.3948 1.37138 22.4628 1.33171 22.6215 1.26371C22.4005 1.26371 22.2815 1.26371 22.1625 1.26371C18.9211 1.26371 15.6798 1.26371 12.4385 1.26371C12.1551 1.26371 11.9001 1.22404 11.8038 0.92371C11.7018 0.623377 11.8718 0.43071 12.1098 0.27771C16.1728 0.283377 20.2415 0.283377 24.3101 0.283377ZM13.2545 5.32104C13.2601 5.34371 13.2658 5.36071 13.2658 5.38338C17.0001 5.38338 20.7288 5.38338 24.4801 5.38338C24.4801 4.16504 24.4801 2.96371 24.4801 1.72838C20.7231 2.92971 16.9888 4.12538 13.2545 5.32104Z" fill="#697794"/>
<path d="M14.3708 14.3821C13.5661 14.3821 12.7615 14.3821 11.9568 14.3821C11.2485 14.3764 10.8688 14.0024 10.8631 13.2941C10.8575 11.8037 10.8575 10.3134 10.8631 8.82872C10.8631 8.13739 11.2371 7.75772 11.9341 7.75205C13.5548 7.74639 15.1755 7.74639 16.7961 7.75205C17.4988 7.75205 17.8615 8.12039 17.8615 8.82305C17.8671 10.3247 17.8671 11.8207 17.8615 13.3224C17.8615 14.0137 17.4818 14.3821 16.7848 14.3821C15.9801 14.3877 15.1755 14.3821 14.3708 14.3821ZM16.8585 13.3847C16.8585 11.8321 16.8585 10.2964 16.8585 8.76072C15.1755 8.76072 13.5208 8.76072 11.8718 8.76072C11.8718 10.3191 11.8718 11.8491 11.8718 13.3847C13.5435 13.3847 15.1981 13.3847 16.8585 13.3847Z" fill="#697794"/>
<path d="M14.3767 16.5127C15.17 16.5127 15.9633 16.5127 16.7567 16.5127C17.5103 16.5184 17.8617 16.8641 17.8617 17.6064C17.8617 19.0854 17.8617 20.5644 17.8617 22.0434C17.8617 22.7801 17.499 23.1371 16.7567 23.1371C15.1587 23.1371 13.5607 23.1371 11.9627 23.1371C11.2487 23.1371 10.869 22.7687 10.869 22.0604C10.8633 20.5701 10.8633 19.0797 10.869 17.5951C10.869 16.8981 11.2373 16.5241 11.9343 16.5241C12.7503 16.5071 13.5607 16.5127 14.3767 16.5127ZM16.8643 17.5157C15.1813 17.5157 13.5323 17.5157 11.872 17.5157C11.872 19.0741 11.872 20.6097 11.872 22.1397C13.5493 22.1397 15.1983 22.1397 16.8643 22.1397C16.8643 20.5927 16.8643 19.0684 16.8643 17.5157Z" fill="#697794"/>
<path d="M14.3767 31.3651C13.5607 31.3651 12.7447 31.3651 11.9287 31.3651C11.26 31.3651 10.869 30.9854 10.869 30.3167C10.8633 28.8037 10.8633 27.2964 10.869 25.7834C10.869 25.1261 11.243 24.7464 11.9003 24.7464C13.5437 24.7351 15.1813 24.7351 16.8247 24.7464C17.5047 24.7521 17.8617 25.1204 17.8617 25.8061C17.8673 27.3077 17.8673 28.8037 17.8617 30.3054C17.8617 30.9967 17.4877 31.3594 16.785 31.3651C15.986 31.3651 15.1813 31.3651 14.3767 31.3651ZM16.8643 30.3677C16.8643 28.8151 16.8643 27.2851 16.8643 25.7437C15.187 25.7437 13.5323 25.7437 11.8663 25.7437C11.8663 27.2964 11.8663 28.8264 11.8663 30.3677C13.5323 30.3677 15.1813 30.3677 16.8643 30.3677Z" fill="#697794"/>
<path d="M22.4855 26.6447C23.4318 26.6447 24.3782 26.6447 25.3188 26.6447C25.7552 26.6447 25.9875 26.8204 25.9818 27.1377C25.9762 27.4437 25.7495 27.6194 25.3358 27.6194C23.4262 27.6194 21.5108 27.6194 19.6012 27.6194C19.1762 27.6194 18.9438 27.4267 18.9608 27.1037C18.9722 26.8204 19.1762 26.6447 19.5218 26.6447C20.5078 26.6391 21.4938 26.6447 22.4855 26.6447Z" fill="#697794"/>
<path d="M22.4457 10.6194C21.488 10.6194 20.536 10.6194 19.5783 10.6194C19.176 10.6194 18.9663 10.4551 18.955 10.1548C18.9437 9.83742 19.1647 9.64475 19.5727 9.64475C21.505 9.63909 23.4373 9.63909 25.3753 9.64475C25.7607 9.64475 25.9817 9.83742 25.9817 10.1321C25.9817 10.4324 25.7663 10.6194 25.381 10.6194C24.4007 10.6251 23.426 10.6194 22.4457 10.6194Z" fill="#697794"/>
<path d="M22.4513 19.3857C21.5276 19.3857 20.604 19.3857 19.6803 19.3857C19.5613 19.3857 19.4366 19.3857 19.3233 19.3574C19.0796 19.3007 18.955 19.1307 18.9606 18.8871C18.9663 18.6434 19.0966 18.4791 19.3403 18.4281C19.4536 18.4054 19.5783 18.4054 19.6973 18.4054C21.5446 18.4054 23.392 18.4054 25.2393 18.4054C25.7436 18.4054 25.976 18.5584 25.9816 18.8871C25.9873 19.2214 25.7493 19.3857 25.2563 19.3857C24.3156 19.3857 23.3863 19.3857 22.4513 19.3857Z" fill="#697794"/>
<path d="M20.5873 11.509C20.9443 11.509 21.3013 11.5033 21.6583 11.509C21.9757 11.5147 22.174 11.6903 22.1853 11.9623C22.2023 12.24 21.9927 12.4723 21.6753 12.478C20.9387 12.4893 20.202 12.4893 19.4653 12.478C19.1423 12.4723 18.9383 12.2513 18.9497 11.968C18.961 11.696 19.1593 11.5147 19.471 11.509C19.8507 11.5033 20.219 11.509 20.5873 11.509Z" fill="#697794"/>
<path d="M20.6099 28.492C20.9555 28.492 21.3069 28.4864 21.6525 28.492C21.9812 28.4977 22.1909 28.6904 22.1965 28.9737C22.2022 29.257 21.9869 29.4667 21.6639 29.4667C20.9385 29.4724 20.2132 29.4724 19.4822 29.4667C19.1592 29.461 18.9495 29.2514 18.9552 28.968C18.9609 28.6847 19.1705 28.4977 19.4992 28.492C19.8675 28.4864 20.2415 28.492 20.6099 28.492Z" fill="#697794"/>
<path d="M20.587 20.264C20.944 20.264 21.301 20.2583 21.658 20.264C21.981 20.2697 22.1964 20.468 22.1907 20.7513C22.1907 21.0177 21.9867 21.233 21.6807 21.2387C20.944 21.25 20.2074 21.25 19.4707 21.2387C19.1477 21.233 18.9437 21.0177 18.955 20.7287C18.9664 20.4567 19.1647 20.2697 19.4764 20.264C19.8447 20.2583 20.213 20.264 20.587 20.264Z" fill="#697794"/>
</svg>
