<svg width="34" height="34" viewBox="0 0 34 34" fill="none" xmlns="http://www.w3.org/2000/svg">
<path d="M17.017 0.300293C26.2423 0.300293 33.711 7.75763 33.7167 16.966C33.7167 26.2536 26.2763 33.6996 17 33.694C7.74632 33.694 0.249318 26.1856 0.283318 16.949C0.317318 7.74063 7.79732 0.300293 17.017 0.300293ZM29.5177 25.2506C33.1273 20.247 33.3653 11.3673 26.8997 5.66096C21.0347 0.481626 11.9793 0.76496 6.38632 6.35229C0.594985 12.138 1.05399 20.587 4.54465 25.2676C6.66965 22.2473 9.51432 20.2186 13.0787 19.1703C9.78065 15.776 9.44632 11.9283 12.1267 9.09496C14.6483 6.43163 18.7283 6.24463 21.454 8.66996C22.7573 9.83163 23.511 11.2993 23.6583 13.0276C23.8737 15.521 22.8763 17.5326 20.927 19.108C25.942 21.2443 26.129 21.3746 29.5177 25.2506ZM5.59298 26.741C5.71198 26.894 5.78565 27.013 5.88198 27.115C11.5543 33.6203 22.27 33.6713 28.05 27.251C28.458 26.7976 28.2993 26.5313 28.0443 26.1573C25.075 21.7713 19.652 19.5443 14.3933 20.6096C10.5967 21.3803 7.69532 23.4656 5.59298 26.741ZM22.0093 13.6453C22.0037 10.8913 19.7823 8.65863 17.034 8.64163C14.2517 8.63029 11.985 10.897 11.9963 13.6736C12.0077 16.422 14.2347 18.6603 16.983 18.6716C19.7767 18.683 22.015 16.439 22.0093 13.6453Z" fill="#FFFFFF"/>
</svg>
