<svg width="72" height="72" viewBox="0 0 72 72" fill="none" xmlns="http://www.w3.org/2000/svg">
<g clip-path="url(#clip0_564_1348)">
<path d="M70.8604 15.3891C71.0442 17.6083 70.3657 19.7921 69.2844 21.8063C67.6235 24.9019 65.0934 27.0716 61.7717 28.3084C59.7363 29.0717 57.6443 29.2342 55.5099 29.0858C55.3615 29.0787 55.199 29.0787 55.0647 29.0151C54.5276 28.7536 54.1459 28.9515 53.7501 29.3473C51.9833 31.1354 50.2023 32.9093 48.4142 34.6832C48.1598 34.9377 48.2022 35.1355 48.4354 35.3688C49.1846 36.1109 49.9337 36.8529 50.6687 37.6091C51.2907 38.2452 51.2907 38.7965 50.6758 39.4608C50.5203 39.6234 50.3578 39.7859 50.2094 39.9485C49.7429 40.4715 49.7288 41.1641 50.167 41.6659C50.6546 42.2242 51.3613 42.3161 51.9479 41.885C52.1741 41.7153 52.3791 41.5104 52.5911 41.3196C53.2766 40.6976 53.736 40.6906 54.3862 41.3408C55.6089 42.5422 56.8174 43.7649 58.033 44.9805C61.2275 48.175 64.422 51.3695 67.6165 54.564C68.6554 55.6029 69.6519 56.6701 70.2032 58.0623C70.6272 59.1437 70.8887 60.2462 70.8887 61.4406C70.8887 62.8965 70.7615 64.2888 70.1395 65.6174C69.0158 68.0274 67.2207 69.7024 64.7188 70.6141C63.0862 71.2078 61.4254 71.2714 59.7363 70.9675C57.9411 70.6424 56.3722 69.8084 55.0859 68.5292C50.5133 63.9849 45.9689 59.4193 41.4104 54.8608C41.269 54.7194 41.1348 54.5781 41.0146 54.4297C40.633 53.9562 40.6188 53.419 41.0005 52.9455C41.2196 52.6769 41.4811 52.4437 41.686 52.1681C42.3009 51.3483 41.8203 50.1468 40.8026 50.0337C40.5482 50.0055 40.2443 50.1115 40.011 50.2387C39.7566 50.38 39.5516 50.6203 39.3326 50.8253C38.6399 51.4684 38.0887 51.4896 37.3961 50.8323C36.6823 50.1609 36.0038 49.4613 35.3182 48.7616C34.8871 48.3234 34.8377 48.3163 34.3853 48.7616C32.6185 50.5284 30.8587 52.3024 29.0777 54.0551C28.7526 54.3802 28.6607 54.6912 28.7879 55.1435C29.1484 56.4298 29.0918 57.7302 28.8657 59.0376C28.6324 60.3946 28.3144 61.7162 27.7419 62.9742C26.8302 64.9672 25.4874 66.6281 23.8054 68.0204C22.4626 69.13 20.9643 69.9498 19.3105 70.4657C17.2751 71.1018 15.1972 71.2785 13.0699 70.9675C10.144 70.5364 7.60679 69.3137 5.47242 67.2995C3.54301 65.4902 2.2426 63.2852 1.57119 60.7056C1.05526 58.7479 1.01993 56.769 1.30969 54.7901C1.46518 53.7441 1.79735 52.7052 2.22139 51.7299C3.40166 48.9877 5.26039 46.7968 7.83295 45.2491C10.7165 43.5105 13.8261 42.8885 17.1478 43.4186C17.6002 43.4893 17.9041 43.4045 18.2292 43.0794C24.9856 36.2946 31.7492 29.5169 38.5198 22.7322C40.011 21.2409 41.4952 19.7426 42.9935 18.2656C43.2762 17.9899 43.3398 17.7143 43.255 17.3326C42.9511 15.8838 43.0218 14.435 43.2267 12.9791C43.4458 11.4384 43.9476 9.99664 44.6755 8.63969C45.7074 6.71734 47.0785 5.08476 48.8948 3.83383C52.3225 1.46623 56.0471 0.731217 60.1109 1.62171C61.3265 1.89028 61.6233 2.83025 60.7681 3.74902C60.1533 4.40629 59.496 5.03529 58.8599 5.67136C57.2061 7.31808 55.5453 8.95772 53.9056 10.6186C53.7784 10.7458 53.6724 11.0356 53.7289 11.191C54.047 12.2087 54.4074 13.2123 54.7608 14.223C55.0011 14.9226 55.2131 15.6294 55.4887 16.3079C55.5735 16.5058 55.828 16.6895 56.0471 16.7673C57.4676 17.269 58.9235 17.6719 60.3087 18.2373C61.1074 18.5695 61.5667 18.3786 62.1251 17.7991C64.0616 15.799 66.0546 13.8484 68.0264 11.8836C68.2101 11.6999 68.3798 11.5091 68.5706 11.3465C69.3621 10.661 70.288 10.9507 70.5353 11.9685C70.6696 12.5126 70.8039 13.0568 70.8604 13.6081C70.9028 14.1452 70.8604 14.7036 70.8604 15.3891ZM15.0276 45.4328C13.3244 45.454 11.6706 45.765 10.1581 46.5071C6.37705 48.3517 4.03773 51.3059 3.36632 55.5251C2.98468 57.9139 3.36632 60.1826 4.40523 62.3311C5.88233 65.3842 8.27113 67.3914 11.5151 68.4444C14.0664 69.2713 16.5542 69.1441 19.0348 68.2536C20.9431 67.5681 22.5474 66.4231 23.8761 64.8895C25.1623 63.3983 26.0316 61.7021 26.4486 59.7868C26.8302 58.027 26.7808 56.2531 26.4062 54.4933C26.279 53.8925 26.4415 53.4473 26.8656 53.0303C28.5335 51.3765 30.1873 49.7086 31.8481 48.0478C36.7741 43.1147 41.7001 38.1887 46.6332 33.2556C48.7323 31.1566 50.8313 29.0646 52.9303 26.9656C53.2413 26.6546 53.5805 26.4214 54.047 26.485C54.4216 26.5345 54.7961 26.5698 55.1636 26.6617C56.6973 27.0433 58.2309 26.9161 59.7221 26.5486C63.065 25.7217 65.5952 23.7782 67.2702 20.7604C68.2596 18.9864 68.6413 17.0499 68.6695 15.0357C68.6695 14.9297 68.5918 14.8237 68.5494 14.7177C68.4222 14.7813 68.2667 14.8096 68.1677 14.9014C67.4186 15.6435 66.6906 16.3997 65.9486 17.1489C64.8531 18.2514 63.7506 19.3398 62.6622 20.4423C62.1957 20.9158 61.7152 21.0925 61.0367 20.8452C59.7645 20.3787 58.4712 19.9971 57.1849 19.566C56.2732 19.2621 55.3615 18.9511 54.4569 18.6331C53.9198 18.4422 53.6159 18.0606 53.4392 17.5164C52.7395 15.3538 52.0328 13.1982 51.2907 11.0568C51.0999 10.4984 51.2129 10.0602 51.5804 9.64327C51.7571 9.43831 51.9621 9.25456 52.1529 9.06374C53.8632 7.36755 55.5735 5.67136 57.2697 3.96811C57.3616 3.87623 57.3828 3.71368 57.4323 3.5794C57.3121 3.53699 57.192 3.45218 57.0718 3.45925C55.2202 3.52993 53.4109 3.85503 51.7571 4.71726C49.1634 6.07421 47.241 8.08136 46.1456 10.8306C45.2551 13.078 45.0713 15.3891 45.6155 17.7355C45.7639 18.3928 45.6226 18.8734 45.1703 19.3257C44.1101 20.3787 43.0642 21.4388 42.0111 22.4919C36.7247 27.7854 31.4312 33.0789 26.1447 38.3724C23.8336 40.6835 21.5226 42.9945 19.2186 45.3056C18.7522 45.772 18.2504 45.9205 17.586 45.772C16.745 45.6024 15.8828 45.5459 15.0276 45.4328ZM40.7178 47.7297C42.1807 47.7156 43.2338 48.4153 43.8911 49.6733C44.4989 50.8465 44.4706 52.055 43.7285 53.1858C43.4882 53.5462 43.4953 53.8148 43.8487 54.0692C43.9476 54.1399 44.0253 54.2318 44.1101 54.3166C48.1174 58.3309 52.1317 62.3452 56.1389 66.3595C56.9729 67.1935 56.9658 67.1864 57.7998 66.3595C60.754 63.4124 63.7011 60.4723 66.6624 57.5323C66.938 57.2567 66.9309 57.0305 66.6553 56.769C66.309 56.4368 65.9768 56.0835 65.6376 55.7442C61.7434 51.843 57.8493 47.9488 53.9692 44.0405C53.6441 43.7154 53.4038 43.6589 53.0081 43.9204C51.5168 44.9098 49.2623 44.4646 48.2587 42.9804C47.3753 41.68 47.2976 40.316 48.1315 38.959C48.3435 38.6127 48.3435 38.3866 48.0326 38.1109C47.6368 37.7646 47.2693 37.383 46.9089 36.9943C46.6332 36.6974 46.4212 36.6762 46.1314 36.9801C45.5236 37.6233 44.8805 38.2382 44.2515 38.8672C41.7779 41.3337 39.3114 43.8002 36.8377 46.2668C36.4844 46.6131 36.4914 46.7262 36.8519 47.0725C37.2477 47.4612 37.6505 47.8499 38.0321 48.2527C38.2442 48.4718 38.435 48.5354 38.6894 48.3234C39.276 47.8428 39.9898 47.7368 40.7178 47.7297ZM68.7261 61.6667C68.62 61.0448 68.5282 60.4229 68.3939 59.808C68.2949 59.3557 68.0688 59.3062 67.7437 59.6313C66.4221 60.9741 65.1146 62.324 63.7859 63.6527C62.3795 65.0591 60.9589 66.4443 59.5525 67.8437C59.4324 67.9638 59.3476 68.1193 59.2416 68.2536C59.397 68.3596 59.5313 68.508 59.7009 68.5575C61.072 68.9462 62.4007 68.8685 63.7789 68.4515C66.7472 67.5469 68.6483 64.6209 68.7261 61.6667Z" fill="#0074E5"/>
<path d="M6.84342 1.16232C7.14732 1.2754 7.38762 1.32487 7.59257 1.44502C10.1156 2.87971 12.6317 4.33561 15.1618 5.7703C15.7837 6.12367 16.1866 6.56185 16.3138 7.31807C16.4976 8.39939 16.7944 9.45951 17.0912 10.5196C17.1831 10.8518 17.381 11.1981 17.6213 11.4384C21.9183 15.7637 26.2365 20.0748 30.5476 24.386C30.9858 24.8241 31.4169 25.2623 31.8551 25.6934C32.0954 25.9267 32.0813 26.1175 31.841 26.3436C31.5583 26.6122 31.2827 26.8878 31.0141 27.1776C30.5688 27.6511 30.5264 27.6511 30.0529 27.1847C29.0635 26.1952 28.074 25.2058 27.0846 24.2163C23.2964 20.4211 19.5154 16.6259 15.7201 12.8448C15.1689 12.2936 15.0205 11.6009 14.8438 10.9083C14.6176 10.032 14.3985 9.16267 14.1794 8.28631C14.0876 7.91173 13.8755 7.67144 13.5292 7.47355C11.4867 6.31449 9.45838 5.13423 7.43002 3.95396C7.18973 3.81262 7.01304 3.86209 6.82929 4.04584C5.85398 5.00701 4.8716 5.96819 3.92457 6.95763C3.81149 7.07778 3.76202 7.40288 3.83976 7.54423C4.99882 9.60085 6.19322 11.6433 7.35228 13.7C7.55723 14.0604 7.8258 14.2512 8.21451 14.3502C9.28169 14.6046 10.3489 14.852 11.4019 15.1629C11.833 15.2901 12.2854 15.5163 12.5963 15.8202C16.2219 19.4105 19.8263 23.029 23.4307 26.6405C24.6534 27.8631 25.8761 29.0929 27.1129 30.3085C27.4097 30.5982 27.438 30.8032 27.1129 31.0788C26.7948 31.3545 26.5051 31.6584 26.2294 31.9764C25.9891 32.245 25.7912 32.2308 25.551 31.9905C23.8124 30.2378 22.0808 28.478 20.3352 26.7323C17.3456 23.7357 14.3561 20.7462 11.3666 17.7496C10.8931 17.2761 10.2711 17.2196 9.67747 17.0711C8.64562 16.8026 7.59257 16.5976 6.58899 16.2513C6.23562 16.1312 5.91759 15.7425 5.7197 15.3962C4.63131 13.5445 3.57826 11.6645 2.51108 9.79168C2.12237 9.12027 1.72659 8.45593 1.36615 7.78452C0.970374 7.05657 1.01278 6.65373 1.58524 6.0742C3.0482 4.5971 4.51823 3.12707 6.0024 1.67118C6.23562 1.44502 6.56779 1.32487 6.84342 1.16232Z" fill="#0074E5"/>
<path d="M15.0416 64.1191C13.9744 64.1191 12.9002 64.105 11.833 64.1262C11.211 64.1403 10.7658 63.9071 10.4478 63.3771C9.36643 61.5537 8.27098 59.7303 7.17552 57.9139C6.86456 57.398 6.87162 56.9033 7.18259 56.3874C8.28511 54.571 9.36643 52.7476 10.4548 50.9313C10.787 50.38 11.2676 50.1327 11.9248 50.1397C14.0168 50.1539 16.1088 50.1468 18.2007 50.1397C18.8297 50.1397 19.3033 50.38 19.6284 50.9242C20.6955 52.7052 21.7557 54.4933 22.844 56.2601C23.2328 56.8821 23.2398 57.4192 22.844 58.0553C21.7557 59.7868 20.7167 61.5537 19.6778 63.3135C19.3386 63.893 18.8721 64.1545 18.1937 64.1403C17.1477 64.0979 16.0946 64.1191 15.0416 64.1191ZM15.0628 61.8081C15.8755 61.8081 16.6883 61.8293 17.494 61.794C17.706 61.7869 18.0028 61.6455 18.1089 61.4759C18.9428 60.1543 19.7414 58.8115 20.5259 57.4545C20.6178 57.2991 20.6178 57.0022 20.5259 56.8467C19.7626 55.5322 18.957 54.2459 18.1866 52.9384C17.9887 52.5992 17.7484 52.4579 17.3526 52.4579C15.8049 52.472 14.2571 52.4437 12.7093 52.4791C12.4549 52.4861 12.1015 52.6628 11.9743 52.8678C11.1404 54.1894 10.3417 55.5393 9.55725 56.8891C9.47951 57.0234 9.47244 57.2849 9.55018 57.4192C10.3417 58.7691 11.1404 60.1119 11.9743 61.4335C12.0945 61.6243 12.4054 61.7798 12.6316 61.7869C13.4373 61.8293 14.25 61.8081 15.0628 61.8081Z" fill="#0074E5"/>
<path d="M24.0527 49.7298C23.9255 49.645 23.8194 49.5955 23.7346 49.5178C23.3813 49.1715 23.035 48.8181 22.6745 48.4647C22.4272 48.2174 22.5261 48.0266 22.7381 47.8145C24.2859 46.2738 25.8195 44.7261 27.3673 43.1783C31.6007 38.9378 35.8412 34.7044 40.0746 30.471C42.5835 27.9621 45.0995 25.4461 47.6155 22.9371C48.0042 22.5484 48.0537 22.5625 48.4354 22.9654C48.7251 23.2693 49.029 23.5661 49.34 23.8488C49.5803 24.0679 49.5803 24.2517 49.34 24.4849C41.6506 32.1743 33.9683 39.8566 26.286 47.546C25.657 48.175 25.035 48.804 24.406 49.433C24.3 49.539 24.1799 49.6238 24.0527 49.7298Z" fill="#0074E5"/>
<path d="M49.6724 48.2668C49.7784 48.3517 49.8703 48.4082 49.9409 48.4789C53.2061 51.7511 56.4642 55.0233 59.7293 58.3026C60.1322 58.7055 60.528 59.1224 60.9591 59.497C61.2559 59.7514 61.1923 59.9211 60.952 60.1543C60.6198 60.4653 60.3018 60.7833 59.9979 61.1155C59.7576 61.384 59.5739 61.3699 59.3265 61.1225C57.8635 59.6454 56.3935 58.1825 54.9235 56.7124C52.7608 54.5498 50.5982 52.3872 48.4356 50.2316C48.0539 49.85 48.0469 49.7934 48.4497 49.4047C48.7536 49.1079 49.0434 48.811 49.3543 48.5142C49.4462 48.4223 49.5593 48.3517 49.6724 48.2668Z" fill="#0074E5"/>
</g>
<defs>
<clipPath id="clip0_564_1348">
<rect x="0.65918" y="0.80896" width="70.6745" height="70.6745" rx="15" fill="white"/>
</clipPath>
</defs>
</svg>
