<svg width="32" height="32" viewBox="0 0 32 32" fill="none" xmlns="http://www.w3.org/2000/svg">
<g clip-path="url(#clip0_563_1309)">
<path d="M31.7854 6.60159C31.8686 7.60639 31.5614 8.59519 31.0718 9.50719C30.3198 10.9088 29.1742 11.8912 27.6702 12.4512C26.7486 12.7968 25.8014 12.8704 24.835 12.8032C24.7678 12.8 24.6942 12.8 24.6334 12.7712C24.3902 12.6528 24.2174 12.7424 24.0382 12.9216C23.2382 13.7312 22.4318 14.5344 21.6222 15.3376C21.507 15.4528 21.5262 15.5424 21.6318 15.648C21.971 15.984 22.3102 16.32 22.643 16.6624C22.9246 16.9504 22.9246 17.2 22.6462 17.5008C22.5758 17.5744 22.5022 17.648 22.435 17.7216C22.2238 17.9584 22.2174 18.272 22.4158 18.4992C22.6366 18.752 22.9566 18.7936 23.2222 18.5984C23.3246 18.5216 23.4174 18.4288 23.5134 18.3424C23.8238 18.0608 24.0318 18.0576 24.3262 18.352C24.8798 18.896 25.427 19.4496 25.9774 20C27.4238 21.4464 28.8702 22.8928 30.3166 24.3392C30.787 24.8096 31.2382 25.2928 31.4878 25.9232C31.6798 26.4128 31.7982 26.912 31.7982 27.4528C31.7982 28.112 31.7406 28.7424 31.459 29.344C30.9502 30.4352 30.1374 31.1936 29.0046 31.6064C28.2654 31.8752 27.5134 31.904 26.7486 31.7664C25.9358 31.6192 25.2254 31.2416 24.643 30.6624C22.5726 28.6048 20.515 26.5376 18.451 24.4736C18.387 24.4096 18.3262 24.3456 18.2718 24.2784C18.099 24.064 18.0926 23.8208 18.2654 23.6064C18.3646 23.4848 18.483 23.3792 18.5758 23.2544C18.8542 22.8832 18.6366 22.3392 18.1758 22.288C18.0606 22.2752 17.923 22.3232 17.8174 22.3808C17.7022 22.4448 17.6094 22.5536 17.5102 22.6464C17.1966 22.9376 16.947 22.9472 16.6334 22.6496C16.3102 22.3456 16.003 22.0288 15.6926 21.712C15.4974 21.5136 15.475 21.5104 15.2702 21.712C14.4702 22.512 13.6734 23.3152 12.867 24.1088C12.7198 24.256 12.6782 24.3968 12.7358 24.6016C12.899 25.184 12.8734 25.7728 12.771 26.3648C12.6654 26.9792 12.5214 27.5776 12.2622 28.1472C11.8494 29.0496 11.2414 29.8016 10.4798 30.432C9.87181 30.9344 9.19341 31.3056 8.44461 31.5392C7.52301 31.8272 6.58221 31.9072 5.61901 31.7664C4.29421 31.5712 3.14541 31.0176 2.17901 30.1056C1.30541 29.2864 0.716613 28.288 0.412613 27.12C0.179013 26.2336 0.163013 25.3376 0.294213 24.4416C0.364613 23.968 0.515013 23.4976 0.707013 23.056C1.24141 21.8144 2.08301 20.8224 3.24781 20.1216C4.55341 19.3344 5.96141 19.0528 7.46541 19.2928C7.67021 19.3248 7.80781 19.2864 7.95501 19.1392C11.0142 16.0672 14.0766 12.9984 17.1422 9.92639C17.8174 9.25119 18.4894 8.57279 19.1678 7.90399C19.2958 7.77919 19.3246 7.65439 19.2862 7.48159C19.1486 6.82559 19.1806 6.16959 19.2734 5.51039C19.3726 4.81279 19.5998 4.15999 19.9294 3.54559C20.3966 2.67519 21.0174 1.93599 21.8398 1.36959C23.3918 0.29759 25.0782 -0.0352105 26.9182 0.367989C27.4686 0.489589 27.603 0.915189 27.2158 1.33119C26.9374 1.62879 26.6398 1.91359 26.3518 2.20159C25.603 2.94719 24.851 3.68959 24.1086 4.44159C24.051 4.49919 24.003 4.63039 24.0286 4.70079C24.1726 5.16159 24.3358 5.61599 24.4958 6.07359C24.6046 6.39039 24.7006 6.71039 24.8254 7.01759C24.8638 7.10719 24.979 7.19039 25.0782 7.22559C25.7214 7.45279 26.3806 7.63519 27.0078 7.89119C27.3694 8.04159 27.5774 7.95519 27.8302 7.69279C28.707 6.78719 29.6094 5.90399 30.5022 5.01439C30.5854 4.93119 30.6622 4.84479 30.7486 4.77119C31.107 4.46079 31.5262 4.59199 31.6382 5.05279C31.699 5.29919 31.7598 5.54559 31.7854 5.79519C31.8046 6.03839 31.7854 6.29119 31.7854 6.60159ZM6.50541 20.2048C5.73421 20.2144 4.98541 20.3552 4.30061 20.6912C2.58861 21.5264 1.52941 22.864 1.22541 24.7744C1.05261 25.856 1.22541 26.8832 1.69581 27.856C2.36461 29.2384 3.44621 30.1472 4.91501 30.624C6.07021 30.9984 7.19661 30.9408 8.31981 30.5376C9.18381 30.2272 9.91021 29.7088 10.5118 29.0144C11.0942 28.3392 11.4878 27.5712 11.6766 26.704C11.8494 25.9072 11.827 25.104 11.6574 24.3072C11.5998 24.0352 11.6734 23.8336 11.8654 23.6448C12.6206 22.896 13.3694 22.1408 14.1214 21.3888C16.3518 19.1552 18.5822 16.9248 20.8158 14.6912C21.7662 13.7408 22.7166 12.7936 23.667 11.8432C23.8078 11.7024 23.9614 11.5968 24.1726 11.6256C24.3422 11.648 24.5118 11.664 24.6782 11.7056C25.3726 11.8784 26.067 11.8208 26.7422 11.6544C28.2558 11.28 29.4014 10.4 30.1598 9.03359C30.6078 8.23039 30.7806 7.35359 30.7934 6.44159C30.7934 6.39359 30.7582 6.34559 30.739 6.29759C30.6814 6.32639 30.611 6.33919 30.5662 6.38079C30.227 6.71679 29.8974 7.05919 29.5614 7.39839C29.0654 7.89759 28.5662 8.39039 28.0734 8.88959C27.8622 9.10399 27.6446 9.18399 27.3374 9.07199C26.7614 8.86079 26.1758 8.68799 25.5934 8.49279C25.1806 8.35519 24.7678 8.21439 24.3582 8.07039C24.115 7.98399 23.9774 7.81119 23.8974 7.56479C23.5806 6.58559 23.2606 5.60959 22.9246 4.63999C22.8382 4.38719 22.8894 4.18879 23.0558 3.99999C23.1358 3.90719 23.2286 3.82399 23.315 3.73759C24.0894 2.96959 24.8638 2.20159 25.6318 1.43039C25.6734 1.38879 25.683 1.31519 25.7054 1.25439C25.651 1.23519 25.5966 1.19679 25.5422 1.19999C24.7038 1.23199 23.8846 1.37919 23.1358 1.76959C21.9614 2.38399 21.091 3.29279 20.595 4.53759C20.1918 5.55519 20.1086 6.60159 20.355 7.66399C20.4222 7.96159 20.3582 8.17919 20.1534 8.38399C19.6734 8.86079 19.1998 9.34079 18.723 9.81759C16.3294 12.2144 13.9326 14.6112 11.539 17.008C10.4926 18.0544 9.44621 19.1008 8.40301 20.1472C8.19181 20.3584 7.96461 20.4256 7.66381 20.3584C7.28301 20.2816 6.89261 20.256 6.50541 20.2048ZM18.1374 21.2448C18.7998 21.2384 19.2766 21.5552 19.5742 22.1248C19.8494 22.656 19.8366 23.2032 19.5006 23.7152C19.3918 23.8784 19.395 24 19.555 24.1152C19.5998 24.1472 19.635 24.1888 19.6734 24.2272C21.4878 26.0448 23.3054 27.8624 25.1198 29.68C25.4974 30.0576 25.4942 30.0544 25.8718 29.68C27.2094 28.3456 28.5438 27.0144 29.8846 25.6832C30.0094 25.5584 30.0062 25.456 29.8814 25.3376C29.7246 25.1872 29.5742 25.0272 29.4206 24.8736C27.6574 23.1072 25.8942 21.344 24.1374 19.5744C23.9902 19.4272 23.8814 19.4016 23.7022 19.52C23.027 19.968 22.0062 19.7664 21.5518 19.0944C21.1518 18.5056 21.1166 17.888 21.4942 17.2736C21.5902 17.1168 21.5902 17.0144 21.4494 16.8896C21.2702 16.7328 21.1038 16.56 20.9406 16.384C20.8158 16.2496 20.7198 16.24 20.5886 16.3776C20.3134 16.6688 20.0222 16.9472 19.7374 17.232C18.6174 18.3488 17.5006 19.4656 16.3806 20.5824C16.2206 20.7392 16.2238 20.7904 16.387 20.9472C16.5662 21.1232 16.7486 21.2992 16.9214 21.4816C17.0174 21.5808 17.1038 21.6096 17.219 21.5136C17.4846 21.296 17.8078 21.248 18.1374 21.2448ZM30.819 27.5552C30.771 27.2736 30.7294 26.992 30.6686 26.7136C30.6238 26.5088 30.5214 26.4864 30.3742 26.6336C29.7758 27.2416 29.1838 27.8528 28.5822 28.4544C27.9454 29.0912 27.3022 29.7184 26.6654 30.352C26.611 30.4064 26.5726 30.4768 26.5246 30.5376C26.595 30.5856 26.6558 30.6528 26.7326 30.6752C27.3534 30.8512 27.955 30.816 28.579 30.6272C29.923 30.2176 30.7838 28.8928 30.819 27.5552Z" fill="#697794"/>
<path d="M2.79996 0.160034C2.93756 0.211234 3.04636 0.233634 3.13916 0.288034C4.28156 0.937634 5.42076 1.59683 6.56636 2.24643C6.84796 2.40643 7.03036 2.60483 7.08796 2.94723C7.17116 3.43683 7.30556 3.91683 7.43996 4.39683C7.48156 4.54723 7.57116 4.70403 7.67996 4.81283C9.62556 6.77123 11.5808 8.72323 13.5328 10.6752C13.7312 10.8736 13.9264 11.072 14.1248 11.2672C14.2336 11.3728 14.2272 11.4592 14.1184 11.5616C13.9904 11.6832 13.8656 11.808 13.744 11.9392C13.5424 12.1536 13.5232 12.1536 13.3088 11.9424C12.8608 11.4944 12.4128 11.0464 11.9648 10.5984C10.2496 8.88003 8.53756 7.16163 6.81916 5.44963C6.56956 5.20003 6.50236 4.88643 6.42236 4.57283C6.31996 4.17603 6.22076 3.78243 6.12156 3.38563C6.07996 3.21603 5.98396 3.10723 5.82716 3.01763C4.90236 2.49283 3.98396 1.95843 3.06556 1.42403C2.95676 1.36003 2.87676 1.38243 2.79356 1.46563C2.35196 1.90083 1.90716 2.33603 1.47836 2.78403C1.42716 2.83843 1.40476 2.98563 1.43996 3.04963C1.96476 3.98083 2.50556 4.90563 3.03036 5.83683C3.12316 6.00003 3.24476 6.08643 3.42076 6.13123C3.90396 6.24643 4.38716 6.35843 4.86396 6.49923C5.05916 6.55683 5.26396 6.65923 5.40476 6.79683C7.04636 8.42243 8.67836 10.0608 10.3104 11.696C10.864 12.2496 11.4176 12.8064 11.9776 13.3568C12.112 13.488 12.1248 13.5808 11.9776 13.7056C11.8336 13.8304 11.7024 13.968 11.5776 14.112C11.4688 14.2336 11.3792 14.2272 11.2704 14.1184C10.4832 13.3248 9.69916 12.528 8.90876 11.7376C7.55516 10.3808 6.20156 9.02723 4.84796 7.67043C4.63356 7.45603 4.35196 7.43043 4.08316 7.36323C3.61596 7.24163 3.13916 7.14883 2.68476 6.99203C2.52476 6.93763 2.38076 6.76163 2.29116 6.60483C1.79836 5.76643 1.32156 4.91523 0.838359 4.06723C0.662359 3.76323 0.483159 3.46243 0.319959 3.15843C0.140759 2.82883 0.159959 2.64643 0.419159 2.38403C1.08156 1.71523 1.74716 1.04963 2.41916 0.390434C2.52476 0.288034 2.67516 0.233634 2.79996 0.160034Z" fill="#697794"/>
<path d="M6.51181 28.6656C6.0286 28.6656 5.54221 28.6592 5.05901 28.6688C4.77741 28.6752 4.57581 28.5696 4.43181 28.3296C3.94221 27.504 3.44621 26.6784 2.95021 25.856C2.80941 25.6224 2.8126 25.3984 2.9534 25.1648C3.4526 24.3424 3.94221 23.5168 4.435 22.6944C4.5854 22.4448 4.803 22.3328 5.10061 22.336C6.0478 22.3424 6.995 22.3392 7.9422 22.336C8.22701 22.336 8.44141 22.4448 8.58861 22.6912C9.07181 23.4976 9.55181 24.3072 10.0446 25.1072C10.2206 25.3888 10.2238 25.632 10.0446 25.92C9.55181 26.704 9.08141 27.504 8.61101 28.3008C8.45741 28.5632 8.2462 28.6816 7.939 28.6752C7.4654 28.656 6.98861 28.6656 6.51181 28.6656ZM6.5214 27.6192C6.8894 27.6192 7.2574 27.6288 7.6222 27.6128C7.7182 27.6096 7.8526 27.5456 7.90061 27.4688C8.2782 26.8704 8.63981 26.2624 8.99501 25.648C9.03661 25.5776 9.03661 25.4432 8.99501 25.3728C8.64941 24.7776 8.2846 24.1952 7.9358 23.6032C7.8462 23.4496 7.73741 23.3856 7.55821 23.3856C6.85741 23.392 6.1566 23.3792 5.4558 23.3952C5.3406 23.3984 5.18061 23.4784 5.12301 23.5712C4.74541 24.1696 4.38381 24.7808 4.02861 25.392C3.99341 25.4528 3.99021 25.5712 4.02541 25.632C4.38381 26.2432 4.74541 26.8512 5.12301 27.4496C5.17741 27.536 5.31821 27.6064 5.42061 27.6096C5.78541 27.6288 6.1534 27.6192 6.5214 27.6192Z" fill="#697794"/>
<path d="M10.5918 22.1504C10.5342 22.112 10.4862 22.0896 10.4478 22.0544C10.2878 21.8976 10.131 21.7376 9.96783 21.5776C9.85583 21.4656 9.90063 21.3792 9.99663 21.2832C10.6974 20.5856 11.3918 19.8848 12.0926 19.184C14.0094 17.264 15.9294 15.3472 17.8462 13.4304C18.9822 12.2944 20.1214 11.1552 21.2606 10.0192C21.4366 9.84321 21.459 9.84961 21.6318 10.032C21.763 10.1696 21.9006 10.304 22.0414 10.432C22.1502 10.5312 22.1502 10.6144 22.0414 10.72C18.5598 14.2016 15.0814 17.68 11.603 21.1616C11.3182 21.4464 11.0366 21.7312 10.7518 22.016C10.7038 22.064 10.6494 22.1024 10.5918 22.1504Z" fill="#697794"/>
<path d="M22.192 21.488C22.24 21.5264 22.2816 21.552 22.3136 21.584C23.792 23.0656 25.2672 24.5472 26.7456 26.032C26.928 26.2144 27.1072 26.4032 27.3024 26.5728C27.4368 26.688 27.408 26.7648 27.2992 26.8704C27.1488 27.0112 27.0048 27.1552 26.8672 27.3056C26.7584 27.4272 26.6752 27.4208 26.5632 27.3088C25.9008 26.64 25.2352 25.9776 24.5696 25.312C23.5904 24.3328 22.6112 23.3536 21.632 22.3776C21.4592 22.2048 21.456 22.1792 21.6384 22.0032C21.776 21.8688 21.9072 21.7344 22.048 21.6C22.0896 21.5584 22.1408 21.5264 22.192 21.488Z" fill="#697794"/>
</g>
<defs>
<clipPath id="clip0_563_1309">
<rect width="32" height="32" fill="white"/>
</clipPath>
</defs>
</svg>
