<svg width="249" height="81" viewBox="0 0 249 81" fill="none" xmlns="http://www.w3.org/2000/svg">
    <path d="M8.32666 17.5865C12.8965 17.5719 17.4737 17.6157 22.0436 17.5646C26.6355 26.4892 36.2 45.3892 36.493 45.8708C40.9164 36.4281 45.4057 27.0146 49.8511 17.5865C66.6586 17.6011 83.4734 17.5573 100.288 17.6084C103.833 24.8108 112.628 42.587 113.632 44.1924C113.624 35.3262 113.617 26.46 113.61 17.6011C131.809 17.5792 150 17.5938 168.192 17.5938C168.192 26.9854 168.199 36.3697 168.177 45.7613C168.082 47.4762 168.565 49.213 169.605 50.5848C171.026 52.4748 173.626 53.1535 175.874 52.6938C178.569 52.0224 180.1 49.1546 180.239 46.5567C180.232 36.9024 180.217 27.2481 180.225 17.5865C184.575 17.5865 188.925 17.5865 193.282 17.5865C193.275 19.4473 193.297 21.2935 193.26 23.1543C196.951 19.367 202.386 17.9148 207.527 17.5792C211.591 17.6813 215.802 18.9365 218.783 21.797C221.405 24.227 222.987 27.6567 223.433 31.174C219.486 31.1959 215.539 31.174 211.591 31.1813C211.415 30.0648 210.888 28.9119 209.76 28.4959C207.541 27.7005 204.832 27.8684 202.891 29.2767C201.888 29.97 201.961 31.4221 202.671 32.2978C203.865 33.823 205.813 34.4359 207.607 34.954C210.712 35.8443 214.081 35.64 217.04 37.063C222.159 39.3105 224.979 45.1557 224.598 50.563C224.085 54.4524 221.815 58.1303 218.424 60.1808C214.491 62.6035 209.68 62.9611 205.176 62.5962C199.61 62.027 194.33 59.13 190.997 54.6421C189.65 57.2035 187.284 59.0497 184.663 60.1954C181.374 62.1948 177.398 62.224 173.67 62.2021C169.598 62.0489 165.365 61.3046 161.908 59.0424C158.51 56.4227 155.669 52.5697 155.574 48.1403C155.303 41.8208 155.493 35.494 155.669 29.1746C152.71 29.2257 149.751 29.1746 146.8 29.1965C146.793 39.4711 146.778 49.7384 146.778 60.0057C142.435 59.9984 138.092 60.0057 133.749 59.9984C133.742 49.7603 133.757 39.5294 133.735 29.2913C131.054 29.2986 128.374 29.2913 125.694 29.2986C125.679 39.5294 125.672 49.7676 125.672 60.0057C121.658 59.9911 117.645 60.0202 113.632 59.9911C109.443 53.8394 100.149 40.0111 99.5119 39.3908C99.49 46.367 99.4899 53.3432 99.4826 60.3194C85.0699 60.3121 70.6499 60.2902 56.2299 60.3267C56.1932 52.1975 56.2225 44.0684 56.1713 35.9465C49.668 47.8192 43.15 59.6846 36.6614 71.5646C27.2067 53.5694 17.7154 35.6035 8.32666 17.5865ZM68.7092 27.9413C68.7824 30.0503 68.6799 32.1592 68.7677 34.2681C74.4288 34.217 80.0972 34.2608 85.751 34.2462C85.7583 37.6832 85.751 41.1203 85.751 44.5573C80.2364 44.5646 74.7291 44.5573 69.2218 44.5646C69.2145 46.7173 69.2145 48.8773 69.2145 51.03C75.4981 51.03 81.7817 51.0373 88.0579 51.03C88.0359 43.3167 88.0433 35.6108 88.0433 27.9048C81.5912 27.9267 75.1465 27.8538 68.7092 27.9413ZM192.938 40.6094C193.055 43.4262 192.887 46.2502 193.026 49.067C195.714 49.0159 198.416 49.0451 201.111 49.0451C201.756 50.7235 202.92 52.2778 204.583 53.0513C206.413 53.8978 208.625 53.8832 210.471 53.0878C211.826 52.5186 212.719 51.1394 212.829 49.6946C212.477 48.2789 211.02 47.5711 209.812 46.98C206.494 45.5205 202.898 44.8419 199.332 44.28C196.878 43.8275 194.278 42.8497 192.938 40.6094Z" fill="#FFFFFF"/>
    <path d="M233.356 25.5989V19.8195H235.927C236.447 19.8195 236.835 19.8705 237.106 19.98C237.377 20.0822 237.589 20.2646 237.751 20.5273C237.912 20.79 237.992 21.0819 237.992 21.3957C237.992 21.8043 237.86 22.1546 237.597 22.4319C237.333 22.7092 236.916 22.8916 236.359 22.9646C236.564 23.0595 236.718 23.1616 236.82 23.2492C237.04 23.4535 237.26 23.7089 237.458 24.0154L238.468 25.5843H237.502L236.733 24.3803C236.513 24.0373 236.322 23.7673 236.176 23.5849C236.03 23.4024 235.905 23.2711 235.788 23.1981C235.671 23.1251 235.554 23.0741 235.436 23.0449C235.348 23.0303 235.209 23.0157 235.012 23.0157H234.125V25.577H233.356V25.5989ZM234.125 22.3735H235.773C236.125 22.3735 236.396 22.337 236.593 22.2641C236.791 22.1911 236.938 22.0743 237.047 21.9138C237.15 21.7532 237.201 21.5854 237.201 21.3957C237.201 21.1257 237.099 20.8995 236.901 20.7243C236.703 20.5492 236.388 20.4616 235.956 20.4616H234.118V22.3735H234.125Z" fill="#FFFFFF"/>
    <path d="M230.376 22.7384C230.376 19.907 232.683 17.6084 235.524 17.6084C238.366 17.6084 240.673 19.907 240.673 22.7384C240.673 25.5698 238.366 27.8684 235.524 27.8684C232.683 27.8684 230.376 25.5698 230.376 22.7384ZM235.524 27.4087C238.117 27.4087 240.211 25.3143 240.211 22.7384C240.211 20.1552 238.11 18.0608 235.524 18.0608C232.932 18.0608 230.837 20.1552 230.837 22.7384C230.837 25.3216 232.932 27.4087 235.524 27.4087Z" fill="#FFFFFF"/>
</svg>
